<?xml version="1.0" encoding="UTF-8" standalone="no"?>
<!DOCTYPE svg PUBLIC "-//W3C//DTD SVG 1.1//EN" "http://www.w3.org/Graphics/SVG/1.1/DTD/svg11.dtd">
<!-- Created with Vectornator (http://vectornator.io/) -->
<svg height="100%" stroke-miterlimit="10" style="fill-rule:nonzero;clip-rule:evenodd;stroke-linecap:round;stroke-linejoin:round;" version="1.1" viewBox="0 0 44 41.95" width="100%" xml:space="preserve" xmlns="http://www.w3.org/2000/svg" xmlns:vectornator="http://vectornator.io" xmlns:xlink="http://www.w3.org/1999/xlink">
<defs/>
<g id="Untitled" vectornator:layerName="Untitled">
<path d="M22 39.3L19.95 37.45C16.4167 34.2167 13.5 31.425 11.2 29.075C8.9 26.725 7.06667 24.625 5.7 22.775C4.33333 20.925 3.375 19.25 2.825 17.75C2.275 16.25 2 14.7333 2 13.2C2 10.2 3.00833 7.69167 5.025 5.675C7.04167 3.65833 9.53333 2.65 12.5 2.65C14.4 2.65 16.1583 3.1 17.775 4C19.3917 4.9 20.8 6.2 22 7.9C23.4 6.1 24.8833 4.775 26.45 3.925C28.0167 3.075 29.7 2.65 31.5 2.65C34.4667 2.65 36.9583 3.65833 38.975 5.675C40.9917 7.69167 42 10.2 42 13.2C42 14.7333 41.725 16.25 41.175 17.75C40.625 19.25 39.6667 20.925 38.3 22.775C36.9333 24.625 35.1 26.725 32.8 29.075C30.5 31.425 27.5833 34.2167 24.05 37.45L22 39.3ZM22.0007 35.3553C25.3674 32.2553 28.1424 29.597 30.3257 27.3803C32.509 25.1637 34.2424 23.222 35.5257 21.5553C36.809 19.8887 37.709 18.4053 38.2257 17.1053C38.7424 15.8053 39.0007 14.5053 39.0007 13.2053C39.0007 11.0053 38.3007 9.19699 36.9007 7.78032C35.5007 6.36365 33.7007 5.65532 31.5007 5.65532C29.8007 5.65532 28.2174 6.18032 26.7507 7.23032C25.284 8.28032 24.1007 9.75532 23.2007 11.6553L20.7507 11.6553C19.884 9.78865 18.7174 8.32199 17.2507 7.25532C15.784 6.18865 14.2007 5.65532 12.5007 5.65532C10.3007 5.65532 8.50069 6.36365 7.10069 7.78032C5.70068 9.19699 5.00068 11.0053 5.00068 13.2053C5.00068 14.5053 5.25902 15.8137 5.77568 17.1303C6.29235 18.447 7.19235 19.947 8.47568 21.6303C9.75902 23.3137 11.5007 25.2553 13.7007 27.4553C15.9007 29.6553 18.6674 32.2887 22.0007 35.3553Z" fill="#ff3866" fill-rule="nonzero" opacity="1" stroke="none"/>
</g>
</svg>
