<?xml version="1.0" encoding="UTF-8" standalone="no"?>
<!DOCTYPE svg PUBLIC "-//W3C//DTD SVG 1.1//EN" "http://www.w3.org/Graphics/SVG/1.1/DTD/svg11.dtd">
<!-- Created with Vectornator (http://vectornator.io/) -->
<svg height="100%" stroke-miterlimit="10" style="fill-rule:nonzero;clip-rule:evenodd;stroke-linecap:round;stroke-linejoin:round;" version="1.1" viewBox="0 0 46 39.95" width="100%" xml:space="preserve" xmlns="http://www.w3.org/2000/svg" xmlns:vectornator="http://vectornator.io" xmlns:xlink="http://www.w3.org/1999/xlink">
<defs/>
<g id="Untitled" vectornator:layerName="Untitled">
<path d="M10.204 35.9561C8.57063 35.9561 7.17896 35.3894 6.02896 34.2561C4.87896 33.1228 4.30396 31.7228 4.30396 30.0561L4.00396 30.0561C3.17063 30.0561 2.46229 29.7644 1.87896 29.1811C1.29563 28.5978 1.00396 27.8894 1.00396 27.0561L1.00396 7.0061C1.00396 6.2061 1.30396 5.5061 1.90396 4.9061C2.50396 4.3061 3.20396 4.0061 4.00396 4.0061L29.954 4.0061C30.7873 4.0061 31.4956 4.29776 32.079 4.8811C32.6623 5.46443 32.954 6.17276 32.954 7.0061L32.954 12.3561L37.454 12.3561C37.7206 12.3561 37.954 12.4061 38.154 12.5061C38.354 12.6061 38.5206 12.7561 38.654 12.9561L44.704 21.0061C44.804 21.1394 44.879 21.2811 44.929 21.4311C44.979 21.5811 45.004 21.7394 45.004 21.9061L45.004 28.5561C45.004 28.9894 44.8623 29.3478 44.579 29.6311C44.2956 29.9144 43.9373 30.0561 43.504 30.0561L41.454 30.0561C41.454 31.7228 40.879 33.1228 39.729 34.2561C38.579 35.3894 37.1873 35.9561 35.554 35.9561C33.9206 35.9561 32.529 35.3894 31.379 34.2561C30.229 33.1228 29.654 31.7228 29.654 30.0561L16.104 30.0561C16.104 31.7228 15.529 33.1228 14.379 34.2561C13.229 35.3894 11.8373 35.9561 10.204 35.9561ZM10.204 32.9561C11.004 32.9561 11.6873 32.6728 12.254 32.1061C12.8206 31.5394 13.104 30.8561 13.104 30.0561C13.104 29.2561 12.8206 28.5728 12.254 28.0061C11.6873 27.4394 11.004 27.1561 10.204 27.1561C9.40396 27.1561 8.72063 27.4394 8.15396 28.0061C7.58729 28.5728 7.30396 29.2561 7.30396 30.0561C7.30396 30.8561 7.58729 31.5394 8.15396 32.1061C8.72063 32.6728 9.40396 32.9561 10.204 32.9561ZM35.554 32.9561C36.354 32.9561 37.0373 32.6728 37.604 32.1061C38.1706 31.5394 38.454 30.8561 38.454 30.0561C38.454 29.2561 38.1706 28.5728 37.604 28.0061C37.0373 27.4394 36.354 27.1561 35.554 27.1561C34.754 27.1561 34.0706 27.4394 33.504 28.0061C32.9373 28.5728 32.654 29.2561 32.654 30.0561C32.654 30.8561 32.9373 31.5394 33.504 32.1061C34.0706 32.6728 34.754 32.9561 35.554 32.9561ZM32.954 22.7561L42.254 22.7561L36.704 15.3561L32.954 15.3561L32.954 22.7561Z" fill="#ce7f00" fill-rule="nonzero" opacity="1" stroke="none"/>
</g>
</svg>
