<?xml version="1.0" encoding="UTF-8" standalone="no"?>
<!DOCTYPE svg PUBLIC "-//W3C//DTD SVG 1.1//EN" "http://www.w3.org/Graphics/SVG/1.1/DTD/svg11.dtd">
<!-- Created with Vectornator (http://vectornator.io/) -->
<svg height="100%" stroke-miterlimit="10" style="fill-rule:nonzero;clip-rule:evenodd;stroke-linecap:round;stroke-linejoin:round;" version="1.1" viewBox="0 0 44 44" width="100%" xml:space="preserve" xmlns="http://www.w3.org/2000/svg" xmlns:vectornator="http://vectornator.io" xmlns:xlink="http://www.w3.org/1999/xlink">
<defs/>
<g id="Untitled" vectornator:layerName="Untitled">
<path d="M11.9981 23.3446L31.9981 23.3446L31.9981 20.3446L11.9981 20.3446L11.9981 23.3446ZM21.9981 41.9946C19.2647 41.9946 16.6814 41.4696 14.2481 40.4196C11.8147 39.3696 9.68973 37.9362 7.87306 36.1196C6.0564 34.3029 4.62306 32.1779 3.57306 29.7446C2.52306 27.3112 1.99806 24.7279 1.99806 21.9946C1.99806 19.2279 2.52306 16.6279 3.57306 14.1946C4.62306 11.7612 6.0564 9.64458 7.87306 7.84458C9.68973 6.04458 11.8147 4.61958 14.2481 3.56958C16.6814 2.51958 19.2647 1.99458 21.9981 1.99458C24.7647 1.99458 27.3647 2.51958 29.7981 3.56958C32.2314 4.61958 34.3481 6.04458 36.1481 7.84458C37.9481 9.64458 39.3731 11.7612 40.4231 14.1946C41.4731 16.6279 41.9981 19.2279 41.9981 21.9946C41.9981 24.7279 41.4731 27.3112 40.4231 29.7446C39.3731 32.1779 37.9481 34.3029 36.1481 36.1196C34.3481 37.9362 32.2314 39.3696 29.7981 40.4196C27.3647 41.4696 24.7647 41.9946 21.9981 41.9946Z" fill="#0083be" fill-rule="nonzero" opacity="1" stroke="none"/>
</g>
</svg>
