<?xml version="1.0" encoding="UTF-8" standalone="no"?>
<!DOCTYPE svg PUBLIC "-//W3C//DTD SVG 1.1//EN" "http://www.w3.org/Graphics/SVG/1.1/DTD/svg11.dtd">
<!-- Created with Vectornator (http://vectornator.io/) -->
<svg height="100%" stroke-miterlimit="10" style="fill-rule:nonzero;clip-rule:evenodd;stroke-linecap:round;stroke-linejoin:round;" version="1.1" viewBox="0 0 44 44" width="100%" xml:space="preserve" xmlns="http://www.w3.org/2000/svg" xmlns:vectornator="http://vectornator.io" xmlns:xlink="http://www.w3.org/1999/xlink">
<defs/>
<g id="Untitled" vectornator:layerName="Untitled">
<path d="M20.65 31.9945L23.65 31.9945L23.65 23.6945L32 23.6945L32 20.6945L23.65 20.6945L23.65 11.9945L20.65 11.9945L20.65 20.6945L12 20.6945L12 23.6945L20.65 23.6945L20.65 31.9945ZM22 41.9945C19.2667 41.9945 16.6833 41.4695 14.25 40.4195C11.8167 39.3695 9.69167 37.9362 7.875 36.1195C6.05833 34.3029 4.625 32.1779 3.575 29.7445C2.525 27.3112 2 24.7112 2 21.9445C2 19.2112 2.525 16.6279 3.575 14.1945C4.625 11.7612 6.05833 9.64455 7.875 7.84455C9.69167 6.04455 11.8167 4.61955 14.25 3.56955C16.6833 2.51955 19.2833 1.99455 22.05 1.99455C24.7833 1.99455 27.3667 2.51955 29.8 3.56955C32.2333 4.61955 34.35 6.04455 36.15 7.84455C37.95 9.64455 39.375 11.7612 40.425 14.1945C41.475 16.6279 42 19.2279 42 21.9945C42 24.7279 41.475 27.3112 40.425 29.7445C39.375 32.1779 37.95 34.3029 36.15 36.1195C34.35 37.9362 32.2333 39.3695 29.8 40.4195C27.3667 41.4695 24.7667 41.9945 22 41.9945Z" fill="#0083be" fill-rule="nonzero" opacity="1" stroke="none"/>
</g>
</svg>
