<?xml version="1.0" encoding="UTF-8" standalone="no"?>
<!DOCTYPE svg PUBLIC "-//W3C//DTD SVG 1.1//EN" "http://www.w3.org/Graphics/SVG/1.1/DTD/svg11.dtd">
<!-- Created with Vectornator (http://vectornator.io/) -->
<svg height="100%" stroke-miterlimit="10" style="fill-rule:nonzero;clip-rule:evenodd;stroke-linecap:round;stroke-linejoin:round;" version="1.1" viewBox="0 0 41.75 43.95" width="100%" xml:space="preserve" xmlns="http://www.w3.org/2000/svg" xmlns:vectornator="http://vectornator.io" xmlns:xlink="http://www.w3.org/1999/xlink">
<defs/>
<g id="Untitled" vectornator:layerName="Untitled">
<path d="M13.0651 41.9247C12.0651 41.9247 11.2151 41.5747 10.5151 40.8747C9.81514 40.1747 9.46514 39.3247 9.46514 38.3247C9.46514 37.3247 9.81514 36.4747 10.5151 35.7747C11.2151 35.0747 12.0651 34.7247 13.0651 34.7247C14.0651 34.7247 14.9151 35.0747 15.6151 35.7747C16.3151 36.4747 16.6651 37.3247 16.6651 38.3247C16.6651 39.3247 16.3151 40.1747 15.6151 40.8747C14.9151 41.5747 14.0651 41.9247 13.0651 41.9247ZM33.0651 41.9247C32.0651 41.9247 31.2151 41.5747 30.5151 40.8747C29.8151 40.1747 29.4651 39.3247 29.4651 38.3247C29.4651 37.3247 29.8151 36.4747 30.5151 35.7747C31.2151 35.0747 32.0651 34.7247 33.0651 34.7247C34.0651 34.7247 34.9151 35.0747 35.6151 35.7747C36.3151 36.4747 36.6651 37.3247 36.6651 38.3247C36.6651 39.3247 36.3151 40.1747 35.6151 40.8747C34.9151 41.5747 34.0651 41.9247 33.0651 41.9247ZM8.96514 5.92466L38.4151 5.92466C39.1818 5.92466 39.7651 6.27466 40.1651 6.97466C40.5651 7.67466 40.5651 8.37466 40.1651 9.07466L33.4151 21.2247C33.0485 21.858 32.5735 22.3663 31.9901 22.7497C31.4068 23.133 30.7651 23.3247 30.0651 23.3247L14.9151 23.3247L12.1151 28.5247L36.6651 28.5247L36.6651 31.5247L12.5651 31.5247C11.1651 31.5247 10.1568 31.058 9.54014 30.1247C8.92348 29.1913 8.93181 28.1413 9.56514 26.9747L12.7651 21.0747L5.16514 4.97466L1.26514 4.97466L1.26514 1.97466L7.11514 1.97466L8.96514 5.92466Z" fill="#00c4d5" fill-rule="nonzero" opacity="1" stroke="none"/>
</g>
</svg>
