<?xml version="1.0" encoding="UTF-8" standalone="no"?>
<!DOCTYPE svg PUBLIC "-//W3C//DTD SVG 1.1//EN" "http://www.w3.org/Graphics/SVG/1.1/DTD/svg11.dtd">
<!-- Created with Vectornator (http://vectornator.io/) -->
<svg height="100%" stroke-miterlimit="10" style="fill-rule:nonzero;clip-rule:evenodd;stroke-linecap:round;stroke-linejoin:round;" version="1.1" viewBox="0 0 44 40" width="100%" xml:space="preserve" xmlns="http://www.w3.org/2000/svg" xmlns:vectornator="http://vectornator.io" xmlns:xlink="http://www.w3.org/1999/xlink">
<defs/>
<g id="Untitled" vectornator:layerName="Untitled">
<path d="M5.00584 36.0054C4.20584 36.0054 3.50584 35.7054 2.90584 35.1054C2.30584 34.5054 2.00584 33.8054 2.00584 33.0054L2.00584 7.00535C2.00584 6.20535 2.30584 5.50535 2.90584 4.90535C3.50584 4.30535 4.20584 4.00535 5.00584 4.00535L39.0058 4.00535C39.8058 4.00535 40.5058 4.30535 41.1058 4.90535C41.7058 5.50535 42.0058 6.20535 42.0058 7.00535L42.0058 33.0054C42.0058 33.8054 41.7058 34.5054 41.1058 35.1054C40.5058 35.7054 39.8058 36.0054 39.0058 36.0054L5.00584 36.0054ZM22.0058 20.6054C22.1725 20.6054 22.3142 20.5804 22.4308 20.5304C22.5475 20.4804 22.6725 20.422 22.8058 20.3554L38.5058 10.1054C38.6725 10.0054 38.7975 9.87202 38.8808 9.70535C38.9642 9.53869 39.0058 9.35535 39.0058 9.15535C39.0058 8.72202 38.8142 8.38035 38.4308 8.13035C38.0475 7.88035 37.6558 7.88869 37.2558 8.15535L22.0058 17.9054L6.80584 8.15535C6.40584 7.88869 6.00584 7.87202 5.60584 8.10535C5.20584 8.33869 5.00584 8.67202 5.00584 9.10535C5.00584 9.30535 5.05584 9.49702 5.15584 9.68035C5.25584 9.86369 5.37251 10.0054 5.50584 10.1054L21.2058 20.3554C21.3392 20.422 21.4642 20.4804 21.5808 20.5304C21.6975 20.5804 21.8392 20.6054 22.0058 20.6054Z" fill="#00c4d5" fill-rule="nonzero" opacity="1" stroke="none"/>
</g>
</svg>
