<?xml version="1.0" encoding="UTF-8" standalone="no"?>
<!DOCTYPE svg PUBLIC "-//W3C//DTD SVG 1.1//EN" "http://www.w3.org/Graphics/SVG/1.1/DTD/svg11.dtd">
<!-- Created with Vectornator (http://vectornator.io/) -->
<svg height="100%" stroke-miterlimit="10" style="fill-rule:nonzero;clip-rule:evenodd;stroke-linecap:round;stroke-linejoin:round;" version="1.1" viewBox="0 0 44 40" width="100%" xml:space="preserve" xmlns="http://www.w3.org/2000/svg" xmlns:vectornator="http://vectornator.io" xmlns:xlink="http://www.w3.org/1999/xlink">
<defs/>
<g id="Untitled" vectornator:layerName="Untitled">
<path d="M5.0097 36.0075C4.2097 36.0075 3.5097 35.7075 2.9097 35.1075C2.3097 34.5075 2.0097 33.8075 2.0097 33.0075L2.0097 7.00747C2.0097 6.20747 2.3097 5.50747 2.9097 4.90747C3.5097 4.30747 4.2097 4.00747 5.0097 4.00747L39.0097 4.00747C39.8097 4.00747 40.5097 4.30747 41.1097 4.90747C41.7097 5.50747 42.0097 6.20747 42.0097 7.00747L42.0097 33.0075C42.0097 33.8075 41.7097 34.5075 41.1097 35.1075C40.5097 35.7075 39.8097 36.0075 39.0097 36.0075L5.0097 36.0075ZM22.0097 20.6075C22.1764 20.6075 22.3181 20.5825 22.4347 20.5325C22.5514 20.4825 22.6764 20.4241 22.8097 20.3575L38.5097 10.1075C38.6764 10.0075 38.8014 9.87414 38.8847 9.70747C38.9681 9.54081 39.0097 9.35747 39.0097 9.15747C39.0097 8.72414 38.8181 8.38247 38.4347 8.13247C38.0514 7.88247 37.6597 7.89081 37.2597 8.15747L22.0097 17.9075L6.8097 8.15747C6.4097 7.89081 6.0097 7.87414 5.6097 8.10747C5.2097 8.34081 5.0097 8.67414 5.0097 9.10747C5.0097 9.30747 5.0597 9.49914 5.1597 9.68247C5.2597 9.86581 5.37637 10.0075 5.5097 10.1075L21.2097 20.3575C21.3431 20.4241 21.4681 20.4825 21.5847 20.5325C21.7014 20.5825 21.8431 20.6075 22.0097 20.6075Z" fill="#000000" fill-rule="nonzero" opacity="1" stroke="none"/>
</g>
</svg>
