<?xml version="1.0" encoding="UTF-8" standalone="no"?>
<!DOCTYPE svg PUBLIC "-//W3C//DTD SVG 1.1//EN" "http://www.w3.org/Graphics/SVG/1.1/DTD/svg11.dtd">
<!-- Created with Vectornator (http://vectornator.io/) -->
<svg height="100%" stroke-miterlimit="10" style="fill-rule:nonzero;clip-rule:evenodd;stroke-linecap:round;stroke-linejoin:round;" version="1.1" viewBox="0 0 40 42" width="100%" xml:space="preserve" xmlns="http://www.w3.org/2000/svg" xmlns:vectornator="http://vectornator.io" xmlns:xlink="http://www.w3.org/1999/xlink">
<defs/>
<g id="Untitled" vectornator:layerName="Untitled">
<path d="M7 38.625C6.16667 38.625 5.45833 38.3333 4.875 37.75C4.29167 37.1667 4 36.4583 4 35.625L4 16.125C4 15.6583 4.10833 15.2083 4.325 14.775C4.54167 14.3417 4.83333 13.9917 5.2 13.725L18.2 3.975C18.4667 3.775 18.75 3.625 19.05 3.525C19.35 3.425 19.6667 3.375 20 3.375C20.3333 3.375 20.65 3.425 20.95 3.525C21.25 3.625 21.5333 3.775 21.8 3.975L34.8 13.725C35.1667 13.9917 35.4583 14.3417 35.675 14.775C35.8917 15.2083 36 15.6583 36 16.125L36 35.625C36 36.4583 35.7083 37.1667 35.125 37.75C34.5417 38.3333 33.8333 38.625 33 38.625L24 38.625L24 24.625L16 24.625L16 38.625L7 38.625Z" fill="#000000" fill-rule="nonzero" opacity="1" stroke="none"/>
</g>
</svg>
