<?xml version="1.0" encoding="UTF-8" standalone="no"?>
<!DOCTYPE svg PUBLIC "-//W3C//DTD SVG 1.1//EN" "http://www.w3.org/Graphics/SVG/1.1/DTD/svg11.dtd">
<!-- Created with Vectornator (http://vectornator.io/) -->
<svg height="100%" stroke-miterlimit="10" style="fill-rule:nonzero;clip-rule:evenodd;stroke-linecap:round;stroke-linejoin:round;" version="1.1" viewBox="0 0 40 42" width="100%" xml:space="preserve" xmlns="http://www.w3.org/2000/svg" xmlns:vectornator="http://vectornator.io" xmlns:xlink="http://www.w3.org/1999/xlink">
<defs/>
<g id="Untitled" vectornator:layerName="Untitled">
<path d="M7 38.6221C6.16666 38.6221 5.45833 38.3305 4.875 37.7471C4.29166 37.1638 4 36.4555 4 35.6221L4 16.1221C4 15.6555 4.10833 15.2055 4.325 14.7721C4.54166 14.3388 4.83333 13.9888 5.2 13.7221L18.2 3.97213C18.4667 3.77213 18.75 3.62213 19.05 3.52213C19.35 3.42213 19.6667 3.37213 20 3.37213C20.3333 3.37213 20.65 3.42213 20.95 3.52213C21.25 3.62213 21.5333 3.77213 21.8 3.97213L34.8 13.7221C35.1667 13.9888 35.4583 14.3388 35.675 14.7721C35.8917 15.2055 36 15.6555 36 16.1221L36 35.6221C36 36.4555 35.7083 37.1638 35.125 37.7471C34.5417 38.3305 33.8333 38.6221 33 38.6221L24 38.6221L24 24.6221L16 24.6221L16 38.6221L7 38.6221Z" fill="#00c4d5" fill-rule="nonzero" opacity="1" stroke="none"/>
</g>
</svg>
