<?xml version="1.0" encoding="UTF-8" standalone="no"?>
<!DOCTYPE svg PUBLIC "-//W3C//DTD SVG 1.1//EN" "http://www.w3.org/Graphics/SVG/1.1/DTD/svg11.dtd">
<!-- Created with Vectornator (http://vectornator.io/) -->
<svg height="100%" stroke-miterlimit="10" style="fill-rule:nonzero;clip-rule:evenodd;stroke-linecap:round;stroke-linejoin:round;" version="1.1" viewBox="0 0 44 41.9058" width="100%" xml:space="preserve" xmlns="http://www.w3.org/2000/svg" xmlns:vectornator="http://vectornator.io" xmlns:xlink="http://www.w3.org/1999/xlink">
<defs/>
<g id="Untitled" vectornator:layerName="Untitled">
<path d="M11.9 25.5L32.9 25.5C33.3333 25.5 33.6917 25.3583 33.975 25.075C34.2583 24.7917 34.4 24.4333 34.4 24C34.4 23.5667 34.2583 23.2083 33.975 22.925C33.6917 22.6417 33.3333 22.5 32.9 22.5L11.9 22.5C11.4667 22.5 11.1083 22.6417 10.825 22.925C10.5417 23.2083 10.4 23.5667 10.4 24C10.4 24.4333 10.5417 24.7917 10.825 25.075C11.1083 25.3583 11.4667 25.5 11.9 25.5ZM11.9 19L32.9 19C33.3333 19 33.6917 18.8583 33.975 18.575C34.2583 18.2917 34.4 17.9333 34.4 17.5C34.4 17.0667 34.2583 16.7083 33.975 16.425C33.6917 16.1417 33.3333 16 32.9 16L11.9 16C11.4667 16 11.1083 16.1417 10.825 16.425C10.5417 16.7083 10.4 17.0667 10.4 17.5C10.4 17.9333 10.5417 18.2917 10.825 18.575C11.1083 18.8583 11.4667 19 11.9 19ZM11.9 12.5L32.9 12.5C33.3333 12.5 33.6917 12.3583 33.975 12.075C34.2583 11.7917 34.4 11.4333 34.4 11C34.4 10.5667 34.2583 10.2083 33.975 9.925C33.6917 9.64167 33.3333 9.5 32.9 9.5L11.9 9.5C11.4667 9.5 11.1083 9.64167 10.825 9.925C10.5417 10.2083 10.4 10.5667 10.4 11C10.4 11.4333 10.5417 11.7917 10.825 12.075C11.1083 12.3583 11.4667 12.5 11.9 12.5ZM39.45 39.45L34 34L5 34C4.23333 34 3.54167 33.6917 2.925 33.075C2.30833 32.4583 2 31.7667 2 31L2 5C2 4.23333 2.30833 3.54167 2.925 2.925C3.54167 2.30833 4.23333 2 5 2L39 2C39.8 2 40.5 2.30833 41.1 2.925C41.7 3.54167 42 4.23333 42 5L42 38.4C42 39.0667 41.6917 39.525 41.075 39.775C40.4583 40.025 39.9167 39.9167 39.45 39.45Z" fill="#000000" fill-rule="nonzero" opacity="1" stroke="none"/>
</g>
</svg>
