<?xml version="1.0" encoding="UTF-8" standalone="no"?>
<!DOCTYPE svg PUBLIC "-//W3C//DTD SVG 1.1//EN" "http://www.w3.org/Graphics/SVG/1.1/DTD/svg11.dtd">
<!-- Created with Vectornator (http://vectornator.io/) -->
<svg height="100%" stroke-miterlimit="10" style="fill-rule:nonzero;clip-rule:evenodd;stroke-linecap:round;stroke-linejoin:round;" version="1.1" viewBox="0 0 40 40" width="100%" xml:space="preserve" xmlns="http://www.w3.org/2000/svg" xmlns:vectornator="http://vectornator.io" xmlns:xlink="http://www.w3.org/1999/xlink">
<defs/>
<g id="Untitled" vectornator:layerName="Untitled">
<path d="M17.1 26.3L11.8 21C11.6333 20.8 11.45 20.7 11.25 20.7C11.05 20.7 10.8667 20.8 10.7 21C10.5333 21.1667 10.45 21.3417 10.45 21.525C10.45 21.7083 10.5333 21.9 10.7 22.1L16.15 27.6C16.4167 27.8667 16.7333 28 17.1 28C17.4667 28 17.8 27.8667 18.1 27.6L29.2 16.4C29.3667 16.2333 29.45 16.05 29.45 15.85C29.45 15.65 29.3667 15.4667 29.2 15.3C29.0333 15.1333 28.85 15.05 28.65 15.05C28.45 15.05 28.2667 15.1333 28.1 15.3L17.1 26.3ZM6.75 38C6.01667 38 5.375 37.725 4.825 37.175C4.275 36.625 4 35.9833 4 35.25L4 8.75C4 8.01667 4.275 7.375 4.825 6.825C5.375 6.275 6.01667 6 6.75 6L17 6C16.7333 5 16.9083 4.08333 17.525 3.25C18.1417 2.41667 18.9667 2 20 2C21.0667 2 21.9083 2.41667 22.525 3.25C23.1417 4.08333 23.3 5 23 6L33.25 6C33.9833 6 34.625 6.275 35.175 6.825C35.725 7.375 36 8.01667 36 8.75L36 35.25C36 35.9833 35.725 36.625 35.175 37.175C34.625 37.725 33.9833 38 33.25 38L6.75 38ZM20 6.75C20.4333 6.75 20.8167 6.59167 21.15 6.275C21.4833 5.95833 21.65 5.56667 21.65 5.1C21.65 4.66667 21.4833 4.29167 21.15 3.975C20.8167 3.65833 20.4333 3.5 20 3.5C19.5667 3.5 19.1917 3.65833 18.875 3.975C18.5583 4.29167 18.4 4.66667 18.4 5.1C18.4 5.56667 18.5583 5.95833 18.875 6.275C19.1917 6.59167 19.5667 6.75 20 6.75Z" fill="#00c4d5" fill-rule="nonzero" opacity="1" stroke="none"/>
</g>
</svg>
