<?xml version="1.0" encoding="UTF-8" standalone="no"?>
<!DOCTYPE svg PUBLIC "-//W3C//DTD SVG 1.1//EN" "http://www.w3.org/Graphics/SVG/1.1/DTD/svg11.dtd">
<!-- Created with Vectornator (http://vectornator.io/) -->
<svg height="100%" stroke-miterlimit="10" style="fill-rule:nonzero;clip-rule:evenodd;stroke-linecap:round;stroke-linejoin:round;" version="1.1" viewBox="0 0 1024 1024" width="100%" xml:space="preserve" xmlns="http://www.w3.org/2000/svg" xmlns:vectornator="http://vectornator.io" xmlns:xlink="http://www.w3.org/1999/xlink">
<defs/>
<g id="Layer-1" vectornator:layerName="Layer 1">
<g opacity="1">
<path d="M185.23 865.262C158.66 865.262 137.136 846.862 137.136 824.168L216.838 451.355C216.838 428.661 238.362 410.262 264.932 410.262L759.011 410.262C785.581 410.262 807.136 428.661 807.136 451.355L887.136 824.168C887.136 846.862 865.581 865.262 839.011 865.262L185.23 865.262Z" fill="#e2ff00" fill-rule="nonzero" opacity="1" stroke="none"/>
<g opacity="1">
<path d="M666.443 589.112C665.709 589.313 665.068 589.773 664.662 590.487C647.663 618.387 627.485 644.118 602.974 665.826C580.2 685.997 553.877 702.292 525.505 713.324C501.372 722.71 475.893 728.371 450.099 730.449C443.768 730.958 437.412 731.121 431.068 731.386C425.676 731.611 420.311 731.841 414.912 731.667C409.445 731.491 403.988 730.923 398.537 730.511C385.105 729.496 371.694 727.986 358.412 725.731C348.128 723.984 337.906 721.825 327.818 719.168C324.498 718.294 321.192 717.372 317.912 716.356C316.881 716.036 315.842 715.697 314.818 715.356C314.483 715.244 314.152 715.128 313.818 715.012C313.713 714.975 313.64 714.955 313.537 714.918C313.531 714.916 313.361 714.85 313.381 714.856C304.645 711.86 295.126 716.526 292.131 725.262C289.135 733.997 293.77 743.484 302.505 746.48C309.656 748.88 317.113 750.577 324.474 752.166C337.684 755.018 351.086 757.027 364.537 758.322C375.568 759.385 386.67 759.957 397.755 759.76C404.046 759.648 410.323 759.172 416.599 758.791C423.615 758.366 430.651 757.974 437.631 757.135C448.7 755.805 459.671 753.64 470.537 751.166C508.973 742.416 545.848 726.354 577.724 703.075C602.444 685.023 624.054 662.894 642.099 638.204C652.475 624.006 661.582 608.981 669.818 593.456C670.631 592.027 670.153 590.206 668.724 589.393C668.01 588.986 667.177 588.91 666.443 589.112Z" fill="#11353e" fill-rule="nonzero" opacity="1" stroke="none"/>
<path d="M692.881 515.615C684.51 515.347 675.954 516.711 668.068 518.646C659.157 520.832 650.527 523.913 642.037 527.365C631.8 531.526 621.873 536.478 612.162 541.739C592.221 552.541 572.893 564.709 554.599 578.112C553.291 578.983 552.946 580.741 553.818 582.049C554.69 583.357 556.448 583.702 557.755 582.83C575.666 572.415 594.273 563.116 613.318 554.957C629.839 547.879 646.933 541.551 664.568 537.895C674.147 535.909 684.367 534.52 694.099 536.114C699.248 536.957 704.415 538.759 708.224 542.458C709.869 544.054 711.199 545.942 712.381 547.895C717.579 556.486 718.25 567.156 717.881 576.956C717.79 579.362 717.633 581.776 717.412 584.174C716.122 598.17 712.973 611.909 709.193 625.422C703.835 644.578 696.966 663.268 689.599 681.733C700.179 662.179 710.193 642.227 718.474 621.578C724.242 607.197 729.375 592.348 732.037 577.049C734.888 560.663 735.537 540.745 723.193 527.833C721.203 525.751 718.958 523.924 716.537 522.365C709.405 517.772 701.251 515.882 692.881 515.615Z" fill="#11353e" fill-rule="nonzero" opacity="1" stroke="none"/>
</g>
<path d="M511.179 156.241C506.439 156.429 501.703 156.827 497.035 157.492C468.34 161.574 441.316 173.37 417.069 189.002C379.5 213.222 348.014 246.603 321.366 282.251C311.079 296.012 301.459 310.267 292.484 324.92C286.481 334.723 280.706 344.71 275.498 354.961C273.327 358.957 274.817 363.947 278.809 366.121C282.799 368.295 287.784 366.804 289.955 362.808C299.276 347.826 309.458 333.426 320.305 319.513C328.023 309.612 336.066 299.948 344.473 290.628C365.799 266.985 389.456 245.049 416.101 227.514C434.951 215.109 455.38 204.858 477.238 199.005C487.076 196.371 497.139 194.682 507.276 193.753C513.33 193.199 519.345 193.14 525.417 193.191C530.245 193.23 535.066 193.45 539.874 193.909C553.026 195.167 565.924 198.475 578.218 203.287C605.438 213.944 629.548 231.732 650.689 251.678C684.266 283.356 711.556 321.164 735.806 360.276C737.834 363.792 742.317 364.994 745.829 362.964C749.341 360.934 750.542 356.446 748.514 352.929C740.987 338.856 733.141 324.963 724.753 311.385C717.991 300.44 710.903 289.679 703.458 279.187C698.028 271.535 692.392 264.041 686.534 256.711C654.191 216.241 613.703 179.888 563.543 163.869C555.809 161.399 547.882 159.402 539.874 158.054C535.094 157.25 530.229 156.591 525.386 156.335C520.679 156.086 515.919 156.053 511.179 156.241Z" fill="#11353e" fill-rule="nonzero" opacity="1" stroke="none"/>
</g>
</g>
</svg>
