<?xml version="1.0" encoding="UTF-8" standalone="no"?>
<!DOCTYPE svg PUBLIC "-//W3C//DTD SVG 1.1//EN" "http://www.w3.org/Graphics/SVG/1.1/DTD/svg11.dtd">
<!-- Created with Vectornator (http://vectornator.io/) -->
<svg height="100%" stroke-miterlimit="10" style="fill-rule:nonzero;clip-rule:evenodd;stroke-linecap:round;stroke-linejoin:round;" version="1.1" viewBox="0 0 41.719 42" width="100%" xml:space="preserve" xmlns="http://www.w3.org/2000/svg" xmlns:vectornator="http://vectornator.io" xmlns:xlink="http://www.w3.org/1999/xlink">
<defs/>
<g id="Untitled" vectornator:layerName="Untitled">
<path d="M9.40593 39.0018C8.6726 39.0018 8.03093 38.7685 7.48093 38.3018C6.93093 37.8351 6.58926 37.2351 6.45593 36.5018L3.15593 16.7518C3.08926 16.2851 3.1976 15.8768 3.48093 15.5268C3.76426 15.1768 4.13926 15.0018 4.60593 15.0018L37.1059 15.0018C37.5726 15.0018 37.9476 15.1768 38.2309 15.5268C38.5143 15.8768 38.6226 16.2851 38.5559 16.7518L35.2559 36.5018C35.1226 37.2351 34.7809 37.8351 34.2309 38.3018C33.6809 38.7685 33.0393 39.0018 32.3059 39.0018L9.40593 39.0018ZM16.8559 26.0018L24.8559 26.0018C25.2893 26.0018 25.6476 25.8518 25.9309 25.5518C26.2143 25.2518 26.3559 24.9018 26.3559 24.5018C26.3559 24.0685 26.2143 23.7101 25.9309 23.4268C25.6476 23.1435 25.2893 23.0018 24.8559 23.0018L16.8559 23.0018C16.4559 23.0018 16.1059 23.1435 15.8059 23.4268C15.5059 23.7101 15.3559 24.0685 15.3559 24.5018C15.3559 24.9018 15.5059 25.2518 15.8059 25.5518C16.1059 25.8518 16.4559 26.0018 16.8559 26.0018ZM8.85593 12.0018C8.45593 12.0018 8.10593 11.8518 7.80593 11.5518C7.50593 11.2518 7.35593 10.9018 7.35593 10.5018C7.35593 10.0685 7.50593 9.71012 7.80593 9.42679C8.10593 9.14345 8.45593 9.00179 8.85593 9.00179L32.8559 9.00179C33.2893 9.00179 33.6476 9.14345 33.9309 9.42679C34.2143 9.71012 34.3559 10.0685 34.3559 10.5018C34.3559 10.9018 34.2143 11.2518 33.9309 11.5518C33.6476 11.8518 33.2893 12.0018 32.8559 12.0018L8.85593 12.0018ZM12.8559 6.00179C12.4559 6.00179 12.1059 5.85179 11.8059 5.55179C11.5059 5.25179 11.3559 4.90179 11.3559 4.50179C11.3559 4.06845 11.5059 3.71012 11.8059 3.42679C12.1059 3.14345 12.4559 3.00179 12.8559 3.00179L28.8559 3.00179C29.2893 3.00179 29.6476 3.14345 29.9309 3.42679C30.2143 3.71012 30.3559 4.06845 30.3559 4.50179C30.3559 4.90179 30.2143 5.25179 29.9309 5.55179C29.6476 5.85179 29.2893 6.00179 28.8559 6.00179L12.8559 6.00179Z" fill="#000000" fill-rule="nonzero" opacity="1" stroke="none"/>
</g>
</svg>
