<?xml version="1.0" encoding="UTF-8" standalone="no"?>
<!DOCTYPE svg PUBLIC "-//W3C//DTD SVG 1.1//EN" "http://www.w3.org/Graphics/SVG/1.1/DTD/svg11.dtd">
<!-- Created with Vectornator (http://vectornator.io/) -->
<svg height="100%" stroke-miterlimit="10" style="fill-rule:nonzero;clip-rule:evenodd;stroke-linecap:round;stroke-linejoin:round;" version="1.1" viewBox="0 0 41.719 42" width="100%" xml:space="preserve" xmlns="http://www.w3.org/2000/svg" xmlns:vectornator="http://vectornator.io" xmlns:xlink="http://www.w3.org/1999/xlink">
<defs/>
<g id="Untitled" vectornator:layerName="Untitled">
<path d="M9.40787 39.0051C8.67454 39.0051 8.03287 38.7718 7.48287 38.3051C6.93287 37.8384 6.59121 37.2384 6.45787 36.5051L3.15787 16.7551C3.09121 16.2884 3.19954 15.8801 3.48287 15.5301C3.76621 15.1801 4.14121 15.0051 4.60787 15.0051L37.1079 15.0051C37.5745 15.0051 37.9495 15.1801 38.2329 15.5301C38.5162 15.8801 38.6245 16.2884 38.5579 16.7551L35.2579 36.5051C35.1245 37.2384 34.7829 37.8384 34.2329 38.3051C33.6829 38.7718 33.0412 39.0051 32.3079 39.0051L9.40787 39.0051ZM16.8579 26.0051L24.8579 26.0051C25.2912 26.0051 25.6495 25.8551 25.9329 25.5551C26.2162 25.2551 26.3579 24.9051 26.3579 24.5051C26.3579 24.0718 26.2162 23.7134 25.9329 23.4301C25.6495 23.1468 25.2912 23.0051 24.8579 23.0051L16.8579 23.0051C16.4579 23.0051 16.1079 23.1468 15.8079 23.4301C15.5079 23.7134 15.3579 24.0718 15.3579 24.5051C15.3579 24.9051 15.5079 25.2551 15.8079 25.5551C16.1079 25.8551 16.4579 26.0051 16.8579 26.0051ZM8.85787 12.0051C8.45787 12.0051 8.10787 11.8551 7.80787 11.5551C7.50787 11.2551 7.35787 10.9051 7.35787 10.5051C7.35787 10.0718 7.50787 9.71342 7.80787 9.43009C8.10787 9.14676 8.45787 9.00509 8.85787 9.00509L32.8579 9.00509C33.2912 9.00509 33.6495 9.14676 33.9329 9.43009C34.2162 9.71342 34.3579 10.0718 34.3579 10.5051C34.3579 10.9051 34.2162 11.2551 33.9329 11.5551C33.6495 11.8551 33.2912 12.0051 32.8579 12.0051L8.85787 12.0051ZM12.8579 6.00509C12.4579 6.00509 12.1079 5.85509 11.8079 5.55509C11.5079 5.25509 11.3579 4.90509 11.3579 4.50509C11.3579 4.07176 11.5079 3.71342 11.8079 3.43009C12.1079 3.14676 12.4579 3.00509 12.8579 3.00509L28.8579 3.00509C29.2912 3.00509 29.6495 3.14676 29.9329 3.43009C30.2162 3.71342 30.3579 4.07176 30.3579 4.50509C30.3579 4.90509 30.2162 5.25509 29.9329 5.55509C29.6495 5.85509 29.2912 6.00509 28.8579 6.00509L12.8579 6.00509Z" fill="#00c4d5" fill-rule="nonzero" opacity="1" stroke="none"/>
</g>
</svg>
