<?xml version="1.0" encoding="UTF-8" standalone="no"?>
<!DOCTYPE svg PUBLIC "-//W3C//DTD SVG 1.1//EN" "http://www.w3.org/Graphics/SVG/1.1/DTD/svg11.dtd">
<!-- Created with Vectornator (http://vectornator.io/) -->
<svg height="100%" stroke-miterlimit="10" style="fill-rule:nonzero;clip-rule:evenodd;stroke-linecap:round;stroke-linejoin:round;" version="1.1" viewBox="0 0 40 42" width="100%" xml:space="preserve" xmlns="http://www.w3.org/2000/svg" xmlns:vectornator="http://vectornator.io" xmlns:xlink="http://www.w3.org/1999/xlink">
<defs/>
<g id="Untitled" vectornator:layerName="Untitled">
<path d="M6.49108 37.9945C6.05775 37.9945 5.69941 37.8529 5.41608 37.5695C5.13275 37.2862 4.99108 36.9279 4.99108 36.4945L4.99108 5.49454C4.99108 5.0612 5.13275 4.70287 5.41608 4.41954C5.69941 4.1362 6.05775 3.99454 6.49108 3.99454L20.9411 3.99454C21.3077 3.99454 21.6244 4.10287 21.8911 4.31954C22.1577 4.5362 22.3244 4.82787 22.3911 5.19454L23.0911 8.29454L33.4911 8.29454C33.9244 8.29454 34.2827 8.4362 34.5661 8.71954C34.8494 9.00287 34.9911 9.3612 34.9911 9.79454L34.9911 25.2945C34.9911 25.7279 34.8494 26.0862 34.5661 26.3695C34.2827 26.6529 33.9244 26.7945 33.4911 26.7945L23.3911 26.7945C23.0577 26.7945 22.7494 26.6862 22.4661 26.4695C22.1827 26.2529 22.0077 25.9779 21.9411 25.6445L21.2411 22.5445L7.99108 22.5445L7.99108 36.4945C7.99108 36.9279 7.84941 37.2862 7.56608 37.5695C7.28275 37.8529 6.92441 37.9945 6.49108 37.9945Z" fill="#000000" fill-rule="nonzero" opacity="1" stroke="none"/>
</g>
</svg>
