<?xml version="1.0" encoding="UTF-8" standalone="no"?>
<!DOCTYPE svg PUBLIC "-//W3C//DTD SVG 1.1//EN" "http://www.w3.org/Graphics/SVG/1.1/DTD/svg11.dtd">
<!-- Created with Vectornator (http://vectornator.io/) -->
<svg height="100%" stroke-miterlimit="10" style="fill-rule:nonzero;clip-rule:evenodd;stroke-linecap:round;stroke-linejoin:round;" version="1.1" viewBox="0 0 44.0951 42" width="100%" xml:space="preserve" xmlns="http://www.w3.org/2000/svg" xmlns:vectornator="http://vectornator.io" xmlns:xlink="http://www.w3.org/1999/xlink">
<defs/>
<g id="Untitled" vectornator:layerName="Untitled">
<path d="M40.0513 19.05L40.0513 36C40.0513 36.8 39.7513 37.5 39.1513 38.1C38.5513 38.7 37.8513 39 37.0513 39L7.00125 39C6.20125 39 5.50125 38.7 4.90125 38.1C4.30125 37.5 4.00125 36.8 4.00125 36L4.00125 19.05C3.06792 18.25 2.45125 17.2667 2.15125 16.1C1.85125 14.9333 1.88458 13.7667 2.25125 12.6L4.40125 5.85C4.66792 4.95 5.13458 4.25 5.80125 3.75C6.46792 3.25 7.23458 3 8.10125 3L35.7513 3C36.6846 3 37.5013 3.25833 38.2013 3.775C38.9013 4.29167 39.3846 4.98333 39.6513 5.85L41.8513 12.6C42.2179 13.7667 42.2429 14.9333 41.9263 16.1C41.6096 17.2667 40.9846 18.25 40.0513 19.05ZM26.5408 17.4908C27.5074 17.4908 28.3241 17.1742 28.9908 16.5408C29.6574 15.9075 29.9241 15.1408 29.7908 14.2408L28.5408 5.99085L23.5408 5.99085L23.5408 14.2408C23.5408 15.1075 23.8241 15.8658 24.3908 16.5158C24.9574 17.1658 25.6741 17.4908 26.5408 17.4908ZM17.2012 17.5C18.1346 17.5 18.9262 17.1833 19.5762 16.55C20.2262 15.9167 20.5512 15.15 20.5512 14.25L20.5512 6L15.5512 6L14.3012 14.25C14.1679 15.1167 14.4012 15.875 15.0012 16.525C15.6012 17.175 16.3346 17.5 17.2012 17.5ZM8.10125 17.5C8.90125 17.5 9.59292 17.225 10.1762 16.675C10.7596 16.125 11.1012 15.45 11.2012 14.65L12.5012 6L7.50125 6L5.20125 13.3C4.86792 14.3333 5.00125 15.2917 5.60125 16.175C6.20125 17.0583 7.03458 17.5 8.10125 17.5ZM35.9512 17.5C37.0179 17.5 37.8596 17.0667 38.4762 16.2C39.0929 15.3333 39.2346 14.3667 38.9012 13.3L36.6012 6L31.6012 6L32.9012 14.65C33.0012 15.45 33.3429 16.125 33.9262 16.675C34.5096 17.225 35.1846 17.5 35.9512 17.5Z" fill="#005c8d" fill-rule="nonzero" opacity="1" stroke="none"/>
</g>
</svg>
