<?xml version="1.0" encoding="UTF-8" standalone="no"?>
<!DOCTYPE svg PUBLIC "-//W3C//DTD SVG 1.1//EN" "http://www.w3.org/Graphics/SVG/1.1/DTD/svg11.dtd">
<!-- Created with Vectornator (http://vectornator.io/) -->
<svg height="100%" stroke-miterlimit="10" style="fill-rule:nonzero;clip-rule:evenodd;stroke-linecap:round;stroke-linejoin:round;" version="1.1" viewBox="0 0 40 42" width="100%" xml:space="preserve" xmlns="http://www.w3.org/2000/svg" xmlns:vectornator="http://vectornator.io" xmlns:xlink="http://www.w3.org/1999/xlink">
<defs/>
<g id="Untitled" vectornator:layerName="Untitled">
<path d="M6.49108 38.004C6.05775 38.004 5.69941 37.8624 5.41608 37.579C5.13275 37.2957 4.99108 36.9374 4.99108 36.504L4.99108 5.50404C4.99108 5.07071 5.13275 4.71237 5.41608 4.42904C5.69941 4.14571 6.05775 4.00404 6.49108 4.00404L20.9411 4.00404C21.3077 4.00404 21.6244 4.11237 21.8911 4.32904C22.1577 4.54571 22.3244 4.83737 22.3911 5.20404L23.0911 8.30404L33.4911 8.30404C33.9244 8.30404 34.2827 8.44571 34.5661 8.72904C34.8494 9.01237 34.9911 9.37071 34.9911 9.80404L34.9911 25.304C34.9911 25.7374 34.8494 26.0957 34.5661 26.379C34.2827 26.6624 33.9244 26.804 33.4911 26.804L23.3911 26.804C23.0577 26.804 22.7494 26.6957 22.4661 26.479C22.1827 26.2624 22.0077 25.9874 21.9411 25.654L21.2411 22.554L7.99108 22.554L7.99108 36.504C7.99108 36.9374 7.84941 37.2957 7.56608 37.579C7.28275 37.8624 6.92441 38.004 6.49108 38.004Z" fill="#00c4d5" fill-rule="nonzero" opacity="1" stroke="none"/>
</g>
</svg>
