<?xml version="1.0" encoding="UTF-8" standalone="no"?>
<!DOCTYPE svg PUBLIC "-//W3C//DTD SVG 1.1//EN" "http://www.w3.org/Graphics/SVG/1.1/DTD/svg11.dtd">
<!-- Created with Vectornator (http://vectornator.io/) -->
<svg height="100%" stroke-miterlimit="10" style="fill-rule:nonzero;clip-rule:evenodd;stroke-linecap:round;stroke-linejoin:round;" version="1.1" viewBox="0 0 41.35 40" width="100%" xml:space="preserve" xmlns="http://www.w3.org/2000/svg" xmlns:vectornator="http://vectornator.io" xmlns:xlink="http://www.w3.org/1999/xlink">
<defs/>
<g id="Untitled" vectornator:layerName="Untitled">
<path d="M9.5 35C9.06667 35 8.70833 34.8583 8.425 34.575C8.14167 34.2917 8 33.9333 8 33.5L8 29L3.5 29C3.06667 29 2.70833 28.8583 2.425 28.575C2.14167 28.2917 2 27.9333 2 27.5C2 27.0667 2.14167 26.7083 2.425 26.425C2.70833 26.1417 3.06667 26 3.5 26L8 26L8 21.5C8 21.0667 8.14167 20.7083 8.425 20.425C8.70833 20.1417 9.06667 20 9.5 20C9.93333 20 10.2917 20.1417 10.575 20.425C10.8583 20.7083 11 21.0667 11 21.5L11 26L15.5 26C15.9333 26 16.2917 26.1417 16.575 26.425C16.8583 26.7083 17 27.0667 17 27.5C17 27.9333 16.8583 28.2917 16.575 28.575C16.2917 28.8583 15.9333 29 15.5 29L11 29L11 33.5C11 33.9333 10.8583 34.2917 10.575 34.575C10.2917 34.8583 9.93333 35 9.5 35ZM20 33L20 26C20 25.1667 19.7083 24.4583 19.125 23.875C18.5417 23.2917 17.8333 23 17 23L14 23L14 20C14 19.1667 13.7083 18.4583 13.125 17.875C12.5417 17.2917 11.8333 17 11 17L4 17L4 8C4 7.16667 4.29167 6.45833 4.875 5.875C5.45833 5.29167 6.16667 5 7 5L28 5C28.7333 5 29.4 5.19167 30 5.575C30.6 5.95833 31.1167 6.45 31.55 7.05L38.8 17.25C39.1667 17.7833 39.35 18.3667 39.35 19C39.35 19.6333 39.1667 20.2167 38.8 20.75L31.55 30.95C31.1167 31.55 30.6 32.0417 30 32.425C29.4 32.8083 28.7333 33 28 33L20 33Z" fill="#0f6a76" fill-rule="nonzero" opacity="1" stroke="none"/>
</g>
</svg>
