<?xml version="1.0" encoding="UTF-8" standalone="no"?>
<!DOCTYPE svg PUBLIC "-//W3C//DTD SVG 1.1//EN" "http://www.w3.org/Graphics/SVG/1.1/DTD/svg11.dtd">
<!-- Created with Vectornator (http://vectornator.io/) -->
<svg height="100%" stroke-miterlimit="10" style="fill-rule:nonzero;clip-rule:evenodd;stroke-linecap:round;stroke-linejoin:round;" version="1.1" viewBox="0 0 2670.7 1024" width="100%" xml:space="preserve" xmlns="http://www.w3.org/2000/svg" xmlns:vectornator="http://vectornator.io" xmlns:xlink="http://www.w3.org/1999/xlink">
<defs>
<clipPath id="TextBounds">
<rect height="920.4" width="1664.6" x="896.782" y="70.8516"/>
</clipPath>
<clipPath id="TextBounds_2">
<rect height="1" width="0" x="528.138" y="389.923"/>
</clipPath>
</defs>
<g id="Layer-1" vectornator:layerName="Layer 1">
<g fill="#000000" opacity="1" stroke="none">
<path clip-path="url(#TextBounds)" d="M1215.08 828.052C1124.95 828.052 1056.28 802.985 1009.08 752.852C961.882 702.718 938.282 631.518 938.282 539.252C938.282 493.385 945.482 452.452 959.882 416.452C974.282 380.452 994.015 350.052 1019.08 325.252C1044.15 300.452 1074.02 281.652 1108.68 268.852C1143.35 256.052 1180.95 249.652 1221.48 249.652C1244.95 249.652 1266.28 251.385 1285.48 254.852C1304.68 258.318 1321.48 262.318 1335.88 266.852C1350.28 271.385 1362.28 276.052 1371.88 280.852C1381.48 285.652 1388.42 289.385 1392.68 292.052L1356.68 392.852C1339.62 383.785 1319.75 376.052 1297.08 369.652C1274.42 363.252 1248.68 360.052 1219.88 360.052C1200.68 360.052 1181.88 363.252 1163.48 369.652C1145.08 376.052 1128.82 386.318 1114.68 400.452C1100.55 414.585 1089.22 432.852 1080.68 455.252C1072.15 477.652 1067.88 504.852 1067.88 536.852C1067.88 562.452 1070.68 586.318 1076.28 608.452C1081.88 630.585 1090.95 649.652 1103.48 665.652C1116.02 681.652 1132.42 694.318 1152.68 703.652C1172.95 712.985 1197.48 717.652 1226.28 717.652C1244.42 717.652 1260.68 716.585 1275.08 714.452C1289.48 712.318 1302.28 709.785 1313.48 706.852C1324.68 703.918 1334.55 700.585 1343.08 696.852C1351.62 693.118 1359.35 689.652 1366.28 686.452L1400.68 786.452C1383.08 797.118 1358.28 806.718 1326.28 815.252C1294.28 823.785 1257.22 828.052 1215.08 828.052Z"/>
<path clip-path="url(#TextBounds)" d="M1641.48 733.652C1653.22 733.652 1664.42 733.385 1675.08 732.852C1685.75 732.318 1694.28 731.518 1700.68 730.452L1700.68 640.052C1695.88 638.985 1688.68 637.918 1679.08 636.852C1669.48 635.785 1660.68 635.252 1652.68 635.252C1641.48 635.252 1630.95 635.918 1621.08 637.252C1611.22 638.585 1602.55 641.118 1595.08 644.852C1587.62 648.585 1581.75 653.652 1577.48 660.052C1573.22 666.452 1571.08 674.452 1571.08 684.052C1571.08 702.718 1577.35 715.652 1589.88 722.852C1602.42 730.052 1619.62 733.652 1641.48 733.652ZM1631.88 384.852C1667.08 384.852 1696.42 388.852 1719.88 396.852C1743.35 404.852 1762.15 416.318 1776.28 431.252C1790.42 446.185 1800.42 464.318 1806.28 485.652C1812.15 506.985 1815.08 530.718 1815.08 556.852L1815.08 804.852C1798.02 808.585 1774.28 812.985 1743.88 818.052C1713.48 823.118 1676.68 825.652 1633.48 825.652C1606.28 825.652 1581.62 823.252 1559.48 818.452C1537.35 813.652 1518.28 805.785 1502.28 794.852C1486.28 783.918 1474.02 769.652 1465.48 752.052C1456.95 734.452 1452.68 712.852 1452.68 687.252C1452.68 662.718 1457.62 641.918 1467.48 624.852C1477.35 607.785 1490.55 594.185 1507.08 584.052C1523.62 573.918 1542.55 566.585 1563.88 562.052C1585.22 557.518 1607.35 555.252 1630.28 555.252C1645.75 555.252 1659.48 555.918 1671.48 557.252C1683.48 558.585 1693.22 560.318 1700.68 562.452L1700.68 551.252C1700.68 530.985 1694.55 514.718 1682.28 502.452C1670.02 490.185 1648.68 484.052 1618.28 484.052C1598.02 484.052 1578.02 485.518 1558.28 488.452C1538.55 491.385 1521.48 495.518 1507.08 500.852L1491.88 404.852C1498.82 402.718 1507.48 400.452 1517.88 398.052C1528.28 395.652 1539.62 393.518 1551.88 391.652C1564.15 389.785 1577.08 388.185 1590.68 386.852C1604.28 385.518 1618.02 384.852 1631.88 384.852Z"/>
<path clip-path="url(#TextBounds)" d="M2176.68 501.652C2166.02 498.985 2153.48 496.185 2139.08 493.252C2124.68 490.318 2109.22 488.852 2092.68 488.852C2085.22 488.852 2076.28 489.518 2065.88 490.852C2055.48 492.185 2047.62 493.652 2042.28 495.252L2042.28 816.852L1923.08 816.852L1923.08 418.452C1944.42 410.985 1969.62 403.918 1998.68 397.252C2027.75 390.585 2060.15 387.252 2095.88 387.252C2102.28 387.252 2110.02 387.652 2119.08 388.452C2128.15 389.252 2137.22 390.318 2146.28 391.652C2155.35 392.985 2164.42 394.585 2173.48 396.452C2182.55 398.318 2190.28 400.585 2196.68 403.252L2176.68 501.652Z"/>
<path clip-path="url(#TextBounds)" d="M2256.68 291.252L2375.88 272.052L2375.88 396.052L2519.08 396.052L2519.08 495.252L2375.88 495.252L2375.88 643.252C2375.88 668.318 2380.28 688.318 2389.08 703.252C2397.88 718.185 2415.62 725.652 2442.28 725.652C2455.08 725.652 2468.28 724.452 2481.88 722.052C2495.48 719.652 2507.88 716.318 2519.08 712.052L2535.88 804.852C2521.48 810.718 2505.48 815.785 2487.88 820.052C2470.28 824.318 2448.68 826.452 2423.08 826.452C2390.55 826.452 2363.62 822.052 2342.28 813.252C2320.95 804.452 2303.88 792.185 2291.08 776.452C2278.28 760.718 2269.35 741.652 2264.28 719.252C2259.22 696.852 2256.68 672.052 2256.68 644.852L2256.68 291.252Z"/>
</g>
<g fill="#000000" opacity="1" stroke="none"/>
<path d="M286.232 841.506C269.489 841.506 255.258 835.646 243.538 823.926C231.817 812.206 225.957 797.974 225.957 781.231C225.957 764.488 231.817 750.257 243.538 738.536C255.258 726.816 269.489 720.956 286.232 720.956C302.975 720.956 317.207 726.816 328.927 738.536C340.647 750.257 346.507 764.488 346.507 781.231C346.507 797.974 340.647 812.206 328.927 823.926C317.207 835.646 302.975 841.506 286.232 841.506ZM621.093 841.506C604.35 841.506 590.118 835.646 578.398 823.926C566.678 812.206 560.818 797.974 560.818 781.231C560.818 764.488 566.678 750.257 578.398 738.536C590.118 726.816 604.35 720.956 621.093 720.956C637.836 720.956 652.068 726.816 663.788 738.536C675.508 750.257 681.368 764.488 681.368 781.231C681.368 797.974 675.508 812.206 663.788 823.926C652.068 835.646 637.836 841.506 621.093 841.506ZM217.586 238.757L710.668 238.757C723.505 238.757 733.271 244.617 739.969 256.337C746.666 268.057 746.666 279.777 739.969 291.497L626.953 494.925C620.814 505.529 612.861 514.04 603.094 520.458C593.328 526.876 582.584 530.086 570.864 530.086L317.207 530.086L270.326 617.149L681.368 617.149L681.368 667.378L277.861 667.378C254.421 667.378 237.538 659.565 227.213 643.938C216.888 628.311 217.028 610.731 227.632 591.198L281.209 492.414L153.962 222.851L88.6644 222.851L88.6644 172.622L186.611 172.622L217.586 238.757Z" fill="#000000" fill-rule="nonzero" opacity="1" stroke="none"/>
</g>
</svg>
