<?xml version="1.0" encoding="UTF-8" standalone="no"?>
<!DOCTYPE svg PUBLIC "-//W3C//DTD SVG 1.1//EN" "http://www.w3.org/Graphics/SVG/1.1/DTD/svg11.dtd">
<!-- Created with Vectornator (http://vectornator.io/) -->
<svg height="100%" stroke-miterlimit="10" style="fill-rule:nonzero;clip-rule:evenodd;stroke-linecap:round;stroke-linejoin:round;" version="1.1" viewBox="0 0 5602.13 1024" width="100%" xml:space="preserve" xmlns="http://www.w3.org/2000/svg" xmlns:vectornator="http://vectornator.io" xmlns:xlink="http://www.w3.org/1999/xlink">
<defs>
<clipPath id="TextBounds">
<rect height="920.4" width="4598.65" x="951.06" y="50.6848"/>
</clipPath>
<clipPath id="TextBounds_2">
<rect height="1" width="0" x="528.138" y="389.923"/>
</clipPath>
<clipPath id="TextBounds_3">
<rect height="1" width="0" x="34.7315" y="-269.357"/>
</clipPath>
</defs>
<clipPath id="ArtboardFrame">
<rect height="1024" width="5602.13" x="0" y="0"/>
</clipPath>
<g clip-path="url(#ArtboardFrame)" id="Layer-1" vectornator:layerName="Layer 1">
<g fill="#000000" opacity="1" stroke="none">
<path clip-path="url(#TextBounds)" d="M1350.96 242.285L1475.76 242.285L1475.76 796.685L1350.96 796.685L1350.96 561.485L1141.36 561.485L1141.36 796.685L1016.56 796.685L1016.56 242.285L1141.36 242.285L1141.36 454.285L1350.96 454.285L1350.96 242.285Z"/>
<path clip-path="url(#TextBounds)" d="M1575.76 589.485C1575.76 552.151 1581.49 519.485 1592.96 491.485C1604.43 463.485 1619.49 440.151 1638.16 421.485C1656.83 402.818 1678.29 388.685 1702.56 379.085C1726.83 369.485 1751.76 364.685 1777.36 364.685C1837.09 364.685 1884.29 382.951 1918.96 419.485C1953.63 456.018 1970.96 509.751 1970.96 580.685C1970.96 587.618 1970.69 595.218 1970.16 603.485C1969.63 611.751 1969.09 619.085 1968.56 625.485L1698.16 625.485C1700.83 650.018 1712.29 669.485 1732.56 683.885C1752.83 698.285 1780.03 705.485 1814.16 705.485C1836.03 705.485 1857.49 703.485 1878.56 699.485C1899.63 695.485 1916.83 690.551 1930.16 684.685L1946.16 781.485C1939.76 784.685 1931.23 787.885 1920.56 791.085C1909.89 794.285 1898.03 797.085 1884.96 799.485C1871.89 801.885 1857.89 803.885 1842.96 805.485C1828.03 807.085 1813.09 807.885 1798.16 807.885C1760.29 807.885 1727.36 802.285 1699.36 791.085C1671.36 779.885 1648.16 764.551 1629.76 745.085C1611.36 725.618 1597.76 702.551 1588.96 675.885C1580.16 649.218 1575.76 620.418 1575.76 589.485ZM1855.76 543.885C1855.23 533.751 1853.49 523.885 1850.56 514.285C1847.63 504.685 1843.09 496.151 1836.96 488.685C1830.83 481.218 1823.09 475.085 1813.76 470.285C1804.43 465.485 1792.83 463.085 1778.96 463.085C1765.63 463.085 1754.16 465.351 1744.56 469.885C1734.96 474.418 1726.96 480.418 1720.56 487.885C1714.16 495.351 1709.23 504.018 1705.76 513.885C1702.29 523.751 1699.76 533.751 1698.16 543.885L1855.76 543.885Z"/>
<path clip-path="url(#TextBounds)" d="M2230.96 804.685C2196.29 804.151 2168.16 800.418 2146.56 793.485C2124.96 786.551 2107.89 776.818 2095.36 764.285C2082.83 751.751 2074.29 736.551 2069.76 718.685C2065.23 700.818 2062.96 680.685 2062.96 658.285L2062.96 195.085L2182.16 175.885L2182.16 634.285C2182.16 644.951 2182.96 654.551 2184.56 663.085C2186.16 671.618 2189.23 678.818 2193.76 684.685C2198.29 690.551 2204.83 695.351 2213.36 699.085C2221.89 702.818 2233.36 705.218 2247.76 706.285L2230.96 804.685Z"/>
<path clip-path="url(#TextBounds)" d="M2585.36 589.485C2585.36 552.685 2577.09 523.218 2560.56 501.085C2544.03 478.951 2519.49 467.885 2486.96 467.885C2476.29 467.885 2466.43 468.285 2457.36 469.085C2448.29 469.885 2440.83 470.818 2434.96 471.885L2434.96 687.085C2442.43 691.885 2452.16 695.885 2464.16 699.085C2476.16 702.285 2488.29 703.885 2500.56 703.885C2557.09 703.885 2585.36 665.751 2585.36 589.485ZM2706.96 586.285C2706.96 618.818 2702.96 648.418 2694.96 675.085C2686.96 701.751 2675.23 724.685 2659.76 743.885C2644.29 763.085 2625.09 778.018 2602.16 788.685C2579.23 799.351 2552.83 804.685 2522.96 804.685C2506.43 804.685 2490.96 803.085 2476.56 799.885C2462.16 796.685 2448.29 792.151 2434.96 786.285L2434.96 944.685L2315.76 944.685L2315.76 390.285C2326.43 387.085 2338.69 384.018 2352.56 381.085C2366.43 378.151 2380.96 375.618 2396.16 373.485C2411.36 371.351 2426.83 369.618 2442.56 368.285C2458.29 366.951 2473.36 366.285 2487.76 366.285C2522.43 366.285 2553.36 371.485 2580.56 381.885C2607.76 392.285 2630.69 406.951 2649.36 425.885C2668.03 444.818 2682.29 467.885 2692.16 495.085C2702.03 522.285 2706.96 552.685 2706.96 586.285Z"/>
<path clip-path="url(#TextBounds)" d="M3251.76 807.885C3161.63 807.885 3092.96 782.818 3045.76 732.685C2998.56 682.551 2974.96 611.351 2974.96 519.085C2974.96 473.218 2982.16 432.285 2996.56 396.285C3010.96 360.285 3030.69 329.885 3055.76 305.085C3080.83 280.285 3110.69 261.485 3145.36 248.685C3180.03 235.885 3217.63 229.485 3258.16 229.485C3281.63 229.485 3302.96 231.218 3322.16 234.685C3341.36 238.151 3358.16 242.151 3372.56 246.685C3386.96 251.218 3398.96 255.885 3408.56 260.685C3418.16 265.485 3425.09 269.218 3429.36 271.885L3393.36 372.685C3376.29 363.618 3356.43 355.885 3333.76 349.485C3311.09 343.085 3285.36 339.885 3256.56 339.885C3237.36 339.885 3218.56 343.085 3200.16 349.485C3181.76 355.885 3165.49 366.151 3151.36 380.285C3137.23 394.418 3125.89 412.685 3117.36 435.085C3108.83 457.485 3104.56 484.685 3104.56 516.685C3104.56 542.285 3107.36 566.151 3112.96 588.285C3118.56 610.418 3127.63 629.485 3140.16 645.485C3152.69 661.485 3169.09 674.151 3189.36 683.485C3209.63 692.818 3234.16 697.485 3262.96 697.485C3281.09 697.485 3297.36 696.418 3311.76 694.285C3326.16 692.151 3338.96 689.618 3350.16 686.685C3361.36 683.751 3371.23 680.418 3379.76 676.685C3388.29 672.951 3396.03 669.485 3402.96 666.285L3437.36 766.285C3419.76 776.951 3394.96 786.551 3362.96 795.085C3330.96 803.618 3293.89 807.885 3251.76 807.885Z"/>
<path clip-path="url(#TextBounds)" d="M3479.76 589.485C3479.76 552.151 3485.49 519.485 3496.96 491.485C3508.43 463.485 3523.49 440.151 3542.16 421.485C3560.83 402.818 3582.29 388.685 3606.56 379.085C3630.83 369.485 3655.76 364.685 3681.36 364.685C3741.09 364.685 3788.29 382.951 3822.96 419.485C3857.63 456.018 3874.96 509.751 3874.96 580.685C3874.96 587.618 3874.69 595.218 3874.16 603.485C3873.63 611.751 3873.09 619.085 3872.56 625.485L3602.16 625.485C3604.83 650.018 3616.29 669.485 3636.56 683.885C3656.83 698.285 3684.03 705.485 3718.16 705.485C3740.03 705.485 3761.49 703.485 3782.56 699.485C3803.63 695.485 3820.83 690.551 3834.16 684.685L3850.16 781.485C3843.76 784.685 3835.23 787.885 3824.56 791.085C3813.89 794.285 3802.03 797.085 3788.96 799.485C3775.89 801.885 3761.89 803.885 3746.96 805.485C3732.03 807.085 3717.09 807.885 3702.16 807.885C3664.29 807.885 3631.36 802.285 3603.36 791.085C3575.36 779.885 3552.16 764.551 3533.76 745.085C3515.36 725.618 3501.76 702.551 3492.96 675.885C3484.16 649.218 3479.76 620.418 3479.76 589.485ZM3759.76 543.885C3759.23 533.751 3757.49 523.885 3754.56 514.285C3751.63 504.685 3747.09 496.151 3740.96 488.685C3734.83 481.218 3727.09 475.085 3717.76 470.285C3708.43 465.485 3696.83 463.085 3682.96 463.085C3669.63 463.085 3658.16 465.351 3648.56 469.885C3638.96 474.418 3630.96 480.418 3624.56 487.885C3618.16 495.351 3613.23 504.018 3609.76 513.885C3606.29 523.751 3603.76 533.751 3602.16 543.885L3759.76 543.885Z"/>
<path clip-path="url(#TextBounds)" d="M3966.96 390.285C3987.23 384.418 4013.36 378.951 4045.36 373.885C4077.36 368.818 4110.96 366.285 4146.16 366.285C4181.89 366.285 4211.63 370.951 4235.36 380.285C4259.09 389.618 4277.89 402.818 4291.76 419.885C4305.63 436.951 4315.49 457.218 4321.36 480.685C4327.23 504.151 4330.16 530.285 4330.16 559.085L4330.16 796.685L4210.96 796.685L4210.96 573.485C4210.96 535.085 4205.89 507.885 4195.76 491.885C4185.63 475.885 4166.69 467.885 4138.96 467.885C4130.43 467.885 4121.36 468.285 4111.76 469.085C4102.16 469.885 4093.63 470.818 4086.16 471.885L4086.16 796.685L3966.96 796.685L3966.96 390.285Z"/>
<path clip-path="url(#TextBounds)" d="M4434.16 271.085L4553.36 251.885L4553.36 375.885L4696.56 375.885L4696.56 475.085L4553.36 475.085L4553.36 623.085C4553.36 648.151 4557.76 668.151 4566.56 683.085C4575.36 698.018 4593.09 705.485 4619.76 705.485C4632.56 705.485 4645.76 704.285 4659.36 701.885C4672.96 699.485 4685.36 696.151 4696.56 691.885L4713.36 784.685C4698.96 790.551 4682.96 795.618 4665.36 799.885C4647.76 804.151 4626.16 806.285 4600.56 806.285C4568.03 806.285 4541.09 801.885 4519.76 793.085C4498.43 784.285 4481.36 772.018 4468.56 756.285C4455.76 740.551 4446.83 721.485 4441.76 699.085C4436.69 676.685 4434.16 651.885 4434.16 624.685L4434.16 271.085Z"/>
<path clip-path="url(#TextBounds)" d="M4757.36 589.485C4757.36 552.151 4763.09 519.485 4774.56 491.485C4786.03 463.485 4801.09 440.151 4819.76 421.485C4838.43 402.818 4859.89 388.685 4884.16 379.085C4908.43 369.485 4933.36 364.685 4958.96 364.685C5018.69 364.685 5065.89 382.951 5100.56 419.485C5135.23 456.018 5152.56 509.751 5152.56 580.685C5152.56 587.618 5152.29 595.218 5151.76 603.485C5151.23 611.751 5150.69 619.085 5150.16 625.485L4879.76 625.485C4882.43 650.018 4893.89 669.485 4914.16 683.885C4934.43 698.285 4961.63 705.485 4995.76 705.485C5017.63 705.485 5039.09 703.485 5060.16 699.485C5081.23 695.485 5098.43 690.551 5111.76 684.685L5127.76 781.485C5121.36 784.685 5112.83 787.885 5102.16 791.085C5091.49 794.285 5079.63 797.085 5066.56 799.485C5053.49 801.885 5039.49 803.885 5024.56 805.485C5009.63 807.085 4994.69 807.885 4979.76 807.885C4941.89 807.885 4908.96 802.285 4880.96 791.085C4852.96 779.885 4829.76 764.551 4811.36 745.085C4792.96 725.618 4779.36 702.551 4770.56 675.885C4761.76 649.218 4757.36 620.418 4757.36 589.485ZM5037.36 543.885C5036.83 533.751 5035.09 523.885 5032.16 514.285C5029.23 504.685 5024.69 496.151 5018.56 488.685C5012.43 481.218 5004.69 475.085 4995.36 470.285C4986.03 465.485 4974.43 463.085 4960.56 463.085C4947.23 463.085 4935.76 465.351 4926.16 469.885C4916.56 474.418 4908.56 480.418 4902.16 487.885C4895.76 495.351 4890.83 504.018 4887.36 513.885C4883.89 523.751 4881.36 533.751 4879.76 543.885L5037.36 543.885Z"/>
<path clip-path="url(#TextBounds)" d="M5498.16 481.485C5487.49 478.818 5474.96 476.018 5460.56 473.085C5446.16 470.151 5430.69 468.685 5414.16 468.685C5406.69 468.685 5397.76 469.351 5387.36 470.685C5376.96 472.018 5369.09 473.485 5363.76 475.085L5363.76 796.685L5244.56 796.685L5244.56 398.285C5265.89 390.818 5291.09 383.751 5320.16 377.085C5349.23 370.418 5381.63 367.085 5417.36 367.085C5423.76 367.085 5431.49 367.485 5440.56 368.285C5449.63 369.085 5458.69 370.151 5467.76 371.485C5476.83 372.818 5485.89 374.418 5494.96 376.285C5504.03 378.151 5511.76 380.418 5518.16 383.085L5498.16 481.485Z"/>
</g>
<g fill="#000000" opacity="1" stroke="none"/>
<g fill="#000000" opacity="1" stroke="none"/>
<path d="M439.051 834.342C430.536 834.342 423.495 831.558 417.928 825.991C412.36 820.424 409.577 813.383 409.577 804.868C409.577 796.353 412.36 789.312 417.928 783.745C423.495 778.177 430.536 775.394 439.051 775.394L743.618 775.394L743.618 476.721C743.618 438.732 735.431 402.216 719.057 367.175C702.682 332.133 680.74 301.185 653.231 274.331C625.721 247.477 594.282 226.026 558.913 209.979C523.544 193.932 486.865 185.908 448.876 185.908C410.887 185.908 374.208 193.932 338.838 209.979C303.469 226.026 272.03 247.477 244.521 274.331C217.011 301.185 195.069 332.133 178.695 367.175C162.32 402.217 154.133 438.732 154.133 476.721L154.133 696.796C154.133 702.035 152.332 706.62 148.729 710.55C145.127 714.48 140.378 716.445 134.483 716.445C112.869 716.445 94.3657 708.749 78.9736 693.357C63.5814 677.965 55.8854 659.461 55.8854 637.847L55.8854 559.249C55.8854 544.184 59.4878 530.921 66.6926 519.459C73.8974 507.996 83.3947 498.663 95.1844 491.458L98.1318 439.387C104.027 391.573 117.618 348.344 138.905 309.7C160.192 271.056 186.718 238.307 218.485 211.452C250.252 184.598 285.948 163.802 325.575 149.065C365.202 134.328 406.302 126.96 448.876 126.96C492.105 126.96 533.532 134.328 573.159 149.065C612.785 163.802 648.318 184.762 679.758 211.944C711.197 239.126 737.56 271.875 758.847 310.191C780.134 348.508 793.725 391.246 799.62 438.404L802.567 489.493C814.357 495.388 823.854 504.067 831.059 515.529C838.264 526.991 841.866 539.599 841.866 553.354L841.866 643.742C841.866 658.151 838.264 670.924 831.059 682.058C823.854 693.193 814.357 701.708 802.567 707.603L802.567 775.394C802.567 791.768 796.836 805.687 785.374 817.149C773.911 828.611 759.993 834.342 743.618 834.342L439.051 834.342ZM330.979 549.424C323.119 549.424 316.241 546.477 310.347 540.582C304.452 534.687 301.504 527.482 301.504 518.967C301.504 511.108 304.452 504.394 310.347 498.827C316.241 493.259 323.446 490.476 331.961 490.476C339.821 490.476 346.534 493.259 352.102 498.827C357.669 504.394 360.453 511.435 360.453 519.95C360.453 527.81 357.669 534.687 352.102 540.582C346.534 546.477 339.493 549.424 330.979 549.424ZM566.773 549.424C558.913 549.424 552.036 546.477 546.141 540.582C540.246 534.687 537.299 527.482 537.299 518.967C537.299 511.108 540.246 504.394 546.141 498.827C552.036 493.259 559.241 490.476 567.755 490.476C575.615 490.476 582.329 493.259 587.896 498.827C593.463 504.394 596.247 511.435 596.247 519.95C596.247 527.81 593.463 534.687 587.896 540.582C582.329 546.477 575.288 549.424 566.773 549.424ZM214.064 498.335C211.444 459.691 216.848 424.65 230.275 393.21C243.702 361.771 261.714 335.081 284.311 313.139C306.908 291.197 332.944 274.331 362.418 262.541C391.892 250.751 421.366 244.857 450.841 244.857C510.444 244.857 560.551 263.687 601.16 301.349C641.769 339.011 666.658 386.006 675.828 442.334C614.259 441.679 560.059 425.141 513.228 392.719C466.397 360.298 430.209 318.215 404.664 266.471C394.185 319.525 372.079 366.52 338.347 407.456C304.616 448.393 263.188 478.686 214.064 498.335Z" fill="#000000" fill-rule="nonzero" opacity="1" stroke="none"/>
</g>
</svg>
