<?xml version="1.0" encoding="UTF-8" standalone="no"?>
<!DOCTYPE svg PUBLIC "-//W3C//DTD SVG 1.1//EN" "http://www.w3.org/Graphics/SVG/1.1/DTD/svg11.dtd">
<!-- Created with Vectornator (http://vectornator.io/) -->
<svg height="100%" stroke-miterlimit="10" style="fill-rule:nonzero;clip-rule:evenodd;stroke-linecap:round;stroke-linejoin:round;" version="1.1" viewBox="0 0 3650.01 1024" width="100%" xml:space="preserve" xmlns="http://www.w3.org/2000/svg" xmlns:vectornator="http://vectornator.io" xmlns:xlink="http://www.w3.org/1999/xlink">
<defs>
<clipPath id="TextBounds">
<rect height="920.4" width="2723.74" x="896.064" y="51.1339"/>
</clipPath>
<clipPath id="TextBounds_2">
<rect height="1" width="0" x="528.138" y="389.923"/>
</clipPath>
</defs>
<g id="Layer-1" vectornator:layerName="Layer 1">
<g fill="#000000" opacity="1" stroke="none">
<path clip-path="url(#TextBounds)" d="M961.564 242.734L1086.36 242.734L1086.36 797.134L961.564 797.134L961.564 242.734Z"/>
<path clip-path="url(#TextBounds)" d="M1206.36 390.734C1226.63 384.867 1252.76 379.401 1284.76 374.334C1316.76 369.267 1350.36 366.734 1385.56 366.734C1421.3 366.734 1451.03 371.401 1474.76 380.734C1498.5 390.067 1517.3 403.267 1531.16 420.334C1545.03 437.401 1554.9 457.667 1560.76 481.134C1566.63 504.601 1569.56 530.734 1569.56 559.534L1569.56 797.134L1450.36 797.134L1450.36 573.934C1450.36 535.534 1445.3 508.334 1435.16 492.334C1425.03 476.334 1406.1 468.334 1378.36 468.334C1369.83 468.334 1360.76 468.734 1351.16 469.534C1341.56 470.334 1333.03 471.267 1325.56 472.334L1325.56 797.134L1206.36 797.134L1206.36 390.734Z"/>
<path clip-path="url(#TextBounds)" d="M1779.16 797.134C1751.96 743.801 1724.36 681.401 1696.36 609.934C1668.36 538.467 1641.83 460.601 1616.76 376.334L1743.16 376.334C1748.5 397.134 1754.76 419.667 1761.96 443.934C1769.16 468.201 1776.63 492.734 1784.36 517.534C1792.1 542.334 1799.83 566.467 1807.56 589.934C1815.3 613.401 1822.9 634.734 1830.36 653.934C1837.3 634.734 1844.76 613.401 1852.76 589.934C1860.76 566.467 1868.63 542.334 1876.36 517.534C1884.1 492.734 1891.56 468.201 1898.76 443.934C1905.96 419.667 1912.23 397.134 1917.56 376.334L2040.76 376.334C2015.7 460.601 1989.16 538.467 1961.16 609.934C1933.16 681.401 1905.56 743.801 1878.36 797.134L1779.16 797.134Z"/>
<path clip-path="url(#TextBounds)" d="M2487.16 585.934C2487.16 619.001 2482.36 649.267 2472.76 676.734C2463.16 704.201 2449.3 727.667 2431.16 747.134C2413.03 766.601 2391.3 781.667 2365.96 792.334C2340.63 803.001 2312.23 808.334 2280.76 808.334C2249.83 808.334 2221.7 803.001 2196.36 792.334C2171.03 781.667 2149.3 766.601 2131.16 747.134C2113.03 727.667 2098.9 704.201 2088.76 676.734C2078.63 649.267 2073.56 619.001 2073.56 585.934C2073.56 552.867 2078.76 522.734 2089.16 495.534C2099.56 468.334 2113.96 445.134 2132.36 425.934C2150.76 406.734 2172.63 391.801 2197.96 381.134C2223.3 370.467 2250.9 365.134 2280.76 365.134C2311.16 365.134 2339.03 370.467 2364.36 381.134C2389.7 391.801 2411.43 406.734 2429.56 425.934C2447.7 445.134 2461.83 468.334 2471.96 495.534C2482.1 522.734 2487.16 552.867 2487.16 585.934ZM2365.56 585.934C2365.56 549.134 2358.23 520.201 2343.56 499.134C2328.9 478.067 2307.96 467.534 2280.76 467.534C2253.56 467.534 2232.5 478.067 2217.56 499.134C2202.63 520.201 2195.16 549.134 2195.16 585.934C2195.16 622.734 2202.63 651.934 2217.56 673.534C2232.5 695.134 2253.56 705.934 2280.76 705.934C2307.96 705.934 2328.9 695.134 2343.56 673.534C2358.23 651.934 2365.56 622.734 2365.56 585.934Z"/>
<path clip-path="url(#TextBounds)" d="M2698.36 797.134L2579.16 797.134L2579.16 376.334L2698.36 376.334L2698.36 797.134ZM2709.56 254.734C2709.56 276.601 2702.5 293.801 2688.36 306.334C2674.23 318.867 2657.56 325.134 2638.36 325.134C2619.16 325.134 2602.5 318.867 2588.36 306.334C2574.23 293.801 2567.16 276.601 2567.16 254.734C2567.16 232.867 2574.23 215.667 2588.36 203.134C2602.5 190.601 2619.16 184.334 2638.36 184.334C2657.56 184.334 2674.23 190.601 2688.36 203.134C2702.5 215.667 2709.56 232.867 2709.56 254.734Z"/>
<path clip-path="url(#TextBounds)" d="M2790.36 586.734C2790.36 556.334 2795.3 527.667 2805.16 500.734C2815.03 473.801 2829.3 450.334 2847.96 430.334C2866.63 410.334 2889.3 394.467 2915.96 382.734C2942.63 371.001 2973.03 365.134 3007.16 365.134C3029.56 365.134 3050.1 367.134 3068.76 371.134C3087.43 375.134 3105.56 380.867 3123.16 388.334L3098.36 483.534C3087.16 479.267 3074.9 475.534 3061.56 472.334C3048.23 469.134 3033.3 467.534 3016.76 467.534C2981.56 467.534 2955.3 478.467 2937.96 500.334C2920.63 522.201 2911.96 551.001 2911.96 586.734C2911.96 624.601 2920.1 653.934 2936.36 674.734C2952.63 695.534 2981.03 705.934 3021.56 705.934C3035.96 705.934 3051.43 704.601 3067.96 701.934C3084.5 699.267 3099.7 695.001 3113.56 689.134L3130.36 786.734C3116.5 792.601 3099.16 797.667 3078.36 801.934C3057.56 806.201 3034.63 808.334 3009.56 808.334C2971.16 808.334 2938.1 802.601 2910.36 791.134C2882.63 779.667 2859.83 764.067 2841.96 744.334C2824.1 724.601 2811.03 701.267 2802.76 674.334C2794.5 647.401 2790.36 618.201 2790.36 586.734Z"/>
<path clip-path="url(#TextBounds)" d="M3170.36 589.934C3170.36 552.601 3176.1 519.934 3187.56 491.934C3199.03 463.934 3214.1 440.601 3232.76 421.934C3251.43 403.267 3272.9 389.134 3297.16 379.534C3321.43 369.934 3346.36 365.134 3371.96 365.134C3431.7 365.134 3478.9 383.401 3513.56 419.934C3548.23 456.467 3565.56 510.201 3565.56 581.134C3565.56 588.067 3565.3 595.667 3564.76 603.934C3564.23 612.201 3563.7 619.534 3563.16 625.934L3292.76 625.934C3295.43 650.467 3306.9 669.934 3327.16 684.334C3347.43 698.734 3374.63 705.934 3408.76 705.934C3430.63 705.934 3452.1 703.934 3473.16 699.934C3494.23 695.934 3511.43 691.001 3524.76 685.134L3540.76 781.934C3534.36 785.134 3525.83 788.334 3515.16 791.534C3504.5 794.734 3492.63 797.534 3479.56 799.934C3466.5 802.334 3452.5 804.334 3437.56 805.934C3422.63 807.534 3407.7 808.334 3392.76 808.334C3354.9 808.334 3321.96 802.734 3293.96 791.534C3265.96 780.334 3242.76 765.001 3224.36 745.534C3205.96 726.067 3192.36 703.001 3183.56 676.334C3174.76 649.667 3170.36 620.867 3170.36 589.934ZM3450.36 544.334C3449.83 534.201 3448.1 524.334 3445.16 514.734C3442.23 505.134 3437.7 496.601 3431.56 489.134C3425.43 481.667 3417.7 475.534 3408.36 470.734C3399.03 465.934 3387.43 463.534 3373.56 463.534C3360.23 463.534 3348.76 465.801 3339.16 470.334C3329.56 474.867 3321.56 480.867 3315.16 488.334C3308.76 495.801 3303.83 504.467 3300.36 514.334C3296.9 524.201 3294.36 534.201 3292.76 544.334L3450.36 544.334Z"/>
</g>
<g fill="#000000" opacity="1" stroke="none"/>
<path d="M284.741 697.179L477.39 697.179C485.228 697.179 491.71 694.616 496.835 689.491C501.96 684.366 504.523 677.884 504.523 670.045C504.523 662.207 501.96 655.725 496.835 650.6C491.71 645.474 485.228 642.912 477.39 642.912L284.741 642.912C276.903 642.912 270.421 645.474 265.296 650.6C260.17 655.725 257.608 662.207 257.608 670.045C257.608 677.884 260.17 684.366 265.296 689.491C270.421 694.616 276.903 697.179 284.741 697.179ZM284.741 543.422L592.255 543.422C600.093 543.422 606.575 540.859 611.701 535.734C616.826 530.609 619.388 524.127 619.388 516.288C619.388 508.45 616.826 501.968 611.701 496.843C606.575 491.718 600.093 489.155 592.255 489.155L284.741 489.155C276.903 489.155 270.421 491.718 265.296 496.843C260.17 501.968 257.608 508.45 257.608 516.288C257.608 524.127 260.17 530.609 265.296 535.734C270.421 540.859 276.903 543.422 284.741 543.422ZM284.741 389.665L592.255 389.665C600.093 389.665 606.575 387.103 611.701 381.977C616.826 376.852 619.388 370.37 619.388 362.532C619.388 354.693 616.826 348.211 611.701 343.086C606.575 337.961 600.093 335.398 592.255 335.398L284.741 335.398C276.903 335.398 270.421 337.961 265.296 343.086C260.17 348.211 257.608 354.693 257.608 362.532C257.608 370.37 260.17 376.852 265.296 381.977C270.421 387.103 276.903 389.665 284.741 389.665ZM167.163 841.891C152.088 841.891 139.275 836.615 128.723 826.063C118.172 815.511 112.896 802.698 112.896 787.624L112.896 244.953C112.896 229.879 118.172 217.066 128.723 206.514C139.275 195.962 152.088 190.686 167.163 190.686L352.575 190.686C355.59 169.582 365.238 152.247 381.518 138.68C397.798 125.113 416.791 118.33 438.498 118.33C460.205 118.33 479.198 125.113 495.479 138.68C511.759 152.247 521.406 169.582 524.421 190.686L709.834 190.686C724.908 190.686 737.721 195.962 748.273 206.514C758.825 217.066 764.101 229.879 764.101 244.953L764.101 787.624C764.101 802.698 758.825 815.511 748.273 826.063C737.721 836.615 724.908 841.891 709.834 841.891L167.163 841.891ZM438.498 229.577C446.94 229.577 454.326 226.412 460.657 220.081C466.988 213.749 470.154 206.363 470.154 197.921C470.154 189.48 466.988 182.094 460.657 175.762C454.326 169.431 446.94 166.266 438.498 166.266C430.057 166.266 422.67 169.431 416.339 175.762C410.008 182.094 406.842 189.48 406.842 197.921C406.842 206.363 410.008 213.749 416.339 220.081C422.67 226.412 430.057 229.577 438.498 229.577Z" fill="#000000" fill-rule="nonzero" opacity="1" stroke="none"/>
</g>
</svg>
