<?xml version="1.0" encoding="UTF-8" standalone="no"?>
<!DOCTYPE svg PUBLIC "-//W3C//DTD SVG 1.1//EN" "http://www.w3.org/Graphics/SVG/1.1/DTD/svg11.dtd">
<!-- Created with Vectornator (http://vectornator.io/) -->
<svg height="100%" stroke-miterlimit="10" style="fill-rule:nonzero;clip-rule:evenodd;stroke-linecap:round;stroke-linejoin:round;" version="1.1" viewBox="0 0 4767.76 1024" width="100%" xml:space="preserve" xmlns="http://www.w3.org/2000/svg" xmlns:vectornator="http://vectornator.io" xmlns:xlink="http://www.w3.org/1999/xlink">
<defs>
<clipPath id="TextBounds">
<rect height="920.4" width="3764.32" x="950.399" y="50.9799"/>
</clipPath>
<clipPath id="TextBounds_2">
<rect height="1" width="0" x="34.7315" y="-269.357"/>
</clipPath>
<clipPath id="TextBounds_3">
<rect height="1" width="0" x="36.8097" y="-417.232"/>
</clipPath>
</defs>
<clipPath id="ArtboardFrame">
<rect height="1024" width="4767.76" x="0" y="0"/>
</clipPath>
<g clip-path="url(#ArtboardFrame)" id="Layer-1" vectornator:layerName="Layer 1">
<g fill="#000000" opacity="1" stroke="none">
<path clip-path="url(#TextBounds)" d="M1163.1 242.58C1172.7 260.18 1183.77 281.913 1196.3 307.78C1208.83 333.647 1221.9 361.647 1235.5 391.78C1249.1 421.913 1262.57 452.713 1275.9 484.18C1289.23 515.647 1301.77 545.247 1313.5 572.98C1325.23 545.247 1337.77 515.647 1351.1 484.18C1364.43 452.713 1377.9 421.913 1391.5 391.78C1405.1 361.647 1418.17 333.647 1430.7 307.78C1443.23 281.913 1454.3 260.18 1463.9 242.58L1577.5 242.58C1582.83 279.38 1587.77 320.58 1592.3 366.18C1596.83 411.78 1600.83 459.247 1604.3 508.58C1607.77 557.913 1610.97 607.38 1613.9 656.98C1616.83 706.58 1619.37 753.247 1621.5 796.98L1499.9 796.98C1498.3 743.113 1496.17 684.447 1493.5 620.98C1490.83 557.513 1486.83 493.513 1481.5 428.98C1471.9 451.38 1461.23 476.18 1449.5 503.38C1437.77 530.58 1426.17 557.78 1414.7 584.98C1403.23 612.18 1392.17 638.18 1381.5 662.98C1370.83 687.78 1361.77 708.98 1354.3 726.58L1267.1 726.58C1259.63 708.98 1250.57 687.78 1239.9 662.98C1229.23 638.18 1218.17 612.18 1206.7 584.98C1195.23 557.78 1183.63 530.58 1171.9 503.38C1160.17 476.18 1149.5 451.38 1139.9 428.98C1134.57 493.513 1130.57 557.513 1127.9 620.98C1125.23 684.447 1123.1 743.113 1121.5 796.98L999.899 796.98C1002.03 753.247 1004.57 706.58 1007.5 656.98C1010.43 607.38 1013.63 557.913 1017.1 508.58C1020.57 459.247 1024.57 411.78 1029.1 366.18C1033.63 320.58 1038.57 279.38 1043.9 242.58L1163.1 242.58Z"/>
<path clip-path="url(#TextBounds)" d="M1705.5 589.78C1705.5 552.447 1711.23 519.78 1722.7 491.78C1734.17 463.78 1749.23 440.447 1767.9 421.78C1786.57 403.113 1808.03 388.98 1832.3 379.38C1856.57 369.78 1881.5 364.98 1907.1 364.98C1966.83 364.98 2014.03 383.247 2048.7 419.78C2083.37 456.313 2100.7 510.047 2100.7 580.98C2100.7 587.913 2100.43 595.513 2099.9 603.78C2099.37 612.047 2098.83 619.38 2098.3 625.78L1827.9 625.78C1830.57 650.313 1842.03 669.78 1862.3 684.18C1882.57 698.58 1909.77 705.78 1943.9 705.78C1965.77 705.78 1987.23 703.78 2008.3 699.78C2029.37 695.78 2046.57 690.847 2059.9 684.98L2075.9 781.78C2069.5 784.98 2060.97 788.18 2050.3 791.38C2039.63 794.58 2027.77 797.38 2014.7 799.78C2001.63 802.18 1987.63 804.18 1972.7 805.78C1957.77 807.38 1942.83 808.18 1927.9 808.18C1890.03 808.18 1857.1 802.58 1829.1 791.38C1801.1 780.18 1777.9 764.847 1759.5 745.38C1741.1 725.913 1727.5 702.847 1718.7 676.18C1709.9 649.513 1705.5 620.713 1705.5 589.78ZM1985.5 544.18C1984.97 534.047 1983.23 524.18 1980.3 514.58C1977.37 504.98 1972.83 496.447 1966.7 488.98C1960.57 481.513 1952.83 475.38 1943.5 470.58C1934.17 465.78 1922.57 463.38 1908.7 463.38C1895.37 463.38 1883.9 465.647 1874.3 470.18C1864.7 474.713 1856.7 480.713 1850.3 488.18C1843.9 495.647 1838.97 504.313 1835.5 514.18C1832.03 524.047 1829.5 534.047 1827.9 544.18L1985.5 544.18Z"/>
<path clip-path="url(#TextBounds)" d="M2313.5 711.38C2335.37 711.38 2350.83 709.247 2359.9 704.98C2368.97 700.713 2373.5 692.447 2373.5 680.18C2373.5 670.58 2367.63 662.18 2355.9 654.98C2344.17 647.78 2326.3 639.647 2302.3 630.58C2283.63 623.647 2266.7 616.447 2251.5 608.98C2236.3 601.513 2223.37 592.58 2212.7 582.18C2202.03 571.78 2193.77 559.38 2187.9 544.98C2182.03 530.58 2179.1 513.247 2179.1 492.98C2179.1 453.513 2193.77 422.313 2223.1 399.38C2252.43 376.447 2292.7 364.98 2343.9 364.98C2369.5 364.98 2394.03 367.247 2417.5 371.78C2440.97 376.313 2459.63 381.247 2473.5 386.58L2452.7 479.38C2438.83 474.58 2423.77 470.313 2407.5 466.58C2391.23 462.847 2372.97 460.98 2352.7 460.98C2315.37 460.98 2296.7 471.38 2296.7 492.18C2296.7 496.98 2297.5 501.247 2299.1 504.98C2300.7 508.713 2303.9 512.313 2308.7 515.78C2313.5 519.247 2320.03 522.98 2328.3 526.98C2336.57 530.98 2347.1 535.38 2359.9 540.18C2386.03 549.78 2407.63 559.247 2424.7 568.58C2441.77 577.913 2455.23 588.047 2465.1 598.98C2474.97 609.913 2481.9 622.047 2485.9 635.38C2489.9 648.713 2491.9 664.18 2491.9 681.78C2491.9 723.38 2476.3 754.847 2445.1 776.18C2413.9 797.513 2369.77 808.18 2312.7 808.18C2275.37 808.18 2244.3 804.98 2219.5 798.58C2194.7 792.18 2177.5 786.847 2167.9 782.58L2187.9 685.78C2208.17 693.78 2228.97 700.047 2250.3 704.58C2271.63 709.113 2292.7 711.38 2313.5 711.38Z"/>
<path clip-path="url(#TextBounds)" d="M2701.5 711.38C2723.37 711.38 2738.83 709.247 2747.9 704.98C2756.97 700.713 2761.5 692.447 2761.5 680.18C2761.5 670.58 2755.63 662.18 2743.9 654.98C2732.17 647.78 2714.3 639.647 2690.3 630.58C2671.63 623.647 2654.7 616.447 2639.5 608.98C2624.3 601.513 2611.37 592.58 2600.7 582.18C2590.03 571.78 2581.77 559.38 2575.9 544.98C2570.03 530.58 2567.1 513.247 2567.1 492.98C2567.1 453.513 2581.77 422.313 2611.1 399.38C2640.43 376.447 2680.7 364.98 2731.9 364.98C2757.5 364.98 2782.03 367.247 2805.5 371.78C2828.97 376.313 2847.63 381.247 2861.5 386.58L2840.7 479.38C2826.83 474.58 2811.77 470.313 2795.5 466.58C2779.23 462.847 2760.97 460.98 2740.7 460.98C2703.37 460.98 2684.7 471.38 2684.7 492.18C2684.7 496.98 2685.5 501.247 2687.1 504.98C2688.7 508.713 2691.9 512.313 2696.7 515.78C2701.5 519.247 2708.03 522.98 2716.3 526.98C2724.57 530.98 2735.1 535.38 2747.9 540.18C2774.03 549.78 2795.63 559.247 2812.7 568.58C2829.77 577.913 2843.23 588.047 2853.1 598.98C2862.97 609.913 2869.9 622.047 2873.9 635.38C2877.9 648.713 2879.9 664.18 2879.9 681.78C2879.9 723.38 2864.3 754.847 2833.1 776.18C2801.9 797.513 2757.77 808.18 2700.7 808.18C2663.37 808.18 2632.3 804.98 2607.5 798.58C2582.7 792.18 2565.5 786.847 2555.9 782.58L2575.9 685.78C2596.17 693.78 2616.97 700.047 2638.3 704.58C2659.63 709.113 2680.7 711.38 2701.5 711.38Z"/>
<path clip-path="url(#TextBounds)" d="M3129.5 713.78C3141.23 713.78 3152.43 713.513 3163.1 712.98C3173.77 712.447 3182.3 711.647 3188.7 710.58L3188.7 620.18C3183.9 619.113 3176.7 618.047 3167.1 616.98C3157.5 615.913 3148.7 615.38 3140.7 615.38C3129.5 615.38 3118.97 616.047 3109.1 617.38C3099.23 618.713 3090.57 621.247 3083.1 624.98C3075.63 628.713 3069.77 633.78 3065.5 640.18C3061.23 646.58 3059.1 654.58 3059.1 664.18C3059.1 682.847 3065.37 695.78 3077.9 702.98C3090.43 710.18 3107.63 713.78 3129.5 713.78ZM3119.9 364.98C3155.1 364.98 3184.43 368.98 3207.9 376.98C3231.37 384.98 3250.17 396.447 3264.3 411.38C3278.43 426.313 3288.43 444.447 3294.3 465.78C3300.17 487.113 3303.1 510.847 3303.1 536.98L3303.1 784.98C3286.03 788.713 3262.3 793.113 3231.9 798.18C3201.5 803.247 3164.7 805.78 3121.5 805.78C3094.3 805.78 3069.63 803.38 3047.5 798.58C3025.37 793.78 3006.3 785.913 2990.3 774.98C2974.3 764.047 2962.03 749.78 2953.5 732.18C2944.97 714.58 2940.7 692.98 2940.7 667.38C2940.7 642.847 2945.63 622.047 2955.5 604.98C2965.37 587.913 2978.57 574.313 2995.1 564.18C3011.63 554.047 3030.57 546.713 3051.9 542.18C3073.23 537.647 3095.37 535.38 3118.3 535.38C3133.77 535.38 3147.5 536.047 3159.5 537.38C3171.5 538.713 3181.23 540.447 3188.7 542.58L3188.7 531.38C3188.7 511.113 3182.57 494.847 3170.3 482.58C3158.03 470.313 3136.7 464.18 3106.3 464.18C3086.03 464.18 3066.03 465.647 3046.3 468.58C3026.57 471.513 3009.5 475.647 2995.1 480.98L2979.9 384.98C2986.83 382.847 2995.5 380.58 3005.9 378.18C3016.3 375.78 3027.63 373.647 3039.9 371.78C3052.17 369.913 3065.1 368.313 3078.7 366.98C3092.3 365.647 3106.03 364.98 3119.9 364.98Z"/>
<path clip-path="url(#TextBounds)" d="M3512.7 572.98C3512.7 639.647 3539.63 672.98 3593.5 672.98C3605.77 672.98 3617.23 671.38 3627.9 668.18C3638.57 664.98 3647.63 661.247 3655.1 656.98L3655.1 466.58C3649.23 465.513 3642.3 464.58 3634.3 463.78C3626.3 462.98 3616.97 462.58 3606.3 462.58C3574.83 462.58 3551.37 472.98 3535.9 493.78C3520.43 514.58 3512.7 540.98 3512.7 572.98ZM3774.3 744.18C3774.3 812.98 3756.83 864.047 3721.9 897.38C3686.97 930.713 3632.97 947.38 3559.9 947.38C3534.3 947.38 3508.7 945.113 3483.1 940.58C3457.5 936.047 3433.77 930.047 3411.9 922.58L3432.7 822.58C3451.37 830.047 3470.97 835.913 3491.5 840.18C3512.03 844.447 3535.37 846.58 3561.5 846.58C3595.63 846.58 3619.77 839.113 3633.9 824.18C3648.03 809.247 3655.1 790.047 3655.1 766.58L3655.1 751.38C3642.3 757.247 3629.1 761.647 3615.5 764.58C3601.9 767.513 3587.1 768.98 3571.1 768.98C3512.97 768.98 3468.43 751.78 3437.5 717.38C3406.57 682.98 3391.1 634.847 3391.1 572.98C3391.1 542.047 3395.9 513.913 3405.5 488.58C3415.1 463.247 3429.1 441.513 3447.5 423.38C3465.9 405.247 3488.43 391.247 3515.1 381.38C3541.77 371.513 3571.9 366.58 3605.5 366.58C3619.9 366.58 3634.7 367.247 3649.9 368.58C3665.1 369.913 3680.17 371.647 3695.1 373.78C3710.03 375.913 3724.3 378.447 3737.9 381.38C3751.5 384.313 3763.63 387.38 3774.3 390.58L3774.3 744.18Z"/>
<path clip-path="url(#TextBounds)" d="M3866.3 589.78C3866.3 552.447 3872.03 519.78 3883.5 491.78C3894.97 463.78 3910.03 440.447 3928.7 421.78C3947.37 403.113 3968.83 388.98 3993.1 379.38C4017.37 369.78 4042.3 364.98 4067.9 364.98C4127.63 364.98 4174.83 383.247 4209.5 419.78C4244.17 456.313 4261.5 510.047 4261.5 580.98C4261.5 587.913 4261.23 595.513 4260.7 603.78C4260.17 612.047 4259.63 619.38 4259.1 625.78L3988.7 625.78C3991.37 650.313 4002.83 669.78 4023.1 684.18C4043.37 698.58 4070.57 705.78 4104.7 705.78C4126.57 705.78 4148.03 703.78 4169.1 699.78C4190.17 695.78 4207.37 690.847 4220.7 684.98L4236.7 781.78C4230.3 784.98 4221.77 788.18 4211.1 791.38C4200.43 794.58 4188.57 797.38 4175.5 799.78C4162.43 802.18 4148.43 804.18 4133.5 805.78C4118.57 807.38 4103.63 808.18 4088.7 808.18C4050.83 808.18 4017.9 802.58 3989.9 791.38C3961.9 780.18 3938.7 764.847 3920.3 745.38C3901.9 725.913 3888.3 702.847 3879.5 676.18C3870.7 649.513 3866.3 620.713 3866.3 589.78ZM4146.3 544.18C4145.77 534.047 4144.03 524.18 4141.1 514.58C4138.17 504.98 4133.63 496.447 4127.5 488.98C4121.37 481.513 4113.63 475.38 4104.3 470.58C4094.97 465.78 4083.37 463.38 4069.5 463.38C4056.17 463.38 4044.7 465.647 4035.1 470.18C4025.5 474.713 4017.5 480.713 4011.1 488.18C4004.7 495.647 3999.77 504.313 3996.3 514.18C3992.83 524.047 3990.3 534.047 3988.7 544.18L4146.3 544.18Z"/>
<path clip-path="url(#TextBounds)" d="M4474.3 711.38C4496.17 711.38 4511.63 709.247 4520.7 704.98C4529.77 700.713 4534.3 692.447 4534.3 680.18C4534.3 670.58 4528.43 662.18 4516.7 654.98C4504.97 647.78 4487.1 639.647 4463.1 630.58C4444.43 623.647 4427.5 616.447 4412.3 608.98C4397.1 601.513 4384.17 592.58 4373.5 582.18C4362.83 571.78 4354.57 559.38 4348.7 544.98C4342.83 530.58 4339.9 513.247 4339.9 492.98C4339.9 453.513 4354.57 422.313 4383.9 399.38C4413.23 376.447 4453.5 364.98 4504.7 364.98C4530.3 364.98 4554.83 367.247 4578.3 371.78C4601.77 376.313 4620.43 381.247 4634.3 386.58L4613.5 479.38C4599.63 474.58 4584.57 470.313 4568.3 466.58C4552.03 462.847 4533.77 460.98 4513.5 460.98C4476.17 460.98 4457.5 471.38 4457.5 492.18C4457.5 496.98 4458.3 501.247 4459.9 504.98C4461.5 508.713 4464.7 512.313 4469.5 515.78C4474.3 519.247 4480.83 522.98 4489.1 526.98C4497.37 530.98 4507.9 535.38 4520.7 540.18C4546.83 549.78 4568.43 559.247 4585.5 568.58C4602.57 577.913 4616.03 588.047 4625.9 598.98C4635.77 609.913 4642.7 622.047 4646.7 635.38C4650.7 648.713 4652.7 664.18 4652.7 681.78C4652.7 723.38 4637.1 754.847 4605.9 776.18C4574.7 797.513 4530.57 808.18 4473.5 808.18C4436.17 808.18 4405.1 804.98 4380.3 798.58C4355.5 792.18 4338.3 786.847 4328.7 782.58L4348.7 685.78C4368.97 693.78 4389.77 700.047 4411.1 704.58C4432.43 709.113 4453.5 711.38 4474.3 711.38Z"/>
</g>
<g fill="#000000" opacity="1" stroke="none"/>
<g fill="#000000" opacity="1" stroke="none"/>
<path d="M260.211 572.449L647.655 572.449C655.65 572.449 662.261 570.038 667.488 565.215C672.716 560.393 675.33 554.294 675.33 546.918C675.33 539.543 672.716 533.444 667.488 528.621C662.261 523.799 655.65 521.388 647.655 521.388L260.211 521.388C252.216 521.388 245.605 523.799 240.377 528.621C235.15 533.444 232.536 539.543 232.536 546.918C232.536 554.294 235.15 560.393 240.377 565.215C245.605 570.038 252.216 572.449 260.211 572.449ZM260.211 461.816L647.655 461.816C655.65 461.816 662.261 459.405 667.488 454.582C672.716 449.76 675.33 443.661 675.33 436.285C675.33 428.91 672.716 422.81 667.488 417.988C662.261 413.166 655.65 410.754 647.655 410.754L260.211 410.754C252.216 410.754 245.605 413.166 240.377 417.988C235.15 422.81 232.536 428.91 232.536 436.285C232.536 443.661 235.15 449.76 240.377 454.582C245.605 459.405 252.216 461.816 260.211 461.816ZM260.211 351.183L647.655 351.183C655.65 351.183 662.261 348.771 667.488 343.949C672.716 339.126 675.33 333.027 675.33 325.652C675.33 318.276 672.716 312.177 667.488 307.355C662.261 302.532 655.65 300.121 647.655 300.121L260.211 300.121C252.216 300.121 245.605 302.532 240.377 307.355C235.15 312.177 232.536 318.276 232.536 325.652C232.536 333.027 235.15 339.126 240.377 343.949C245.605 348.771 252.216 351.183 260.211 351.183ZM768.501 809.885L667.95 717.123L132.907 717.123C118.763 717.123 106.002 711.875 94.6243 701.38C83.2469 690.884 77.5583 679.111 77.5583 666.062L77.5583 223.529C77.5583 210.48 83.2469 198.707 94.6243 188.211C106.002 177.715 118.763 172.467 132.907 172.467L760.198 172.467C774.958 172.467 787.873 177.715 798.943 188.211C810.013 198.707 815.547 210.48 815.547 223.529L815.547 792.014C815.547 803.361 809.859 811.162 798.481 815.417C787.104 819.672 777.111 817.828 768.501 809.885Z" fill="#000000" fill-rule="nonzero" opacity="1" stroke="none"/>
</g>
</svg>
