<?xml version="1.0" encoding="UTF-8" standalone="no"?>
<!DOCTYPE svg PUBLIC "-//W3C//DTD SVG 1.1//EN" "http://www.w3.org/Graphics/SVG/1.1/DTD/svg11.dtd">
<!-- Created with Vectornator (http://vectornator.io/) -->
<svg height="100%" stroke-miterlimit="10" style="fill-rule:nonzero;clip-rule:evenodd;stroke-linecap:round;stroke-linejoin:round;" version="1.1" viewBox="0 0 4284.59 1024" width="100%" xml:space="preserve" xmlns="http://www.w3.org/2000/svg" xmlns:vectornator="http://vectornator.io" xmlns:xlink="http://www.w3.org/1999/xlink">
<defs>
<clipPath id="TextBounds">
<rect height="920.4" width="3261.25" x="950.399" y="50.9799"/>
</clipPath>
<clipPath id="TextBounds_2">
<rect height="1" width="0" x="34.7315" y="-269.357"/>
</clipPath>
<clipPath id="TextBounds_3">
<rect height="1" width="0" x="36.8097" y="-417.232"/>
</clipPath>
</defs>
<clipPath id="ArtboardFrame">
<rect height="1024" width="4284.59" x="0" y="0"/>
</clipPath>
<g clip-path="url(#ArtboardFrame)" id="Layer-1" vectornator:layerName="Layer 1">
<g fill="#000000" opacity="1" stroke="none">
<path clip-path="url(#TextBounds)" d="M1163.1 242.58C1172.7 260.18 1183.77 281.913 1196.3 307.78C1208.83 333.647 1221.9 361.647 1235.5 391.78C1249.1 421.913 1262.57 452.713 1275.9 484.18C1289.23 515.647 1301.77 545.247 1313.5 572.98C1325.23 545.247 1337.77 515.647 1351.1 484.18C1364.43 452.713 1377.9 421.913 1391.5 391.78C1405.1 361.647 1418.17 333.647 1430.7 307.78C1443.23 281.913 1454.3 260.18 1463.9 242.58L1577.5 242.58C1582.83 279.38 1587.77 320.58 1592.3 366.18C1596.83 411.78 1600.83 459.247 1604.3 508.58C1607.77 557.913 1610.97 607.38 1613.9 656.98C1616.83 706.58 1619.37 753.247 1621.5 796.98L1499.9 796.98C1498.3 743.113 1496.17 684.447 1493.5 620.98C1490.83 557.513 1486.83 493.513 1481.5 428.98C1471.9 451.38 1461.23 476.18 1449.5 503.38C1437.77 530.58 1426.17 557.78 1414.7 584.98C1403.23 612.18 1392.17 638.18 1381.5 662.98C1370.83 687.78 1361.77 708.98 1354.3 726.58L1267.1 726.58C1259.63 708.98 1250.57 687.78 1239.9 662.98C1229.23 638.18 1218.17 612.18 1206.7 584.98C1195.23 557.78 1183.63 530.58 1171.9 503.38C1160.17 476.18 1149.5 451.38 1139.9 428.98C1134.57 493.513 1130.57 557.513 1127.9 620.98C1125.23 684.447 1123.1 743.113 1121.5 796.98L999.899 796.98C1002.03 753.247 1004.57 706.58 1007.5 656.98C1010.43 607.38 1013.63 557.913 1017.1 508.58C1020.57 459.247 1024.57 411.78 1029.1 366.18C1033.63 320.58 1038.57 279.38 1043.9 242.58L1163.1 242.58Z"/>
<path clip-path="url(#TextBounds)" d="M2099.1 376.18C2075.1 457.247 2050.03 533.247 2023.9 604.18C1997.77 675.113 1969.23 743.913 1938.3 810.58C1927.1 834.58 1915.9 854.98 1904.7 871.78C1893.5 888.58 1881.23 902.447 1867.9 913.38C1854.57 924.313 1839.5 932.313 1822.7 937.38C1805.9 942.447 1786.3 944.98 1763.9 944.98C1745.23 944.98 1728.03 943.247 1712.3 939.78C1696.57 936.313 1683.63 932.447 1673.5 928.18L1694.3 832.98C1706.57 837.247 1717.5 840.18 1727.1 841.78C1736.7 843.38 1746.83 844.18 1757.5 844.18C1778.83 844.18 1795.23 838.447 1806.7 826.98C1818.17 815.513 1827.9 799.647 1835.9 779.38C1808.7 726.047 1781.5 666.18 1754.3 599.78C1727.1 533.38 1701.5 458.847 1677.5 376.18L1803.9 376.18C1809.23 396.98 1815.5 419.513 1822.7 443.78C1829.9 468.047 1837.5 492.58 1845.5 517.38C1853.5 542.18 1861.63 566.313 1869.9 589.78C1878.17 613.247 1886.03 634.58 1893.5 653.78C1900.43 634.58 1907.63 613.247 1915.1 589.78C1922.57 566.313 1929.9 542.18 1937.1 517.38C1944.3 492.58 1951.23 468.047 1957.9 443.78C1964.57 419.513 1970.57 396.98 1975.9 376.18L2099.1 376.18Z"/>
<path clip-path="url(#TextBounds)" d="M2514.3 701.78C2531.9 701.78 2546.43 700.313 2557.9 697.38C2569.37 694.447 2578.57 690.447 2585.5 685.38C2592.43 680.313 2597.23 674.313 2599.9 667.38C2602.57 660.447 2603.9 652.713 2603.9 644.18C2603.9 626.047 2595.37 610.98 2578.3 598.98C2561.23 586.98 2531.9 574.047 2490.3 560.18C2472.17 553.78 2454.03 546.447 2435.9 538.18C2417.77 529.913 2401.5 519.513 2387.1 506.98C2372.7 494.447 2360.97 479.247 2351.9 461.38C2342.83 443.513 2338.3 421.78 2338.3 396.18C2338.3 370.58 2343.1 347.513 2352.7 326.98C2362.3 306.447 2375.9 288.98 2393.5 274.58C2411.1 260.18 2432.43 249.113 2457.5 241.38C2482.57 233.647 2510.83 229.78 2542.3 229.78C2579.63 229.78 2611.9 233.78 2639.1 241.78C2666.3 249.78 2688.7 258.58 2706.3 268.18L2670.3 366.58C2654.83 358.58 2637.63 351.513 2618.7 345.38C2599.77 339.247 2576.97 336.18 2550.3 336.18C2520.43 336.18 2498.97 340.313 2485.9 348.58C2472.83 356.847 2466.3 369.513 2466.3 386.58C2466.3 396.713 2468.7 405.247 2473.5 412.18C2478.3 419.113 2485.1 425.38 2493.9 430.98C2502.7 436.58 2512.83 441.647 2524.3 446.18C2535.77 450.713 2548.43 455.38 2562.3 460.18C2591.1 470.847 2616.17 481.38 2637.5 491.78C2658.83 502.18 2676.57 514.313 2690.7 528.18C2704.83 542.047 2715.37 558.313 2722.3 576.98C2729.23 595.647 2732.7 618.313 2732.7 644.98C2732.7 696.713 2714.57 736.847 2678.3 765.38C2642.03 793.913 2587.37 808.18 2514.3 808.18C2489.77 808.18 2467.63 806.713 2447.9 803.78C2428.17 800.847 2410.7 797.247 2395.5 792.98C2380.3 788.713 2367.23 784.18 2356.3 779.38C2345.37 774.58 2336.17 770.047 2328.7 765.78L2363.9 666.58C2380.43 675.647 2400.83 683.78 2425.1 690.98C2449.37 698.18 2479.1 701.78 2514.3 701.78Z"/>
<path clip-path="url(#TextBounds)" d="M2820.7 796.98L2820.7 195.38L2939.9 176.18L2939.9 377.78C2947.9 375.113 2958.17 372.58 2970.7 370.18C2983.23 367.78 2995.37 366.58 3007.1 366.58C3041.23 366.58 3069.63 371.247 3092.3 380.58C3114.97 389.913 3133.1 403.113 3146.7 420.18C3160.3 437.247 3169.9 457.513 3175.5 480.98C3181.1 504.447 3183.9 530.58 3183.9 559.38L3183.9 796.98L3064.7 796.98L3064.7 573.78C3064.7 535.38 3059.77 508.18 3049.9 492.18C3040.03 476.18 3021.77 468.18 2995.1 468.18C2984.43 468.18 2974.43 469.113 2965.1 470.98C2955.77 472.847 2947.37 474.847 2939.9 476.98L2939.9 796.98L2820.7 796.98Z"/>
<path clip-path="url(#TextBounds)" d="M3685.5 585.78C3685.5 618.847 3680.7 649.113 3671.1 676.58C3661.5 704.047 3647.63 727.513 3629.5 746.98C3611.37 766.447 3589.63 781.513 3564.3 792.18C3538.97 802.847 3510.57 808.18 3479.1 808.18C3448.17 808.18 3420.03 802.847 3394.7 792.18C3369.37 781.513 3347.63 766.447 3329.5 746.98C3311.37 727.513 3297.23 704.047 3287.1 676.58C3276.97 649.113 3271.9 618.847 3271.9 585.78C3271.9 552.713 3277.1 522.58 3287.5 495.38C3297.9 468.18 3312.3 444.98 3330.7 425.78C3349.1 406.58 3370.97 391.647 3396.3 380.98C3421.63 370.313 3449.23 364.98 3479.1 364.98C3509.5 364.98 3537.37 370.313 3562.7 380.98C3588.03 391.647 3609.77 406.58 3627.9 425.78C3646.03 444.98 3660.17 468.18 3670.3 495.38C3680.43 522.58 3685.5 552.713 3685.5 585.78ZM3563.9 585.78C3563.9 548.98 3556.57 520.047 3541.9 498.98C3527.23 477.913 3506.3 467.38 3479.1 467.38C3451.9 467.38 3430.83 477.913 3415.9 498.98C3400.97 520.047 3393.5 548.98 3393.5 585.78C3393.5 622.58 3400.97 651.78 3415.9 673.38C3430.83 694.98 3451.9 705.78 3479.1 705.78C3506.3 705.78 3527.23 694.98 3541.9 673.38C3556.57 651.78 3563.9 622.58 3563.9 585.78Z"/>
<path clip-path="url(#TextBounds)" d="M4047.1 589.78C4047.1 552.98 4038.83 523.513 4022.3 501.38C4005.77 479.247 3981.23 468.18 3948.7 468.18C3938.03 468.18 3928.17 468.58 3919.1 469.38C3910.03 470.18 3902.57 471.113 3896.7 472.18L3896.7 687.38C3904.17 692.18 3913.9 696.18 3925.9 699.38C3937.9 702.58 3950.03 704.18 3962.3 704.18C4018.83 704.18 4047.1 666.047 4047.1 589.78ZM4168.7 586.58C4168.7 619.113 4164.7 648.713 4156.7 675.38C4148.7 702.047 4136.97 724.98 4121.5 744.18C4106.03 763.38 4086.83 778.313 4063.9 788.98C4040.97 799.647 4014.57 804.98 3984.7 804.98C3968.17 804.98 3952.7 803.38 3938.3 800.18C3923.9 796.98 3910.03 792.447 3896.7 786.58L3896.7 944.98L3777.5 944.98L3777.5 390.58C3788.17 387.38 3800.43 384.313 3814.3 381.38C3828.17 378.447 3842.7 375.913 3857.9 373.78C3873.1 371.647 3888.57 369.913 3904.3 368.58C3920.03 367.247 3935.1 366.58 3949.5 366.58C3984.17 366.58 4015.1 371.78 4042.3 382.18C4069.5 392.58 4092.43 407.247 4111.1 426.18C4129.77 445.113 4144.03 468.18 4153.9 495.38C4163.77 522.58 4168.7 552.98 4168.7 586.58Z"/>
</g>
<g fill="#000000" opacity="1" stroke="none"/>
<g fill="#000000" opacity="1" stroke="none"/>
<path d="M182.954 806.411C168.787 806.411 156.39 801.098 145.764 790.472C135.138 779.846 129.825 767.449 129.825 753.282L129.825 453.102C113.296 438.934 102.375 421.52 97.0624 400.859C91.7495 380.197 92.3398 359.536 98.8333 338.875L136.909 219.334C141.632 203.395 149.896 190.999 161.703 182.144C173.509 173.289 187.087 168.862 202.435 168.862L692.108 168.862C708.637 168.862 723.1 173.437 735.497 182.587C747.894 191.737 756.454 203.986 761.176 219.334L800.138 338.875C806.631 359.536 807.074 380.197 801.466 400.859C795.858 421.52 784.789 438.934 768.26 453.102L768.26 753.282C768.26 767.449 762.947 779.846 752.321 790.472C741.696 801.098 729.299 806.411 715.131 806.411L182.954 806.411ZM529.179 425.652C546.299 425.652 560.761 420.044 572.568 408.828C584.374 397.612 589.097 384.034 586.736 368.096L564.599 221.991L476.05 221.991L476.05 368.096C476.05 383.444 481.068 396.874 491.103 408.385C501.139 419.897 513.831 425.652 529.179 425.652ZM363.593 425.652C380.122 425.652 394.143 420.044 405.654 408.828C417.165 397.612 422.921 384.034 422.921 368.096L422.921 221.991L334.372 221.991L312.235 368.096C309.874 383.444 314.006 396.874 324.632 408.385C335.258 419.897 348.245 425.652 363.593 425.652ZM202.435 425.652C216.603 425.652 228.852 420.782 239.183 411.042C249.513 401.301 255.564 389.347 257.335 375.18L280.358 221.991L191.809 221.991L151.077 351.271C145.174 369.571 147.535 386.543 158.161 402.187C168.787 417.83 183.545 425.652 202.435 425.652ZM695.65 425.652C714.541 425.652 729.446 417.978 740.367 402.63C751.288 387.281 753.797 370.162 747.894 351.271L707.162 221.991L618.613 221.991L641.636 375.18C643.407 389.347 649.458 401.301 659.788 411.042C670.119 420.782 682.073 425.652 695.65 425.652Z" fill="#000000" fill-rule="nonzero" opacity="1" stroke="none"/>
</g>
</svg>
