<?xml version="1.0" encoding="UTF-8" standalone="no"?>
<!DOCTYPE svg PUBLIC "-//W3C//DTD SVG 1.1//EN" "http://www.w3.org/Graphics/SVG/1.1/DTD/svg11.dtd">
<!-- Created with Vectornator (http://vectornator.io/) -->
<svg height="100%" stroke-miterlimit="10" style="fill-rule:nonzero;clip-rule:evenodd;stroke-linecap:round;stroke-linejoin:round;" version="1.1" viewBox="0 0 4546.38 1024" width="100%" xml:space="preserve" xmlns="http://www.w3.org/2000/svg" xmlns:vectornator="http://vectornator.io" xmlns:xlink="http://www.w3.org/1999/xlink">
<defs>
<clipPath id="TextBounds">
<rect height="809.271" width="3971.5" x="941.706" y="107.262"/>
</clipPath>
</defs>
<g id="Layer-1" vectornator:layerName="Layer 1">
<g opacity="1">
<g opacity="1">
<path d="M183.188 866.834C156.618 866.834 135.094 848.434 135.094 825.74L214.796 452.927C214.796 430.233 236.32 411.834 262.89 411.834L756.969 411.834C783.539 411.834 805.094 430.233 805.094 452.927L885.094 825.74C885.094 848.434 863.539 866.834 836.969 866.834L183.188 866.834Z" fill="#0d1c26" fill-rule="nonzero" opacity="1" stroke="none"/>
<g opacity="1">
<path d="M664.455 590.413C663.721 590.614 663.08 591.074 662.674 591.788C645.675 619.688 625.497 645.419 600.986 667.127C578.212 687.298 551.889 703.593 523.517 714.625C499.384 724.011 473.905 729.672 448.111 731.75C441.78 732.259 435.424 732.422 429.08 732.687C423.688 732.912 418.323 733.142 412.924 732.968C407.457 732.792 402 732.224 396.549 731.812C383.117 730.797 369.706 729.287 356.424 727.032C346.14 725.285 335.918 723.126 325.83 720.469C322.51 719.595 319.204 718.673 315.924 717.657C314.893 717.337 313.854 716.998 312.83 716.657C312.495 716.545 312.164 716.429 311.83 716.313C311.725 716.276 311.652 716.256 311.549 716.219C311.543 716.217 311.373 716.151 311.393 716.157C302.657 713.161 293.138 717.827 290.143 726.563C287.147 735.298 291.782 744.785 300.517 747.781C307.668 750.181 315.125 751.878 322.486 753.467C335.696 756.319 349.098 758.328 362.549 759.623C373.58 760.686 384.682 761.258 395.767 761.061C402.058 760.949 408.335 760.473 414.611 760.092C421.627 759.667 428.663 759.275 435.643 758.436C446.712 757.106 457.683 754.941 468.549 752.467C506.985 743.717 543.86 727.655 575.736 704.376C600.456 686.324 622.066 664.195 640.111 639.505C650.487 625.307 659.594 610.282 667.83 594.757C668.643 593.328 668.165 591.507 666.736 590.694C666.022 590.287 665.189 590.211 664.455 590.413Z" fill="#ffffff" fill-rule="nonzero" opacity="1" stroke="none"/>
<path d="M690.893 516.916C682.522 516.648 673.966 518.012 666.08 519.947C657.169 522.133 648.539 525.214 640.049 528.666C629.812 532.827 619.885 537.779 610.174 543.04C590.233 553.842 570.905 566.01 552.611 579.413C551.303 580.284 550.958 582.042 551.83 583.35C552.702 584.658 554.46 585.003 555.767 584.131C573.678 573.716 592.285 564.417 611.33 556.258C627.851 549.18 644.945 542.852 662.58 539.196C672.159 537.21 682.379 535.821 692.111 537.415C697.26 538.258 702.427 540.06 706.236 543.759C707.881 545.355 709.211 547.243 710.393 549.196C715.591 557.787 716.262 568.457 715.893 578.257C715.802 580.663 715.645 583.077 715.424 585.475C714.134 599.471 710.985 613.21 707.205 626.723C701.847 645.879 694.978 664.569 687.611 683.034C698.191 663.48 708.205 643.528 716.486 622.879C722.254 608.498 727.387 593.649 730.049 578.35C732.9 561.964 733.549 542.046 721.205 529.134C719.215 527.052 716.97 525.225 714.549 523.666C707.417 519.073 699.263 517.183 690.893 516.916Z" fill="#ffffff" fill-rule="nonzero" opacity="1" stroke="none"/>
</g>
<path d="M509.343 157.163C504.603 157.351 499.867 157.749 495.199 158.414C466.504 162.496 439.48 174.292 415.233 189.924C377.664 214.144 346.178 247.525 319.53 283.173C309.243 296.934 299.623 311.189 290.648 325.842C284.645 335.645 278.87 345.632 273.662 355.883C271.491 359.879 272.981 364.869 276.973 367.043C280.963 369.217 285.948 367.726 288.119 363.73C297.44 348.748 307.622 334.348 318.469 320.435C326.187 310.534 334.23 300.87 342.637 291.55C363.963 267.907 387.62 245.971 414.265 228.436C433.115 216.031 453.544 205.78 475.402 199.927C485.24 197.293 495.303 195.604 505.44 194.675C511.494 194.121 517.509 194.062 523.581 194.113C528.409 194.152 533.23 194.372 538.038 194.831C551.19 196.089 564.088 199.397 576.382 204.209C603.602 214.866 627.712 232.654 648.853 252.6C682.43 284.278 709.72 322.086 733.97 361.198C735.998 364.714 740.481 365.916 743.993 363.886C747.505 361.856 748.706 357.368 746.678 353.851C739.151 339.778 731.305 325.885 722.917 312.307C716.155 301.362 709.067 290.601 701.622 280.109C696.192 272.457 690.556 264.963 684.698 257.633C652.355 217.163 611.867 180.81 561.707 164.791C553.973 162.321 546.046 160.324 538.038 158.976C533.258 158.172 528.393 157.513 523.55 157.257C518.843 157.008 514.083 156.975 509.343 157.163Z" fill="#11353e" fill-rule="nonzero" opacity="1" stroke="none"/>
</g>
<g fill="#0d1c26" opacity="1" stroke="none">
<path clip-path="url(#TextBounds)" d="M1379.21 853.262C1343.47 789.796 1304.81 727.129 1263.21 665.262C1221.61 603.396 1177.34 544.996 1130.41 490.062L1130.41 853.262L1007.21 853.262L1007.21 298.862L1108.81 298.862C1126.41 316.462 1145.87 338.062 1167.21 363.662C1188.54 389.262 1210.27 416.596 1232.41 445.662C1254.54 474.729 1276.54 504.862 1298.41 536.062C1320.27 567.262 1340.81 597.262 1360.01 626.062L1360.01 298.862L1484.01 298.862L1484.01 853.262L1379.21 853.262Z"/>
<path clip-path="url(#TextBounds)" d="M1584.01 646.062C1584.01 608.729 1589.74 576.062 1601.21 548.062C1612.67 520.062 1627.74 496.729 1646.41 478.062C1665.07 459.396 1686.54 445.262 1710.81 435.662C1735.07 426.062 1760.01 421.262 1785.61 421.262C1845.34 421.262 1892.54 439.529 1927.21 476.062C1961.87 512.596 1979.21 566.329 1979.21 637.262C1979.21 644.196 1978.94 651.796 1978.41 660.062C1977.87 668.329 1977.34 675.662 1976.81 682.062L1706.41 682.062C1709.07 706.596 1720.54 726.062 1740.81 740.462C1761.07 754.862 1788.27 762.062 1822.41 762.062C1844.27 762.062 1865.74 760.062 1886.81 756.062C1907.87 752.062 1925.07 747.129 1938.41 741.262L1954.41 838.062C1948.01 841.262 1939.47 844.462 1928.81 847.662C1918.14 850.862 1906.27 853.662 1893.21 856.062C1880.14 858.462 1866.14 860.462 1851.21 862.062C1836.27 863.662 1821.34 864.462 1806.41 864.462C1768.54 864.462 1735.61 858.862 1707.61 847.662C1679.61 836.462 1656.41 821.129 1638.01 801.662C1619.61 782.196 1606.01 759.129 1597.21 732.462C1588.41 705.796 1584.01 676.996 1584.01 646.062ZM1864.01 600.462C1863.47 590.329 1861.74 580.462 1858.81 570.862C1855.87 561.262 1851.34 552.729 1845.21 545.262C1839.07 537.796 1831.34 531.662 1822.01 526.862C1812.67 522.062 1801.07 519.662 1787.21 519.662C1773.87 519.662 1762.41 521.929 1752.81 526.462C1743.21 530.996 1735.21 536.996 1728.81 544.462C1722.41 551.929 1717.47 560.596 1714.01 570.462C1710.54 580.329 1708.01 590.329 1706.41 600.462L1864.01 600.462Z"/>
<path clip-path="url(#TextBounds)" d="M2327.21 611.662C2316.54 652.196 2305.21 692.462 2293.21 732.462C2281.21 772.462 2268.54 812.729 2255.21 853.262L2162.41 853.262C2152.81 830.862 2142.41 804.196 2131.21 773.262C2120.01 742.329 2108.41 708.596 2096.41 672.062C2084.41 635.529 2072.14 596.862 2059.61 556.062C2047.07 515.262 2034.94 474.062 2023.21 432.462L2148.81 432.462C2153.07 451.662 2157.74 472.596 2162.81 495.262C2167.87 517.929 2173.21 541.262 2178.81 565.262C2184.41 589.262 2190.27 613.396 2196.41 637.662C2202.54 661.929 2208.81 685.262 2215.21 707.662C2222.14 684.196 2228.94 660.196 2235.61 635.662C2242.27 611.129 2248.67 586.996 2254.81 563.262C2260.94 539.529 2266.81 516.596 2272.41 494.462C2278.01 472.329 2282.94 451.662 2287.21 432.462L2373.61 432.462C2377.87 451.662 2382.67 472.329 2388.01 494.462C2393.34 516.596 2398.94 539.529 2404.81 563.262C2410.67 586.996 2416.81 611.129 2423.21 635.662C2429.61 660.196 2436.27 684.196 2443.21 707.662C2449.61 685.262 2456.01 661.929 2462.41 637.662C2468.81 613.396 2474.81 589.262 2480.41 565.262C2486.01 541.262 2491.34 517.929 2496.41 495.262C2501.47 472.596 2506.14 451.662 2510.41 432.462L2634.41 432.462C2622.67 474.062 2610.54 515.262 2598.01 556.062C2585.47 596.862 2573.21 635.529 2561.21 672.062C2549.21 708.596 2537.47 742.329 2526.01 773.262C2514.54 804.196 2504.01 830.862 2494.41 853.262L2401.61 853.262C2388.27 812.729 2375.21 772.462 2362.41 732.462C2349.61 692.462 2337.87 652.196 2327.21 611.662Z"/>
<path clip-path="url(#TextBounds)" d="M3117.61 298.862L3117.61 405.262L2950.41 405.262L2950.41 853.262L2825.61 853.262L2825.61 405.262L2658.41 405.262L2658.41 298.862L3117.61 298.862Z"/>
<path clip-path="url(#TextBounds)" d="M3109.61 646.062C3109.61 608.729 3115.34 576.062 3126.81 548.062C3138.27 520.062 3153.34 496.729 3172.01 478.062C3190.67 459.396 3212.14 445.262 3236.41 435.662C3260.67 426.062 3285.61 421.262 3311.21 421.262C3370.94 421.262 3418.14 439.529 3452.81 476.062C3487.47 512.596 3504.81 566.329 3504.81 637.262C3504.81 644.196 3504.54 651.796 3504.01 660.062C3503.47 668.329 3502.94 675.662 3502.41 682.062L3232.01 682.062C3234.67 706.596 3246.14 726.062 3266.41 740.462C3286.67 754.862 3313.87 762.062 3348.01 762.062C3369.87 762.062 3391.34 760.062 3412.41 756.062C3433.47 752.062 3450.67 747.129 3464.01 741.262L3480.01 838.062C3473.61 841.262 3465.07 844.462 3454.41 847.662C3443.74 850.862 3431.87 853.662 3418.81 856.062C3405.74 858.462 3391.74 860.462 3376.81 862.062C3361.87 863.662 3346.94 864.462 3332.01 864.462C3294.14 864.462 3261.21 858.862 3233.21 847.662C3205.21 836.462 3182.01 821.129 3163.61 801.662C3145.21 782.196 3131.61 759.129 3122.81 732.462C3114.01 705.796 3109.61 676.996 3109.61 646.062ZM3389.61 600.462C3389.07 590.329 3387.34 580.462 3384.41 570.862C3381.47 561.262 3376.94 552.729 3370.81 545.262C3364.67 537.796 3356.94 531.662 3347.61 526.862C3338.27 522.062 3326.67 519.662 3312.81 519.662C3299.47 519.662 3288.01 521.929 3278.41 526.462C3268.81 530.996 3260.81 536.996 3254.41 544.462C3248.01 551.929 3243.07 560.596 3239.61 570.462C3236.14 580.329 3233.61 590.329 3232.01 600.462L3389.61 600.462Z"/>
<path clip-path="url(#TextBounds)" d="M3576.81 642.862C3576.81 612.462 3581.74 583.796 3591.61 556.862C3601.47 529.929 3615.74 506.462 3634.41 486.462C3653.07 466.462 3675.74 450.596 3702.41 438.862C3729.07 427.129 3759.47 421.262 3793.61 421.262C3816.01 421.262 3836.54 423.262 3855.21 427.262C3873.87 431.262 3892.01 436.996 3909.61 444.462L3884.81 539.662C3873.61 535.396 3861.34 531.662 3848.01 528.462C3834.67 525.262 3819.74 523.662 3803.21 523.662C3768.01 523.662 3741.74 534.596 3724.41 556.462C3707.07 578.329 3698.41 607.129 3698.41 642.862C3698.41 680.729 3706.54 710.062 3722.81 730.862C3739.07 751.662 3767.47 762.062 3808.01 762.062C3822.41 762.062 3837.87 760.729 3854.41 758.062C3870.94 755.396 3886.14 751.129 3900.01 745.262L3916.81 842.862C3902.94 848.729 3885.61 853.796 3864.81 858.062C3844.01 862.329 3821.07 864.462 3796.01 864.462C3757.61 864.462 3724.54 858.729 3696.81 847.262C3669.07 835.796 3646.27 820.196 3628.41 800.462C3610.54 780.729 3597.47 757.396 3589.21 730.462C3580.94 703.529 3576.81 674.329 3576.81 642.862Z"/>
<path clip-path="url(#TextBounds)" d="M3996.81 853.262L3996.81 251.662L4116.01 232.462L4116.01 434.062C4124.01 431.396 4134.27 428.862 4146.81 426.462C4159.34 424.062 4171.47 422.862 4183.21 422.862C4217.34 422.862 4245.74 427.529 4268.41 436.862C4291.07 446.196 4309.21 459.396 4322.81 476.462C4336.41 493.529 4346.01 513.796 4351.61 537.262C4357.21 560.729 4360.01 586.862 4360.01 615.662L4360.01 853.262L4240.81 853.262L4240.81 630.062C4240.81 591.662 4235.87 564.462 4226.01 548.462C4216.14 532.462 4197.87 524.462 4171.21 524.462C4160.54 524.462 4150.54 525.396 4141.21 527.262C4131.87 529.129 4123.47 531.129 4116.01 533.262L4116.01 853.262L3996.81 853.262Z"/>
</g>
</g>
</g>
</svg>
