<?xml version="1.0" encoding="UTF-8" standalone="no"?>
<!DOCTYPE svg PUBLIC "-//W3C//DTD SVG 1.1//EN" "http://www.w3.org/Graphics/SVG/1.1/DTD/svg11.dtd">
<!-- Created with Vectornator (http://vectornator.io/) -->
<svg height="100%" stroke-miterlimit="10" style="fill-rule:nonzero;clip-rule:evenodd;stroke-linecap:round;stroke-linejoin:round;" version="1.1" viewBox="0 0 3572.98 1024" width="100%" xml:space="preserve" xmlns="http://www.w3.org/2000/svg" xmlns:vectornator="http://vectornator.io" xmlns:xlink="http://www.w3.org/1999/xlink">
<defs>
<clipPath id="TextBounds">
<rect height="920.4" width="2696.55" x="896.379" y="71.5941"/>
</clipPath>
<clipPath id="TextBounds_2">
<rect height="1" width="0" x="528.138" y="389.923"/>
</clipPath>
</defs>
<g id="Layer-1" vectornator:layerName="Layer 1">
<g fill="#000000" opacity="1" stroke="none">
<path clip-path="url(#TextBounds)" d="M1066.68 539.994C1066.68 567.194 1070.01 591.727 1076.68 613.594C1083.35 635.461 1092.95 654.261 1105.48 669.994C1118.01 685.727 1133.35 697.861 1151.48 706.394C1169.61 714.927 1190.41 719.194 1213.88 719.194C1236.81 719.194 1257.48 714.927 1275.88 706.394C1294.28 697.861 1309.75 685.727 1322.28 669.994C1334.81 654.261 1344.41 635.461 1351.08 613.594C1357.75 591.727 1361.08 567.194 1361.08 539.994C1361.08 512.794 1357.75 488.127 1351.08 465.994C1344.41 443.861 1334.81 424.927 1322.28 409.194C1309.75 393.461 1294.28 381.327 1275.88 372.794C1257.48 364.261 1236.81 359.994 1213.88 359.994C1190.41 359.994 1169.61 364.394 1151.48 373.194C1133.35 381.994 1118.01 394.261 1105.48 409.994C1092.95 425.727 1083.35 444.661 1076.68 466.794C1070.01 488.927 1066.68 513.327 1066.68 539.994ZM1489.88 539.994C1489.88 587.461 1482.81 629.194 1468.68 665.194C1454.55 701.194 1435.21 731.327 1410.68 755.594C1386.15 779.861 1356.95 798.127 1323.08 810.394C1289.21 822.661 1252.81 828.794 1213.88 828.794C1176.01 828.794 1140.28 822.661 1106.68 810.394C1073.08 798.127 1043.75 779.861 1018.68 755.594C993.612 731.327 973.879 701.194 959.479 665.194C945.079 629.194 937.879 587.461 937.879 539.994C937.879 492.527 945.346 450.794 960.279 414.794C975.212 378.794 995.346 348.527 1020.68 323.994C1046.01 299.461 1075.35 281.061 1108.68 268.794C1142.01 256.527 1177.08 250.394 1213.88 250.394C1251.75 250.394 1287.48 256.527 1321.08 268.794C1354.68 281.061 1384.01 299.461 1409.08 323.994C1434.15 348.527 1453.88 378.794 1468.28 414.794C1482.68 450.794 1489.88 492.527 1489.88 539.994Z"/>
<path clip-path="url(#TextBounds)" d="M1839.48 502.394C1828.81 499.727 1816.28 496.927 1801.88 493.994C1787.48 491.061 1772.01 489.594 1755.48 489.594C1748.01 489.594 1739.08 490.261 1728.68 491.594C1718.28 492.927 1710.41 494.394 1705.08 495.994L1705.08 817.594L1585.88 817.594L1585.88 419.194C1607.21 411.727 1632.41 404.661 1661.48 397.994C1690.55 391.327 1722.95 387.994 1758.68 387.994C1765.08 387.994 1772.81 388.394 1781.88 389.194C1790.95 389.994 1800.01 391.061 1809.08 392.394C1818.15 393.727 1827.21 395.327 1836.28 397.194C1845.35 399.061 1853.08 401.327 1859.48 403.994L1839.48 502.394Z"/>
<path clip-path="url(#TextBounds)" d="M2017.08 603.994C2017.08 640.794 2025.35 670.394 2041.88 692.794C2058.41 715.194 2082.95 726.394 2115.48 726.394C2126.15 726.394 2136.01 725.994 2145.08 725.194C2154.15 724.394 2161.61 723.461 2167.48 722.394L2167.48 505.594C2160.01 500.794 2150.28 496.794 2138.28 493.594C2126.28 490.394 2114.15 488.794 2101.88 488.794C2045.35 488.794 2017.08 527.194 2017.08 603.994ZM2286.68 803.994C2276.01 807.194 2263.75 810.261 2249.88 813.194C2236.01 816.127 2221.48 818.661 2206.28 820.794C2191.08 822.927 2175.61 824.661 2159.88 825.994C2144.15 827.327 2129.08 827.994 2114.68 827.994C2080.01 827.994 2049.08 822.927 2021.88 812.794C1994.68 802.661 1971.75 788.127 1953.08 769.194C1934.41 750.261 1920.15 727.327 1910.28 700.394C1900.41 673.461 1895.48 643.194 1895.48 609.594C1895.48 575.461 1899.75 544.661 1908.28 517.194C1916.81 489.727 1929.08 466.394 1945.08 447.194C1961.08 427.994 1980.68 413.327 2003.88 403.194C2027.08 393.061 2053.61 387.994 2083.48 387.994C2100.01 387.994 2114.81 389.594 2127.88 392.794C2140.95 395.994 2154.15 400.527 2167.48 406.394L2167.48 215.994L2286.68 196.794L2286.68 803.994Z"/>
<path clip-path="url(#TextBounds)" d="M2378.68 610.394C2378.68 573.061 2384.41 540.394 2395.88 512.394C2407.35 484.394 2422.41 461.061 2441.08 442.394C2459.75 423.727 2481.21 409.594 2505.48 399.994C2529.75 390.394 2554.68 385.594 2580.28 385.594C2640.01 385.594 2687.21 403.861 2721.88 440.394C2756.55 476.927 2773.88 530.661 2773.88 601.594C2773.88 608.527 2773.61 616.127 2773.08 624.394C2772.55 632.661 2772.01 639.994 2771.48 646.394L2501.08 646.394C2503.75 670.927 2515.21 690.394 2535.48 704.794C2555.75 719.194 2582.95 726.394 2617.08 726.394C2638.95 726.394 2660.41 724.394 2681.48 720.394C2702.55 716.394 2719.75 711.461 2733.08 705.594L2749.08 802.394C2742.68 805.594 2734.15 808.794 2723.48 811.994C2712.81 815.194 2700.95 817.994 2687.88 820.394C2674.81 822.794 2660.81 824.794 2645.88 826.394C2630.95 827.994 2616.01 828.794 2601.08 828.794C2563.21 828.794 2530.28 823.194 2502.28 811.994C2474.28 800.794 2451.08 785.461 2432.68 765.994C2414.28 746.527 2400.68 723.461 2391.88 696.794C2383.08 670.127 2378.68 641.327 2378.68 610.394ZM2658.68 564.794C2658.15 554.661 2656.41 544.794 2653.48 535.194C2650.55 525.594 2646.01 517.061 2639.88 509.594C2633.75 502.127 2626.01 495.994 2616.68 491.194C2607.35 486.394 2595.75 483.994 2581.88 483.994C2568.55 483.994 2557.08 486.261 2547.48 490.794C2537.88 495.327 2529.88 501.327 2523.48 508.794C2517.08 516.261 2512.15 524.927 2508.68 534.794C2505.21 544.661 2502.68 554.661 2501.08 564.794L2658.68 564.794Z"/>
<path clip-path="url(#TextBounds)" d="M3119.48 502.394C3108.81 499.727 3096.28 496.927 3081.88 493.994C3067.48 491.061 3052.01 489.594 3035.48 489.594C3028.01 489.594 3019.08 490.261 3008.68 491.594C2998.28 492.927 2990.41 494.394 2985.08 495.994L2985.08 817.594L2865.88 817.594L2865.88 419.194C2887.21 411.727 2912.41 404.661 2941.48 397.994C2970.55 391.327 3002.95 387.994 3038.68 387.994C3045.08 387.994 3052.81 388.394 3061.88 389.194C3070.95 389.994 3080.01 391.061 3089.08 392.394C3098.15 393.727 3107.21 395.327 3116.28 397.194C3125.35 399.061 3133.08 401.327 3139.48 403.994L3119.48 502.394Z"/>
<path clip-path="url(#TextBounds)" d="M3324.28 731.994C3346.15 731.994 3361.61 729.861 3370.68 725.594C3379.75 721.327 3384.28 713.061 3384.28 700.794C3384.28 691.194 3378.41 682.794 3366.68 675.594C3354.95 668.394 3337.08 660.261 3313.08 651.194C3294.41 644.261 3277.48 637.061 3262.28 629.594C3247.08 622.127 3234.15 613.194 3223.48 602.794C3212.81 592.394 3204.55 579.994 3198.68 565.594C3192.81 551.194 3189.88 533.861 3189.88 513.594C3189.88 474.127 3204.55 442.927 3233.88 419.994C3263.21 397.061 3303.48 385.594 3354.68 385.594C3380.28 385.594 3404.81 387.861 3428.28 392.394C3451.75 396.927 3470.41 401.861 3484.28 407.194L3463.48 499.994C3449.61 495.194 3434.55 490.927 3418.28 487.194C3402.01 483.461 3383.75 481.594 3363.48 481.594C3326.15 481.594 3307.48 491.994 3307.48 512.794C3307.48 517.594 3308.28 521.861 3309.88 525.594C3311.48 529.327 3314.68 532.927 3319.48 536.394C3324.28 539.861 3330.81 543.594 3339.08 547.594C3347.35 551.594 3357.88 555.994 3370.68 560.794C3396.81 570.394 3418.41 579.861 3435.48 589.194C3452.55 598.527 3466.01 608.661 3475.88 619.594C3485.75 630.527 3492.68 642.661 3496.68 655.994C3500.68 669.327 3502.68 684.794 3502.68 702.394C3502.68 743.994 3487.08 775.461 3455.88 796.794C3424.68 818.127 3380.55 828.794 3323.48 828.794C3286.15 828.794 3255.08 825.594 3230.28 819.194C3205.48 812.794 3188.28 807.461 3178.68 803.194L3198.68 706.394C3218.95 714.394 3239.75 720.661 3261.08 725.194C3282.41 729.727 3303.48 731.994 3324.28 731.994Z"/>
</g>
<g fill="#000000" opacity="1" stroke="none"/>
<path d="M388.431 572.389L297.846 481.804C292.411 476.369 286.07 473.652 278.824 473.652C271.577 473.652 265.236 476.369 259.801 481.804C254.366 487.239 251.648 493.58 251.648 500.827C251.648 508.074 254.366 514.415 259.801 519.85L369.408 631.269C374.239 636.704 380.429 639.422 387.978 639.422C395.527 639.422 402.019 636.704 407.454 631.269L620.328 418.395C625.159 413.564 627.575 407.223 627.575 399.372C627.575 391.522 625.159 384.879 620.328 379.444C614.893 374.612 608.25 372.197 600.399 372.197C592.549 372.197 586.208 374.612 581.376 379.444L388.431 572.389ZM168.31 839.614C153.213 839.614 140.38 834.33 129.812 823.762C119.244 813.193 113.959 800.361 113.959 785.263L113.959 241.755C113.959 226.657 119.244 213.825 129.812 203.256C140.38 192.688 153.213 187.404 168.31 187.404L354.009 187.404C357.028 166.268 366.691 148.906 382.996 135.318C399.301 121.73 418.324 114.936 440.064 114.936C461.805 114.936 480.827 121.73 497.133 135.318C513.438 148.906 523.1 166.268 526.12 187.404L711.818 187.404C726.916 187.404 739.749 192.688 750.317 203.256C760.885 213.825 766.169 226.657 766.169 241.755L766.169 785.263C766.169 800.361 760.885 813.193 750.317 823.762C739.749 834.33 726.916 839.614 711.818 839.614L168.31 839.614ZM440.064 226.356C448.519 226.356 455.917 223.185 462.258 216.844C468.599 210.503 471.769 203.105 471.769 194.651C471.769 186.196 468.599 178.799 462.258 172.458C455.917 166.117 448.519 162.946 440.064 162.946C431.61 162.946 424.212 166.117 417.871 172.458C411.53 178.799 408.36 186.196 408.36 194.651C408.36 203.105 411.53 210.503 417.871 216.844C424.212 223.185 431.61 226.356 440.064 226.356Z" fill="#000000" fill-rule="nonzero" opacity="1" stroke="none"/>
</g>
</svg>
