<?xml version="1.0" encoding="UTF-8" standalone="no"?>
<!DOCTYPE svg PUBLIC "-//W3C//DTD SVG 1.1//EN" "http://www.w3.org/Graphics/SVG/1.1/DTD/svg11.dtd">
<!-- Created with Vectornator (http://vectornator.io/) -->
<svg height="100%" stroke-miterlimit="10" style="fill-rule:nonzero;clip-rule:evenodd;stroke-linecap:round;stroke-linejoin:round;" version="1.1" viewBox="0 0 4578.02 1024" width="100%" xml:space="preserve" xmlns="http://www.w3.org/2000/svg" xmlns:vectornator="http://vectornator.io" xmlns:xlink="http://www.w3.org/1999/xlink">
<defs/>
<g id="Layer-1" vectornator:layerName="Layer 1">
<g opacity="1">
<g opacity="1">
<clipPath id="ClipPath">
<path d="M864.984 100.891L4572.33 100.891L4572.33 100.891L4572.33 908.891L4572.33 908.891L864.984 908.891L864.984 908.891L864.984 100.891L864.984 100.891Z"/>
</clipPath>
<g clip-path="url(#ClipPath)">
<path d="M1302.48 351.691C1308.88 373.558 1315.95 398.225 1323.68 425.691C1331.42 453.158 1339.68 481.558 1348.48 510.891C1357.28 540.225 1366.22 569.558 1375.28 598.891C1384.35 628.225 1393.15 655.425 1401.68 680.491C1408.62 653.291 1415.68 623.691 1422.88 591.691C1430.08 559.691 1436.88 526.625 1443.28 492.491C1449.68 458.358 1455.95 424.358 1462.08 390.491C1468.22 356.625 1473.95 323.958 1479.28 292.491L1608.88 292.491C1590.22 385.291 1568.75 479.425 1544.48 574.891C1520.22 670.358 1493.95 761.025 1465.68 846.891L1351.28 846.891C1332.62 795.691 1314.48 741.958 1296.88 685.691C1279.28 629.425 1261.95 573.025 1244.88 516.491C1227.82 573.025 1210.75 629.425 1193.68 685.691C1176.62 741.958 1158.75 795.691 1140.08 846.891L1025.68 846.891C997.424 761.025 971.154 670.358 946.884 574.891C922.624 479.425 901.154 385.291 882.484 292.491L1017.68 292.491C1023.02 323.958 1028.88 356.625 1035.28 390.491C1041.68 424.358 1048.35 458.358 1055.28 492.491C1062.22 526.625 1069.28 559.691 1076.48 591.691C1083.68 623.691 1091.02 653.291 1098.48 680.491C1108.08 654.358 1117.42 626.625 1126.48 597.291C1135.55 567.958 1144.35 538.625 1152.88 509.291C1161.42 479.958 1169.28 451.691 1176.48 424.491C1183.68 397.291 1190.22 373.025 1196.08 351.691L1302.48 351.691Z" fill="#000000" fill-rule="nonzero" opacity="1" stroke="none"/>
</g>
</g>
<g opacity="1">
<clipPath id="ClipPath_2">
<path d="M864.984 100.891L4572.33 100.891L4572.33 100.891L4572.33 908.891L4572.33 908.891L864.984 908.891L864.984 908.891L864.984 100.891L864.984 100.891Z"/>
</clipPath>
<g clip-path="url(#ClipPath_2)">
<path d="M1819.28 763.691C1831.02 763.691 1842.22 763.425 1852.88 762.891C1863.55 762.358 1872.08 761.558 1878.48 760.491L1878.48 670.091C1873.68 669.025 1866.48 667.958 1856.88 666.891C1847.28 665.825 1838.48 665.291 1830.48 665.291C1819.28 665.291 1808.75 665.958 1798.88 667.291C1789.02 668.625 1780.35 671.158 1772.88 674.891C1765.42 678.625 1759.55 683.691 1755.28 690.091C1751.02 696.491 1748.88 704.491 1748.88 714.091C1748.88 732.758 1755.15 745.691 1767.68 752.891C1780.22 760.091 1797.42 763.691 1819.28 763.691ZM1809.68 414.891C1844.88 414.891 1874.22 418.891 1897.68 426.891C1921.15 434.891 1939.95 446.358 1954.08 461.291C1968.22 476.225 1978.22 494.358 1984.08 515.691C1989.95 537.025 1992.88 560.758 1992.88 586.891L1992.88 834.891C1975.82 838.625 1952.08 843.025 1921.68 848.091C1891.28 853.158 1854.48 855.691 1811.28 855.691C1784.08 855.691 1759.42 853.291 1737.28 848.491C1715.15 843.691 1696.08 835.825 1680.08 824.891C1664.08 813.958 1651.82 799.691 1643.28 782.091C1634.75 764.491 1630.48 742.891 1630.48 717.291C1630.48 692.758 1635.42 671.958 1645.28 654.891C1655.15 637.825 1668.35 624.225 1684.88 614.091C1701.42 603.958 1720.35 596.625 1741.68 592.091C1763.02 587.558 1785.15 585.291 1808.08 585.291C1823.55 585.291 1837.28 585.958 1849.28 587.291C1861.28 588.625 1871.02 590.358 1878.48 592.491L1878.48 581.291C1878.48 561.025 1872.35 544.758 1860.08 532.491C1847.82 520.225 1826.48 514.091 1796.08 514.091C1775.82 514.091 1755.82 515.558 1736.08 518.491C1716.35 521.425 1699.28 525.558 1684.88 530.891L1669.68 434.891C1676.62 432.758 1685.28 430.491 1695.68 428.091C1706.08 425.691 1717.42 423.558 1729.68 421.691C1741.95 419.825 1754.88 418.225 1768.48 416.891C1782.08 415.558 1795.82 414.891 1809.68 414.891Z" fill="#000000" fill-rule="nonzero" opacity="1" stroke="none"/>
</g>
</g>
<g opacity="1">
<clipPath id="ClipPath_3">
<path d="M864.984 100.891L4572.33 100.891L4572.33 100.891L4572.33 908.891L4572.33 908.891L864.984 908.891L864.984 908.891L864.984 100.891L864.984 100.891Z"/>
</clipPath>
<g clip-path="url(#ClipPath_3)">
<path d="M2096.88 321.291L2216.08 302.091L2216.08 426.091L2359.28 426.091L2359.28 525.291L2216.08 525.291L2216.08 673.291C2216.08 698.358 2220.48 718.358 2229.28 733.291C2238.08 748.225 2255.82 755.691 2282.48 755.691C2295.28 755.691 2308.48 754.491 2322.08 752.091C2335.68 749.691 2348.08 746.358 2359.28 742.091L2376.08 834.891C2361.68 840.758 2345.68 845.825 2328.08 850.091C2310.48 854.358 2288.88 856.491 2263.28 856.491C2230.75 856.491 2203.82 852.091 2182.48 843.291C2161.15 834.491 2144.08 822.225 2131.28 806.491C2118.48 790.758 2109.55 771.691 2104.48 749.291C2099.42 726.891 2096.88 702.091 2096.88 674.891L2096.88 321.291Z" fill="#000000" fill-rule="nonzero" opacity="1" stroke="none"/>
</g>
</g>
<g opacity="1">
<clipPath id="ClipPath_4">
<path d="M864.984 100.891L4572.33 100.891L4572.33 100.891L4572.33 908.891L4572.33 908.891L864.984 908.891L864.984 908.891L864.984 100.891L864.984 100.891Z"/>
</clipPath>
<g clip-path="url(#ClipPath_4)">
<path d="M2420.08 636.491C2420.08 606.091 2425.02 577.425 2434.88 550.491C2444.75 523.558 2459.02 500.091 2477.68 480.091C2496.35 460.091 2519.02 444.225 2545.68 432.491C2572.35 420.758 2602.75 414.891 2636.88 414.891C2659.28 414.891 2679.82 416.891 2698.48 420.891C2717.15 424.891 2735.28 430.625 2752.88 438.091L2728.08 533.291C2716.88 529.025 2704.62 525.291 2691.28 522.091C2677.95 518.891 2663.02 517.291 2646.48 517.291C2611.28 517.291 2585.02 528.225 2567.68 550.091C2550.35 571.958 2541.68 600.758 2541.68 636.491C2541.68 674.358 2549.82 703.691 2566.08 724.491C2582.35 745.291 2610.75 755.691 2651.28 755.691C2665.68 755.691 2681.15 754.358 2697.68 751.691C2714.22 749.025 2729.42 744.758 2743.28 738.891L2760.08 836.491C2746.22 842.358 2728.88 847.425 2708.08 851.691C2687.28 855.958 2664.35 858.091 2639.28 858.091C2600.88 858.091 2567.82 852.358 2540.08 840.891C2512.35 829.425 2489.55 813.825 2471.68 794.091C2453.82 774.358 2440.75 751.025 2432.48 724.091C2424.22 697.158 2420.08 667.958 2420.08 636.491Z" fill="#000000" fill-rule="nonzero" opacity="1" stroke="none"/>
</g>
</g>
<g opacity="1">
<clipPath id="ClipPath_5">
<path d="M864.984 100.891L4572.33 100.891L4572.33 100.891L4572.33 908.891L4572.33 908.891L864.984 908.891L864.984 908.891L864.984 100.891L864.984 100.891Z"/>
</clipPath>
<g clip-path="url(#ClipPath_5)">
<path d="M2840.08 846.891L2840.08 245.291L2959.28 226.091L2959.28 427.691C2967.28 425.025 2977.55 422.491 2990.08 420.091C3002.62 417.691 3014.75 416.491 3026.48 416.491C3060.62 416.491 3089.02 421.158 3111.68 430.491C3134.35 439.825 3152.48 453.025 3166.08 470.091C3179.68 487.158 3189.28 507.425 3194.88 530.891C3200.48 554.358 3203.28 580.491 3203.28 609.291L3203.28 846.891L3084.08 846.891L3084.08 623.691C3084.08 585.291 3079.15 558.091 3069.28 542.091C3059.42 526.091 3041.15 518.091 3014.48 518.091C3003.82 518.091 2993.82 519.025 2984.48 520.891C2975.15 522.758 2966.75 524.758 2959.28 526.891L2959.28 846.891L2840.08 846.891Z" fill="#000000" fill-rule="nonzero" opacity="1" stroke="none"/>
</g>
</g>
<g opacity="1">
<clipPath id="ClipPath_6">
<path d="M864.984 100.891L4572.33 100.891L4572.33 100.891L4572.33 908.891L4572.33 908.891L864.984 908.891L864.984 908.891L864.984 100.891L864.984 100.891Z"/>
</clipPath>
<g clip-path="url(#ClipPath_6)">
<path d="M3479.28 854.891C3444.62 854.358 3416.48 850.625 3394.88 843.691C3373.28 836.758 3356.22 827.025 3343.68 814.491C3331.15 801.958 3322.62 786.758 3318.08 768.891C3313.55 751.025 3311.28 730.891 3311.28 708.491L3311.28 245.291L3430.48 226.091L3430.48 684.491C3430.48 695.158 3431.28 704.758 3432.88 713.291C3434.48 721.825 3437.55 729.025 3442.08 734.891C3446.62 740.758 3453.15 745.558 3461.68 749.291C3470.22 753.025 3481.68 755.425 3496.08 756.491L3479.28 854.891Z" fill="#000000" fill-rule="nonzero" opacity="1" stroke="none"/>
</g>
</g>
<g opacity="1">
<clipPath id="ClipPath_7">
<path d="M864.984 100.891L4572.33 100.891L4572.33 100.891L4572.33 908.891L4572.33 908.891L864.984 908.891L864.984 908.891L864.984 100.891L864.984 100.891Z"/>
</clipPath>
<g clip-path="url(#ClipPath_7)">
<path d="M3683.28 846.891L3564.08 846.891L3564.08 426.091L3683.28 426.091L3683.28 846.891ZM3694.48 304.491C3694.48 326.358 3687.42 343.558 3673.28 356.091C3659.15 368.625 3642.48 374.891 3623.28 374.891C3604.08 374.891 3587.42 368.625 3573.28 356.091C3559.15 343.558 3552.08 326.358 3552.08 304.491C3552.08 282.625 3559.15 265.425 3573.28 252.891C3587.42 240.358 3604.08 234.091 3623.28 234.091C3642.48 234.091 3659.15 240.358 3673.28 252.891C3687.42 265.425 3694.48 282.625 3694.48 304.491Z" fill="#000000" fill-rule="nonzero" opacity="1" stroke="none"/>
</g>
</g>
<g opacity="1">
<clipPath id="ClipPath_8">
<path d="M864.984 100.891L4572.33 100.891L4572.33 100.891L4572.33 908.891L4572.33 908.891L864.984 908.891L864.984 908.891L864.984 100.891L864.984 100.891Z"/>
</clipPath>
<g clip-path="url(#ClipPath_8)">
<path d="M3916.08 761.291C3937.95 761.291 3953.42 759.158 3962.48 754.891C3971.55 750.625 3976.08 742.358 3976.08 730.091C3976.08 720.491 3970.22 712.091 3958.48 704.891C3946.75 697.691 3928.88 689.558 3904.88 680.491C3886.22 673.558 3869.28 666.358 3854.08 658.891C3838.88 651.425 3825.95 642.491 3815.28 632.091C3804.62 621.691 3796.35 609.291 3790.48 594.891C3784.62 580.491 3781.68 563.158 3781.68 542.891C3781.68 503.425 3796.35 472.225 3825.68 449.291C3855.02 426.358 3895.28 414.891 3946.48 414.891C3972.08 414.891 3996.62 417.158 4020.08 421.691C4043.55 426.225 4062.22 431.158 4076.08 436.491L4055.28 529.291C4041.42 524.491 4026.35 520.225 4010.08 516.491C3993.82 512.758 3975.55 510.891 3955.28 510.891C3917.95 510.891 3899.28 521.291 3899.28 542.091C3899.28 546.891 3900.08 551.158 3901.68 554.891C3903.28 558.625 3906.48 562.225 3911.28 565.691C3916.08 569.158 3922.62 572.891 3930.88 576.891C3939.15 580.891 3949.68 585.291 3962.48 590.091C3988.62 599.691 4010.22 609.158 4027.28 618.491C4044.35 627.825 4057.82 637.958 4067.68 648.891C4077.55 659.825 4084.48 671.958 4088.48 685.291C4092.48 698.625 4094.48 714.091 4094.48 731.691C4094.48 773.291 4078.88 804.758 4047.68 826.091C4016.48 847.425 3972.35 858.091 3915.28 858.091C3877.95 858.091 3846.88 854.891 3822.08 848.491C3797.28 842.091 3780.08 836.758 3770.48 832.491L3790.48 735.691C3810.75 743.691 3831.55 749.958 3852.88 754.491C3874.22 759.025 3895.28 761.291 3916.08 761.291Z" fill="#000000" fill-rule="nonzero" opacity="1" stroke="none"/>
</g>
</g>
<g opacity="1">
<clipPath id="ClipPath_9">
<path d="M864.984 100.891L4572.33 100.891L4572.33 100.891L4572.33 908.891L4572.33 908.891L864.984 908.891L864.984 908.891L864.984 100.891L864.984 100.891Z"/>
</clipPath>
<g clip-path="url(#ClipPath_9)">
<path d="M4179.28 321.291L4298.48 302.091L4298.48 426.091L4441.68 426.091L4441.68 525.291L4298.48 525.291L4298.48 673.291C4298.48 698.358 4302.88 718.358 4311.68 733.291C4320.48 748.225 4338.22 755.691 4364.88 755.691C4377.68 755.691 4390.88 754.491 4404.48 752.091C4418.08 749.691 4430.48 746.358 4441.68 742.091L4458.48 834.891C4444.08 840.758 4428.08 845.825 4410.48 850.091C4392.88 854.358 4371.28 856.491 4345.68 856.491C4313.15 856.491 4286.22 852.091 4264.88 843.291C4243.55 834.491 4226.48 822.225 4213.68 806.491C4200.88 790.758 4191.95 771.691 4186.88 749.291C4181.82 726.891 4179.28 702.091 4179.28 674.891L4179.28 321.291Z" fill="#000000" fill-rule="nonzero" opacity="1" stroke="none"/>
</g>
</g>
</g>
<path d="M375.334 841.824L341.688 811.461C283.696 758.393 235.825 712.574 198.076 674.004C160.327 635.434 130.237 600.967 107.806 570.604C85.3748 540.24 69.6458 512.749 60.6188 488.13C51.5918 463.51 47.0788 438.618 47.0788 413.452C47.0788 364.213 63.6278 323.045 96.7268 289.946C129.826 256.847 170.721 240.297 219.413 240.297C250.597 240.297 279.456 247.683 305.99 262.454C332.524 277.226 355.638 298.562 375.334 326.464C398.312 296.921 422.657 275.174 448.37 261.223C474.084 247.272 501.712 240.297 531.255 240.297C579.946 240.297 620.841 256.847 653.94 289.946C687.039 323.045 703.584 364.213 703.584 413.452C703.584 438.618 699.075 463.51 690.048 488.13C681.021 512.749 665.292 540.24 642.861 570.604C620.431 600.967 590.341 635.434 552.591 674.004C514.842 712.574 466.972 758.393 408.98 811.461L375.334 841.824Z" fill="#000000" fill-rule="nonzero" opacity="1" stroke="none"/>
</g>
</svg>
