<?xml version="1.0" encoding="UTF-8" standalone="no"?>
<!DOCTYPE svg PUBLIC "-//W3C//DTD SVG 1.1//EN" "http://www.w3.org/Graphics/SVG/1.1/DTD/svg11.dtd">
<!-- Created with Vectornator (http://vectornator.io/) -->
<svg height="100%" stroke-miterlimit="10" style="fill-rule:nonzero;clip-rule:evenodd;stroke-linecap:round;stroke-linejoin:round;" version="1.1" viewBox="0 0 44 42" width="100%" xml:space="preserve" xmlns="http://www.w3.org/2000/svg" xmlns:vectornator="http://vectornator.io" xmlns:xlink="http://www.w3.org/1999/xlink">
<defs/>
<g id="Untitled" vectornator:layerName="Untitled">
<path d="M21.9872 31.6968C24.3872 31.6968 26.4039 30.8801 28.0372 29.2468C29.6706 27.6135 30.4872 25.5801 30.4872 23.1468C30.4872 20.7468 29.6706 18.7385 28.0372 17.1218C26.4039 15.5051 24.3872 14.6968 21.9872 14.6968C19.5539 14.6968 17.5289 15.5051 15.9122 17.1218C14.2956 18.7385 13.4872 20.7468 13.4872 23.1468C13.4872 25.5801 14.2956 27.6135 15.9122 29.2468C17.5289 30.8801 19.5539 31.6968 21.9872 31.6968ZM4.98722 38.9968C4.18722 38.9968 3.48722 38.6968 2.88722 38.0968C2.28722 37.4968 1.98722 36.7968 1.98722 35.9968L1.98722 10.3468C1.98722 9.58013 2.28722 8.88846 2.88722 8.27179C3.48722 7.65513 4.18722 7.34679 4.98722 7.34679L12.3372 7.34679L15.0872 4.04679C15.3539 3.68013 15.6872 3.41346 16.0872 3.24679C16.4872 3.08013 16.9206 2.99679 17.3872 2.99679L26.5872 2.99679C27.0539 2.99679 27.4872 3.08013 27.8872 3.24679C28.2872 3.41346 28.6205 3.68013 28.8872 4.04679L31.6372 7.34679L38.9872 7.34679C39.7539 7.34679 40.4456 7.65513 41.0622 8.27179C41.6789 8.88846 41.9872 9.58013 41.9872 10.3468L41.9872 35.9968C41.9872 36.7968 41.6789 37.4968 41.0622 38.0968C40.4456 38.6968 39.7539 38.9968 38.9872 38.9968L4.98722 38.9968ZM38.9872 35.9968L38.9872 10.3468L4.98722 10.3468L4.98722 35.9968L38.9872 35.9968Z" fill="#ebebeb" fill-rule="nonzero" opacity="1" stroke="none"/>
</g>
</svg>
