<?xml version="1.0" encoding="UTF-8" standalone="no"?>
<!DOCTYPE svg PUBLIC "-//W3C//DTD SVG 1.1//EN" "http://www.w3.org/Graphics/SVG/1.1/DTD/svg11.dtd">
<!-- Created with Vectornator (http://vectornator.io/) -->
<svg height="100%" stroke-miterlimit="10" style="fill-rule:nonzero;clip-rule:evenodd;stroke-linecap:round;stroke-linejoin:round;" version="1.1" viewBox="0 0 42.4 44" width="100%" xml:space="preserve" xmlns="http://www.w3.org/2000/svg" xmlns:vectornator="http://vectornator.io" xmlns:xlink="http://www.w3.org/1999/xlink">
<defs/>
<g id="Untitled" vectornator:layerName="Untitled">
<path d="M21.7 16.325L21.7 10.175L15.5 10.175L15.5 7.175L21.7 7.175L21.7 1.025L24.7 1.025L24.7 7.175L30.85 7.175L30.85 10.175L24.7 10.175L24.7 16.325L21.7 16.325ZM12.95 42.975C11.95 42.975 11.1 42.625 10.4 41.925C9.7 41.225 9.35 40.375 9.35 39.375C9.35 38.375 9.7 37.525 10.4 36.825C11.1 36.125 11.95 35.775 12.95 35.775C13.95 35.775 14.8 36.125 15.5 36.825C16.2 37.525 16.55 38.375 16.55 39.375C16.55 40.375 16.2 41.225 15.5 41.925C14.8 42.625 13.95 42.975 12.95 42.975ZM33.15 42.975C32.15 42.975 31.3 42.625 30.6 41.925C29.9 41.225 29.55 40.375 29.55 39.375C29.55 38.375 29.9 37.525 30.6 36.825C31.3 36.125 32.15 35.775 33.15 35.775C34.15 35.775 35 36.125 35.7 36.825C36.4 37.525 36.75 38.375 36.75 39.375C36.75 40.375 36.4 41.225 35.7 41.925C35 42.625 34.15 42.975 33.15 42.975ZM12.95 32.625C11.55 32.625 10.525 32.0583 9.875 30.925C9.225 29.7917 9.23333 28.6417 9.9 27.475L12.95 21.925L5.45 5.975L1.55 5.975L1.55 2.975L7.35 2.975L15.85 21.175L30.45 21.175L38.25 7.175L40.85 8.575L33.2 22.425C32.9 22.9917 32.4917 23.425 31.975 23.725C31.4583 24.025 30.85 24.175 30.15 24.175L15.15 24.175L12.05 29.625L36.75 29.625L36.75 32.625L12.95 32.625Z" fill="#ebebeb" fill-rule="nonzero" opacity="1" stroke="none"/>
</g>
</svg>
