<?xml version="1.0" encoding="UTF-8" standalone="no"?>
<!DOCTYPE svg PUBLIC "-//W3C//DTD SVG 1.1//EN" "http://www.w3.org/Graphics/SVG/1.1/DTD/svg11.dtd">
<!-- Created with Vectornator (http://vectornator.io/) -->
<svg height="100%" stroke-miterlimit="10" style="fill-rule:nonzero;clip-rule:evenodd;stroke-linecap:round;stroke-linejoin:round;" version="1.1" viewBox="0 0 42 42" width="100%" xml:space="preserve" xmlns="http://www.w3.org/2000/svg" xmlns:vectornator="http://vectornator.io" xmlns:xlink="http://www.w3.org/1999/xlink">
<defs/>
<g id="Untitled" vectornator:layerName="Untitled">
<path d="M18.15 30.55L32 16.7L29.85 14.55L18.15 26.25L12.1 20.2L10 22.3L18.15 30.55ZM6 41C5.16667 41 4.45833 40.7083 3.875 40.125C3.29167 39.5417 3 38.8333 3 38L3 8C3 7.16667 3.29167 6.45833 3.875 5.875C4.45833 5.29167 5.16667 5 6 5L16.25 5C16.4167 3.83333 16.95 2.875 17.85 2.125C18.75 1.375 19.8 1 21 1C22.2 1 23.25 1.375 24.15 2.125C25.05 2.875 25.5833 3.83333 25.75 5L36 5C36.8333 5 37.5417 5.29167 38.125 5.875C38.7083 6.45833 39 7.16667 39 8L39 38C39 38.8333 38.7083 39.5417 38.125 40.125C37.5417 40.7083 36.8333 41 36 41L6 41ZM6 38L36 38L36 8L6 8L6 38ZM21 7.15C21.4667 7.15 21.875 6.975 22.225 6.625C22.575 6.275 22.75 5.86667 22.75 5.4C22.75 4.93333 22.575 4.525 22.225 4.175C21.875 3.825 21.4667 3.65 21 3.65C20.5333 3.65 20.125 3.825 19.775 4.175C19.425 4.525 19.25 4.93333 19.25 5.4C19.25 5.86667 19.425 6.275 19.775 6.625C20.125 6.975 20.5333 7.15 21 7.15ZM6 38L6 8L6 38Z" fill="#ebebeb" fill-rule="nonzero" opacity="1" stroke="none"/>
</g>
</svg>
