<?xml version="1.0" encoding="UTF-8" standalone="no"?>
<!DOCTYPE svg PUBLIC "-//W3C//DTD SVG 1.1//EN" "http://www.w3.org/Graphics/SVG/1.1/DTD/svg11.dtd">
<!-- Created with Vectornator (http://vectornator.io/) -->
<svg height="100%" stroke-miterlimit="10" style="fill-rule:nonzero;clip-rule:evenodd;stroke-linecap:round;stroke-linejoin:round;" version="1.1" viewBox="0 0 42 42" width="100%" xml:space="preserve" xmlns="http://www.w3.org/2000/svg" xmlns:vectornator="http://vectornator.io" xmlns:xlink="http://www.w3.org/1999/xlink">
<defs/>
<g id="Untitled" vectornator:layerName="Untitled">
<path d="M36.75 39C32.6833 39 28.6417 38 24.625 36C20.6083 34 17 31.4 13.8 28.2C10.6 25 8 21.3917 6 17.375C4 13.3583 3 9.31667 3 5.25C3 4.61667 3.21667 4.08333 3.65 3.65C4.08333 3.21667 4.61667 3 5.25 3L12.25 3C12.7167 3 13.125 3.15833 13.475 3.475C13.825 3.79167 14.05 4.21667 14.15 4.75L15.5 11.05C15.5667 11.5167 15.5583 11.9417 15.475 12.325C15.3917 12.7083 15.2167 13.0333 14.95 13.3L9.95 18.35C11.8167 21.45 13.9083 24.15 16.225 26.45C18.5417 28.75 21.1667 30.7 24.1 32.3L28.85 27.4C29.1833 27.0333 29.5667 26.775 30 26.625C30.4333 26.475 30.8667 26.45 31.3 26.55L37.25 27.85C37.75 27.95 38.1667 28.2 38.5 28.6C38.8333 29 39 29.4667 39 30L39 36.75C39 37.3833 38.7833 37.9167 38.35 38.35C37.9167 38.7833 37.3833 39 36.75 39Z" fill="#00ccad" fill-rule="nonzero" opacity="1" stroke="none"/>
</g>
</svg>
