<?xml version="1.0" encoding="UTF-8" standalone="no"?>
<!DOCTYPE svg PUBLIC "-//W3C//DTD SVG 1.1//EN" "http://www.w3.org/Graphics/SVG/1.1/DTD/svg11.dtd">
<!-- Created with Vectornator (http://vectornator.io/) -->
<svg height="100%" stroke-miterlimit="10" style="fill-rule:nonzero;clip-rule:evenodd;stroke-linecap:round;stroke-linejoin:round;" version="1.1" viewBox="0 0 256 256" width="100%" xml:space="preserve" xmlns="http://www.w3.org/2000/svg" xmlns:vectornator="http://vectornator.io" xmlns:xlink="http://www.w3.org/1999/xlink">
<defs/>
<clipPath id="ArtboardFrame">
<rect height="256" width="256" x="0" y="0"/>
</clipPath>
<g clip-path="url(#ArtboardFrame)" id="Untitled" vectornator:layerName="Untitled">
<path d="M2.81224-0.10012C1.07858-0.10012-0.312764 1.16022-0.312764 2.71238L-0.312764 253.087C-0.312764 254.639 1.07858 255.899 2.81224 255.899L252.563 255.899C254.297 255.899 255.688 254.639 255.688 253.087L255.688 2.71238C255.688 1.16022 254.297-0.10012 252.563-0.10012L2.81224-0.10012Z" fill="#000000" fill-rule="nonzero" opacity="1" stroke="none"/>
<g opacity="1">
<path d="M27.8733 133.782C27.8733 77.6355 72.9273 32.1194 128.504 32.1194C184.081 32.1194 229.136 77.6355 229.136 133.782C229.136 189.929 184.081 235.445 128.504 235.445C72.9273 235.445 27.8733 189.929 27.8733 133.782Z" fill="#ffffff" fill-rule="nonzero" opacity="1" stroke="none"/>
<path d="M128.002 19.9895C67.9839 19.9895 19.3267 68.6419 19.3267 128.659C19.3267 182.894 59.0591 227.847 111.004 236.006L111.004 160.073L83.4294 160.073L83.4294 160.069L83.4095 160.069L83.4095 128.655L111.004 128.655L111.004 104.717C111.004 81.7308 122.562 67.431 141.09 63.5272C142.457 63.2393 143.862 63.0049 145.304 62.8309C146.033 62.7427 146.771 62.6706 147.517 62.6119C148.995 62.4962 150.505 62.433 152.049 62.433C153.445 62.433 154.849 62.4709 156.239 62.5224C156.33 62.5258 156.422 62.5239 156.511 62.5274C156.518 62.5275 156.522 62.5272 156.527 62.5274C156.769 62.5369 157.002 62.5563 157.244 62.5672C160.948 62.7337 164.477 63.0412 167.511 63.3731C167.89 63.4145 168.313 63.4557 168.675 63.4975C168.68 63.4979 168.686 63.497 168.689 63.4975C170.98 63.762 172.898 64.0253 174.246 64.2238C174.251 64.2245 174.262 64.228 174.267 64.2288C175.595 64.4246 176.376 64.557 176.376 64.557L176.395 64.5619L176.395 91.3054L162.691 91.3054C149.19 91.3054 144.98 99.6798 144.98 108.274L144.98 128.655L175.103 128.655L175.103 128.659L175.122 128.659L170.302 160.073L144.98 160.073L144.98 236.011C196.934 227.859 236.673 182.901 236.673 128.659C236.673 68.6419 188.021 19.9896 128.002 19.9895Z" fill="#000000" fill-rule="nonzero" opacity="1" stroke="none"/>
</g>
<path d="M110.998 225.044L144.97 225.044L144.97 279.965L110.998 279.965L110.998 225.044Z" fill="#ffffff" fill-rule="nonzero" opacity="1" stroke="none"/>
</g>
</svg>
