<?xml version="1.0" encoding="UTF-8" standalone="no"?>
<!DOCTYPE svg PUBLIC "-//W3C//DTD SVG 1.1//EN" "http://www.w3.org/Graphics/SVG/1.1/DTD/svg11.dtd">
<!-- Created with Vectornator (http://vectornator.io/) -->
<svg height="100%" stroke-miterlimit="10" style="fill-rule:nonzero;clip-rule:evenodd;stroke-linecap:round;stroke-linejoin:round;" version="1.1" viewBox="0 0 5735.84 1024" width="100%" xml:space="preserve" xmlns="http://www.w3.org/2000/svg" xmlns:vectornator="http://vectornator.io" xmlns:xlink="http://www.w3.org/1999/xlink">
<defs>
<clipPath id="TextBounds">
<rect height="808" width="4589.04" x="1135.03" y="104.883"/>
</clipPath>
</defs>
<g id="Layer-1" vectornator:layerName="Layer 1">
<g fill="#91bc00" opacity="1" stroke="none">
<path clip-path="url(#TextBounds)" d="M1534.93 296.483L1659.73 296.483L1659.73 850.883L1534.93 850.883L1534.93 615.683L1325.33 615.683L1325.33 850.883L1200.53 850.883L1200.53 296.483L1325.33 296.483L1325.33 508.483L1534.93 508.483L1534.93 296.483Z"/>
<path clip-path="url(#TextBounds)" d="M1759.73 643.683C1759.73 606.35 1765.47 573.683 1776.93 545.683C1788.4 517.683 1803.47 494.35 1822.13 475.683C1840.8 457.016 1862.27 442.883 1886.53 433.283C1910.8 423.683 1935.73 418.883 1961.33 418.883C2021.07 418.883 2068.27 437.15 2102.93 473.683C2137.6 510.216 2154.93 563.95 2154.93 634.883C2154.93 641.816 2154.67 649.416 2154.13 657.683C2153.6 665.95 2153.07 673.283 2152.53 679.683L1882.13 679.683C1884.8 704.216 1896.27 723.683 1916.53 738.083C1936.8 752.483 1964 759.683 1998.13 759.683C2020 759.683 2041.47 757.683 2062.53 753.683C2083.6 749.683 2100.8 744.75 2114.13 738.883L2130.13 835.683C2123.73 838.883 2115.2 842.083 2104.53 845.283C2093.87 848.483 2082 851.283 2068.93 853.683C2055.87 856.083 2041.87 858.083 2026.93 859.683C2012 861.283 1997.07 862.083 1982.13 862.083C1944.27 862.083 1911.33 856.483 1883.33 845.283C1855.33 834.083 1832.13 818.75 1813.73 799.283C1795.33 779.816 1781.73 756.75 1772.93 730.083C1764.13 703.416 1759.73 674.616 1759.73 643.683ZM2039.73 598.083C2039.2 587.95 2037.47 578.083 2034.53 568.483C2031.6 558.883 2027.07 550.35 2020.93 542.883C2014.8 535.416 2007.07 529.283 1997.73 524.483C1988.4 519.683 1976.8 517.283 1962.93 517.283C1949.6 517.283 1938.13 519.55 1928.53 524.083C1918.93 528.616 1910.93 534.616 1904.53 542.083C1898.13 549.55 1893.2 558.216 1889.73 568.083C1886.27 577.95 1883.73 587.95 1882.13 598.083L2039.73 598.083Z"/>
<path clip-path="url(#TextBounds)" d="M2414.93 858.883C2380.27 858.35 2352.13 854.616 2330.53 847.683C2308.93 840.75 2291.87 831.016 2279.33 818.483C2266.8 805.95 2258.27 790.75 2253.73 772.883C2249.2 755.016 2246.93 734.883 2246.93 712.483L2246.93 249.283L2366.13 230.083L2366.13 688.483C2366.13 699.15 2366.93 708.75 2368.53 717.283C2370.13 725.816 2373.2 733.016 2377.73 738.883C2382.27 744.75 2388.8 749.55 2397.33 753.283C2405.87 757.016 2417.33 759.416 2431.73 760.483L2414.93 858.883Z"/>
<path clip-path="url(#TextBounds)" d="M2769.33 643.683C2769.33 606.883 2761.07 577.416 2744.53 555.283C2728 533.15 2703.47 522.083 2670.93 522.083C2660.27 522.083 2650.4 522.483 2641.33 523.283C2632.27 524.083 2624.8 525.016 2618.93 526.083L2618.93 741.283C2626.4 746.083 2636.13 750.083 2648.13 753.283C2660.13 756.483 2672.27 758.083 2684.53 758.083C2741.07 758.083 2769.33 719.95 2769.33 643.683ZM2890.93 640.483C2890.93 673.016 2886.93 702.616 2878.93 729.283C2870.93 755.95 2859.2 778.883 2843.73 798.083C2828.27 817.283 2809.07 832.216 2786.13 842.883C2763.2 853.55 2736.8 858.883 2706.93 858.883C2690.4 858.883 2674.93 857.283 2660.53 854.083C2646.13 850.883 2632.27 846.35 2618.93 840.483L2618.93 998.883L2499.73 998.883L2499.73 444.483C2510.4 441.283 2522.67 438.216 2536.53 435.283C2550.4 432.35 2564.93 429.816 2580.13 427.683C2595.33 425.55 2610.8 423.816 2626.53 422.483C2642.27 421.15 2657.33 420.483 2671.73 420.483C2706.4 420.483 2737.33 425.683 2764.53 436.083C2791.73 446.483 2814.67 461.15 2833.33 480.083C2852 499.016 2866.27 522.083 2876.13 549.283C2886 576.483 2890.93 606.883 2890.93 640.483Z"/>
<path clip-path="url(#TextBounds)" d="M3435.73 862.083C3345.6 862.083 3276.93 837.016 3229.73 786.883C3182.53 736.75 3158.93 665.55 3158.93 573.283C3158.93 527.416 3166.13 486.483 3180.53 450.483C3194.93 414.483 3214.67 384.083 3239.73 359.283C3264.8 334.483 3294.67 315.683 3329.33 302.883C3364 290.083 3401.6 283.683 3442.13 283.683C3465.6 283.683 3486.93 285.416 3506.13 288.883C3525.33 292.35 3542.13 296.35 3556.53 300.883C3570.93 305.416 3582.93 310.083 3592.53 314.883C3602.13 319.683 3609.07 323.416 3613.33 326.083L3577.33 426.883C3560.27 417.816 3540.4 410.083 3517.73 403.683C3495.07 397.283 3469.33 394.083 3440.53 394.083C3421.33 394.083 3402.53 397.283 3384.13 403.683C3365.73 410.083 3349.47 420.35 3335.33 434.483C3321.2 448.616 3309.87 466.883 3301.33 489.283C3292.8 511.683 3288.53 538.883 3288.53 570.883C3288.53 596.483 3291.33 620.35 3296.93 642.483C3302.53 664.616 3311.6 683.683 3324.13 699.683C3336.67 715.683 3353.07 728.35 3373.33 737.683C3393.6 747.016 3418.13 751.683 3446.93 751.683C3465.07 751.683 3481.33 750.616 3495.73 748.483C3510.13 746.35 3522.93 743.816 3534.13 740.883C3545.33 737.95 3555.2 734.616 3563.73 730.883C3572.27 727.15 3580 723.683 3586.93 720.483L3621.33 820.483C3603.73 831.15 3578.93 840.75 3546.93 849.283C3514.93 857.816 3477.87 862.083 3435.73 862.083Z"/>
<path clip-path="url(#TextBounds)" d="M3663.73 643.683C3663.73 606.35 3669.47 573.683 3680.93 545.683C3692.4 517.683 3707.47 494.35 3726.13 475.683C3744.8 457.016 3766.27 442.883 3790.53 433.283C3814.8 423.683 3839.73 418.883 3865.33 418.883C3925.07 418.883 3972.27 437.15 4006.93 473.683C4041.6 510.216 4058.93 563.95 4058.93 634.883C4058.93 641.816 4058.67 649.416 4058.13 657.683C4057.6 665.95 4057.07 673.283 4056.53 679.683L3786.13 679.683C3788.8 704.216 3800.27 723.683 3820.53 738.083C3840.8 752.483 3868 759.683 3902.13 759.683C3924 759.683 3945.47 757.683 3966.53 753.683C3987.6 749.683 4004.8 744.75 4018.13 738.883L4034.13 835.683C4027.73 838.883 4019.2 842.083 4008.53 845.283C3997.87 848.483 3986 851.283 3972.93 853.683C3959.87 856.083 3945.87 858.083 3930.93 859.683C3916 861.283 3901.07 862.083 3886.13 862.083C3848.27 862.083 3815.33 856.483 3787.33 845.283C3759.33 834.083 3736.13 818.75 3717.73 799.283C3699.33 779.816 3685.73 756.75 3676.93 730.083C3668.13 703.416 3663.73 674.616 3663.73 643.683ZM3943.73 598.083C3943.2 587.95 3941.47 578.083 3938.53 568.483C3935.6 558.883 3931.07 550.35 3924.93 542.883C3918.8 535.416 3911.07 529.283 3901.73 524.483C3892.4 519.683 3880.8 517.283 3866.93 517.283C3853.6 517.283 3842.13 519.55 3832.53 524.083C3822.93 528.616 3814.93 534.616 3808.53 542.083C3802.13 549.55 3797.2 558.216 3793.73 568.083C3790.27 577.95 3787.73 587.95 3786.13 598.083L3943.73 598.083Z"/>
<path clip-path="url(#TextBounds)" d="M4150.93 444.483C4171.2 438.616 4197.33 433.15 4229.33 428.083C4261.33 423.016 4294.93 420.483 4330.13 420.483C4365.87 420.483 4395.6 425.15 4419.33 434.483C4443.07 443.816 4461.87 457.016 4475.73 474.083C4489.6 491.15 4499.47 511.416 4505.33 534.883C4511.2 558.35 4514.13 584.483 4514.13 613.283L4514.13 850.883L4394.93 850.883L4394.93 627.683C4394.93 589.283 4389.87 562.083 4379.73 546.083C4369.6 530.083 4350.67 522.083 4322.93 522.083C4314.4 522.083 4305.33 522.483 4295.73 523.283C4286.13 524.083 4277.6 525.016 4270.13 526.083L4270.13 850.883L4150.93 850.883L4150.93 444.483Z"/>
<path clip-path="url(#TextBounds)" d="M4618.13 325.283L4737.33 306.083L4737.33 430.083L4880.53 430.083L4880.53 529.283L4737.33 529.283L4737.33 677.283C4737.33 702.35 4741.73 722.35 4750.53 737.283C4759.33 752.216 4777.07 759.683 4803.73 759.683C4816.53 759.683 4829.73 758.483 4843.33 756.083C4856.93 753.683 4869.33 750.35 4880.53 746.083L4897.33 838.883C4882.93 844.75 4866.93 849.816 4849.33 854.083C4831.73 858.35 4810.13 860.483 4784.53 860.483C4752 860.483 4725.07 856.083 4703.73 847.283C4682.4 838.483 4665.33 826.216 4652.53 810.483C4639.73 794.75 4630.8 775.683 4625.73 753.283C4620.67 730.883 4618.13 706.083 4618.13 678.883L4618.13 325.283Z"/>
<path clip-path="url(#TextBounds)" d="M4941.33 643.683C4941.33 606.35 4947.07 573.683 4958.53 545.683C4970 517.683 4985.07 494.35 5003.73 475.683C5022.4 457.016 5043.87 442.883 5068.13 433.283C5092.4 423.683 5117.33 418.883 5142.93 418.883C5202.67 418.883 5249.87 437.15 5284.53 473.683C5319.2 510.216 5336.53 563.95 5336.53 634.883C5336.53 641.816 5336.27 649.416 5335.73 657.683C5335.2 665.95 5334.67 673.283 5334.13 679.683L5063.73 679.683C5066.4 704.216 5077.87 723.683 5098.13 738.083C5118.4 752.483 5145.6 759.683 5179.73 759.683C5201.6 759.683 5223.07 757.683 5244.13 753.683C5265.2 749.683 5282.4 744.75 5295.73 738.883L5311.73 835.683C5305.33 838.883 5296.8 842.083 5286.13 845.283C5275.47 848.483 5263.6 851.283 5250.53 853.683C5237.47 856.083 5223.47 858.083 5208.53 859.683C5193.6 861.283 5178.67 862.083 5163.73 862.083C5125.87 862.083 5092.93 856.483 5064.93 845.283C5036.93 834.083 5013.73 818.75 4995.33 799.283C4976.93 779.816 4963.33 756.75 4954.53 730.083C4945.73 703.416 4941.33 674.616 4941.33 643.683ZM5221.33 598.083C5220.8 587.95 5219.07 578.083 5216.13 568.483C5213.2 558.883 5208.67 550.35 5202.53 542.883C5196.4 535.416 5188.67 529.283 5179.33 524.483C5170 519.683 5158.4 517.283 5144.53 517.283C5131.2 517.283 5119.73 519.55 5110.13 524.083C5100.53 528.616 5092.53 534.616 5086.13 542.083C5079.73 549.55 5074.8 558.216 5071.33 568.083C5067.87 577.95 5065.33 587.95 5063.73 598.083L5221.33 598.083Z"/>
<path clip-path="url(#TextBounds)" d="M5682.13 535.683C5671.47 533.016 5658.93 530.216 5644.53 527.283C5630.13 524.35 5614.67 522.883 5598.13 522.883C5590.67 522.883 5581.73 523.55 5571.33 524.883C5560.93 526.216 5553.07 527.683 5547.73 529.283L5547.73 850.883L5428.53 850.883L5428.53 452.483C5449.87 445.016 5475.07 437.95 5504.13 431.283C5533.2 424.616 5565.6 421.283 5601.33 421.283C5607.73 421.283 5615.47 421.683 5624.53 422.483C5633.6 423.283 5642.67 424.35 5651.73 425.683C5660.8 427.016 5669.87 428.616 5678.93 430.483C5688 432.35 5695.73 434.616 5702.13 437.283L5682.13 535.683Z"/>
</g>
<path d="M487.004 913.512C477.264 913.512 469.207 910.327 462.839 903.958C456.47 897.59 453.285 889.534 453.285 879.793C453.285 870.053 456.47 861.997 462.839 855.628C469.207 849.26 477.264 846.075 487.004 846.075L835.43 846.075L835.43 504.393C835.43 460.934 826.063 419.159 807.331 379.072C788.599 338.985 763.496 303.58 732.026 272.858C700.555 242.137 664.588 217.597 624.126 199.239C583.664 180.881 541.702 171.702 498.243 171.702C454.784 171.702 412.823 180.881 372.36 199.239C331.898 217.597 295.931 242.137 264.461 272.858C232.99 303.58 207.888 338.985 189.156 379.072C170.423 419.159 161.057 460.934 161.057 504.393L161.057 756.158C161.057 762.154 158.996 767.398 154.875 771.894C150.754 776.39 145.322 778.638 138.578 778.638C113.851 778.638 92.683 769.832 75.0745 752.225C57.4659 734.617 48.6615 713.448 48.6615 688.721L48.6615 598.805C48.6615 581.57 52.7826 566.397 61.025 553.285C69.2675 540.173 80.1323 529.495 93.6197 521.252L96.9916 461.682C103.735 406.984 119.283 357.53 143.636 313.32C167.988 269.111 198.335 231.647 234.676 200.925C271.018 170.204 311.853 146.413 357.187 129.554C402.521 112.695 449.538 104.265 498.243 104.265C547.697 104.265 595.09 112.695 640.423 129.554C685.757 146.413 726.406 170.391 762.373 201.487C798.339 232.583 828.499 270.048 852.851 313.882C877.202 357.717 892.751 406.609 899.495 460.558L902.867 519.004C916.354 525.748 927.218 535.677 935.461 548.789C943.705 561.901 947.825 576.326 947.825 592.061L947.825 695.465C947.825 711.949 943.705 726.56 935.461 739.299C927.218 752.038 916.354 761.778 902.867 768.522L902.867 846.075C902.867 864.807 896.31 880.731 883.198 893.843C870.086 906.955 854.161 913.512 835.43 913.512L487.004 913.512ZM363.369 588.445C354.377 588.445 346.509 585.073 339.766 578.329C333.022 571.585 329.65 563.342 329.65 553.602C329.65 544.61 333.022 536.929 339.766 530.561C346.509 524.193 354.753 521.007 364.493 521.007C373.484 521.007 381.165 524.193 387.534 530.561C393.902 536.929 397.087 544.986 397.087 554.726C397.087 563.718 393.902 571.585 387.534 578.329C381.165 585.073 373.109 588.445 363.369 588.445ZM633.118 588.445C624.126 588.445 616.258 585.073 609.515 578.329C602.771 571.585 599.399 563.342 599.399 553.602C599.399 544.61 602.771 536.929 609.515 530.561C616.258 524.193 624.502 521.007 634.242 521.007C643.233 521.007 650.914 524.193 657.283 530.561C663.651 536.929 666.836 544.986 666.836 554.726C666.836 563.718 663.651 571.585 657.283 578.329C650.914 585.073 642.858 588.445 633.118 588.445ZM229.276 530.341C226.279 486.131 232.461 446.044 247.821 410.078C263.181 374.111 283.788 343.578 309.639 318.476C335.49 293.373 365.275 274.079 398.993 260.592C432.712 247.105 466.43 240.361 500.149 240.361C568.335 240.361 625.657 261.903 672.114 304.988C718.572 348.074 747.044 401.835 757.535 466.276C687.101 465.527 625.095 446.606 571.52 409.516C517.946 372.425 476.546 324.282 447.323 265.088C435.335 325.781 410.046 379.545 371.456 426.375C332.867 473.206 285.474 507.862 229.276 530.341Z" fill="#91bc00" fill-rule="nonzero" opacity="1" stroke="none"/>
</g>
</svg>
