<?xml version="1.0" encoding="UTF-8" standalone="no"?>
<!DOCTYPE svg PUBLIC "-//W3C//DTD SVG 1.1//EN" "http://www.w3.org/Graphics/SVG/1.1/DTD/svg11.dtd">
<!-- Created with Vectornator (http://vectornator.io/) -->
<svg height="100%" stroke-miterlimit="10" style="fill-rule:nonzero;clip-rule:evenodd;stroke-linecap:round;stroke-linejoin:round;" version="1.1" viewBox="0 0 42.8283 40" width="100%" xml:space="preserve" xmlns="http://www.w3.org/2000/svg" xmlns:vectornator="http://vectornator.io" xmlns:xlink="http://www.w3.org/1999/xlink">
<defs/>
<g id="Untitled" vectornator:layerName="Untitled">
<path d="M17.1583 36.75L8.90833 36.75C8.475 36.75 8.11667 36.6083 7.83333 36.325C7.55 36.0417 7.40833 35.6833 7.40833 35.25L7.40833 20.75L3.35833 20.75C3.025 20.75 2.79167 20.5917 2.65833 20.275C2.525 19.9583 2.59167 19.6833 2.85833 19.45L20.4083 3.65C20.675 3.38333 21.0083 3.25 21.4083 3.25C21.8083 3.25 22.1417 3.38333 22.4083 3.65L31.4083 11.6L31.4083 7.25C31.4083 6.81667 31.55 6.45833 31.8333 6.175C32.1167 5.89167 32.475 5.75 32.9083 5.75L33.9083 5.75C34.3417 5.75 34.7 5.89167 34.9833 6.175C35.2667 6.45833 35.4083 6.81667 35.4083 7.25L35.4083 15.3L39.9583 19.45C40.225 19.6833 40.3 19.9583 40.1833 20.275C40.0667 20.5917 39.825 20.75 39.4583 20.75L35.4083 20.75L35.4083 35.25C35.4083 35.6833 35.2667 36.0417 34.9833 36.325C34.7 36.6083 34.3417 36.75 33.9083 36.75L25.6583 36.75L25.6583 26.25C25.6583 25.8167 25.5167 25.4583 25.2333 25.175C24.95 24.8917 24.5917 24.75 24.1583 24.75L18.6583 24.75C18.225 24.75 17.8667 24.8917 17.5833 25.175C17.3 25.4583 17.1583 25.8167 17.1583 26.25L17.1583 36.75ZM17.1583 16.25L25.6583 16.25C25.6583 15.15 25.2333 14.2417 24.3833 13.525C23.5333 12.8083 22.5417 12.45 21.4083 12.45C20.275 12.45 19.2833 12.8083 18.4333 13.525C17.5833 14.2417 17.1583 15.15 17.1583 16.25Z" fill="#00ccad" fill-rule="nonzero" opacity="1" stroke="none"/>
</g>
</svg>
