<?xml version="1.0" encoding="UTF-8" standalone="no"?>
<!DOCTYPE svg PUBLIC "-//W3C//DTD SVG 1.1//EN" "http://www.w3.org/Graphics/SVG/1.1/DTD/svg11.dtd">
<!-- Created with Vectornator (http://vectornator.io/) -->
<svg height="100%" stroke-miterlimit="10" style="fill-rule:nonzero;clip-rule:evenodd;stroke-linecap:round;stroke-linejoin:round;" version="1.1" viewBox="0 0 4546.38 1024" width="100%" xml:space="preserve" xmlns="http://www.w3.org/2000/svg" xmlns:vectornator="http://vectornator.io" xmlns:xlink="http://www.w3.org/1999/xlink">
<defs>
<clipPath id="TextBounds">
<rect height="809.271" width="3971.5" x="941.706" y="107.262"/>
</clipPath>
</defs>
<g id="Layer-1" vectornator:layerName="Layer 1">
<g opacity="1">
<g opacity="1">
<path d="M184.143 866.332C157.573 866.332 136.049 847.932 136.049 825.238L215.751 452.425C215.751 429.731 237.275 411.332 263.845 411.332L757.924 411.332C784.494 411.332 806.049 429.731 806.049 452.425L886.049 825.238C886.049 847.932 864.494 866.332 837.924 866.332L184.143 866.332Z" fill="#11353e" fill-rule="nonzero" opacity="1" stroke="none"/>
<g opacity="1">
<path d="M665.41 589.911C664.676 590.112 664.035 590.572 663.629 591.286C646.63 619.186 626.452 644.917 601.941 666.625C579.167 686.796 552.844 703.091 524.472 714.123C500.339 723.509 474.86 729.17 449.066 731.248C442.735 731.757 436.379 731.92 430.035 732.185C424.643 732.41 419.278 732.64 413.879 732.466C408.412 732.29 402.955 731.722 397.504 731.31C384.072 730.295 370.661 728.785 357.379 726.53C347.095 724.783 336.873 722.624 326.785 719.967C323.465 719.093 320.159 718.171 316.879 717.155C315.848 716.835 314.809 716.496 313.785 716.155C313.45 716.043 313.119 715.927 312.785 715.811C312.68 715.774 312.607 715.754 312.504 715.717C312.498 715.715 312.328 715.649 312.348 715.655C303.612 712.659 294.093 717.325 291.098 726.061C288.102 734.796 292.737 744.283 301.472 747.279C308.623 749.679 316.08 751.376 323.441 752.965C336.651 755.817 350.053 757.826 363.504 759.121C374.535 760.184 385.637 760.756 396.722 760.559C403.013 760.447 409.29 759.971 415.566 759.59C422.582 759.165 429.618 758.773 436.598 757.934C447.667 756.604 458.638 754.439 469.504 751.965C507.94 743.215 544.815 727.153 576.691 703.874C601.411 685.822 623.021 663.693 641.066 639.003C651.442 624.805 660.549 609.78 668.785 594.255C669.598 592.826 669.12 591.005 667.691 590.192C666.977 589.785 666.144 589.709 665.41 589.911Z" fill="#ffffff" fill-rule="nonzero" opacity="1" stroke="none"/>
<path d="M691.848 516.414C683.477 516.146 674.921 517.51 667.035 519.445C658.124 521.631 649.494 524.712 641.004 528.164C630.767 532.325 620.84 537.277 611.129 542.538C591.188 553.34 571.86 565.508 553.566 578.911C552.258 579.782 551.913 581.54 552.785 582.848C553.657 584.156 555.415 584.501 556.722 583.629C574.633 573.214 593.24 563.915 612.285 555.756C628.806 548.678 645.9 542.35 663.535 538.694C673.114 536.708 683.334 535.319 693.066 536.913C698.215 537.756 703.382 539.558 707.191 543.257C708.836 544.853 710.166 546.741 711.348 548.694C716.546 557.285 717.217 567.955 716.848 577.755C716.757 580.161 716.6 582.575 716.379 584.973C715.089 598.969 711.94 612.708 708.16 626.221C702.802 645.377 695.933 664.067 688.566 682.532C699.146 662.978 709.16 643.026 717.441 622.377C723.209 607.996 728.342 593.147 731.004 577.848C733.855 561.462 734.504 541.544 722.16 528.632C720.17 526.55 717.925 524.723 715.504 523.164C708.372 518.571 700.218 516.681 691.848 516.414Z" fill="#ffffff" fill-rule="nonzero" opacity="1" stroke="none"/>
</g>
<path d="M510.658 157.021C505.918 157.209 501.182 157.607 496.514 158.272C467.819 162.354 440.795 174.15 416.548 189.782C378.979 214.002 347.493 247.383 320.845 283.031C310.558 296.792 300.938 311.047 291.963 325.7C285.96 335.503 280.185 345.49 274.977 355.741C272.806 359.737 274.296 364.727 278.288 366.901C282.278 369.075 287.263 367.584 289.434 363.588C298.755 348.606 308.937 334.206 319.784 320.293C327.502 310.392 335.545 300.728 343.952 291.408C365.278 267.765 388.935 245.829 415.58 228.294C434.43 215.889 454.859 205.638 476.717 199.785C486.555 197.151 496.618 195.462 506.755 194.533C512.809 193.979 518.824 193.92 524.896 193.971C529.724 194.01 534.545 194.23 539.353 194.689C552.505 195.947 565.403 199.255 577.697 204.067C604.917 214.724 629.027 232.512 650.168 252.458C683.745 284.136 711.035 321.944 735.285 361.056C737.313 364.572 741.796 365.774 745.308 363.744C748.82 361.714 750.021 357.226 747.993 353.709C740.466 339.636 732.62 325.743 724.232 312.165C717.47 301.22 710.382 290.459 702.937 279.967C697.507 272.315 691.871 264.821 686.013 257.491C653.67 217.021 613.182 180.668 563.022 164.649C555.288 162.179 547.361 160.182 539.353 158.834C534.573 158.03 529.708 157.371 524.865 157.115C520.158 156.866 515.398 156.833 510.658 157.021Z" fill="#11353e" fill-rule="nonzero" opacity="1" stroke="none"/>
</g>
<g fill="#11353e" opacity="1" stroke="none">
<path clip-path="url(#TextBounds)" d="M1379.21 853.262C1343.47 789.796 1304.81 727.129 1263.21 665.262C1221.61 603.396 1177.34 544.996 1130.41 490.062L1130.41 853.262L1007.21 853.262L1007.21 298.862L1108.81 298.862C1126.41 316.462 1145.87 338.062 1167.21 363.662C1188.54 389.262 1210.27 416.596 1232.41 445.662C1254.54 474.729 1276.54 504.862 1298.41 536.062C1320.27 567.262 1340.81 597.262 1360.01 626.062L1360.01 298.862L1484.01 298.862L1484.01 853.262L1379.21 853.262Z"/>
<path clip-path="url(#TextBounds)" d="M1584.01 646.062C1584.01 608.729 1589.74 576.062 1601.21 548.062C1612.67 520.062 1627.74 496.729 1646.41 478.062C1665.07 459.396 1686.54 445.262 1710.81 435.662C1735.07 426.062 1760.01 421.262 1785.61 421.262C1845.34 421.262 1892.54 439.529 1927.21 476.062C1961.87 512.596 1979.21 566.329 1979.21 637.262C1979.21 644.196 1978.94 651.796 1978.41 660.062C1977.87 668.329 1977.34 675.662 1976.81 682.062L1706.41 682.062C1709.07 706.596 1720.54 726.062 1740.81 740.462C1761.07 754.862 1788.27 762.062 1822.41 762.062C1844.27 762.062 1865.74 760.062 1886.81 756.062C1907.87 752.062 1925.07 747.129 1938.41 741.262L1954.41 838.062C1948.01 841.262 1939.47 844.462 1928.81 847.662C1918.14 850.862 1906.27 853.662 1893.21 856.062C1880.14 858.462 1866.14 860.462 1851.21 862.062C1836.27 863.662 1821.34 864.462 1806.41 864.462C1768.54 864.462 1735.61 858.862 1707.61 847.662C1679.61 836.462 1656.41 821.129 1638.01 801.662C1619.61 782.196 1606.01 759.129 1597.21 732.462C1588.41 705.796 1584.01 676.996 1584.01 646.062ZM1864.01 600.462C1863.47 590.329 1861.74 580.462 1858.81 570.862C1855.87 561.262 1851.34 552.729 1845.21 545.262C1839.07 537.796 1831.34 531.662 1822.01 526.862C1812.67 522.062 1801.07 519.662 1787.21 519.662C1773.87 519.662 1762.41 521.929 1752.81 526.462C1743.21 530.996 1735.21 536.996 1728.81 544.462C1722.41 551.929 1717.47 560.596 1714.01 570.462C1710.54 580.329 1708.01 590.329 1706.41 600.462L1864.01 600.462Z"/>
<path clip-path="url(#TextBounds)" d="M2327.21 611.662C2316.54 652.196 2305.21 692.462 2293.21 732.462C2281.21 772.462 2268.54 812.729 2255.21 853.262L2162.41 853.262C2152.81 830.862 2142.41 804.196 2131.21 773.262C2120.01 742.329 2108.41 708.596 2096.41 672.062C2084.41 635.529 2072.14 596.862 2059.61 556.062C2047.07 515.262 2034.94 474.062 2023.21 432.462L2148.81 432.462C2153.07 451.662 2157.74 472.596 2162.81 495.262C2167.87 517.929 2173.21 541.262 2178.81 565.262C2184.41 589.262 2190.27 613.396 2196.41 637.662C2202.54 661.929 2208.81 685.262 2215.21 707.662C2222.14 684.196 2228.94 660.196 2235.61 635.662C2242.27 611.129 2248.67 586.996 2254.81 563.262C2260.94 539.529 2266.81 516.596 2272.41 494.462C2278.01 472.329 2282.94 451.662 2287.21 432.462L2373.61 432.462C2377.87 451.662 2382.67 472.329 2388.01 494.462C2393.34 516.596 2398.94 539.529 2404.81 563.262C2410.67 586.996 2416.81 611.129 2423.21 635.662C2429.61 660.196 2436.27 684.196 2443.21 707.662C2449.61 685.262 2456.01 661.929 2462.41 637.662C2468.81 613.396 2474.81 589.262 2480.41 565.262C2486.01 541.262 2491.34 517.929 2496.41 495.262C2501.47 472.596 2506.14 451.662 2510.41 432.462L2634.41 432.462C2622.67 474.062 2610.54 515.262 2598.01 556.062C2585.47 596.862 2573.21 635.529 2561.21 672.062C2549.21 708.596 2537.47 742.329 2526.01 773.262C2514.54 804.196 2504.01 830.862 2494.41 853.262L2401.61 853.262C2388.27 812.729 2375.21 772.462 2362.41 732.462C2349.61 692.462 2337.87 652.196 2327.21 611.662Z"/>
<path clip-path="url(#TextBounds)" d="M3117.61 298.862L3117.61 405.262L2950.41 405.262L2950.41 853.262L2825.61 853.262L2825.61 405.262L2658.41 405.262L2658.41 298.862L3117.61 298.862Z"/>
<path clip-path="url(#TextBounds)" d="M3109.61 646.062C3109.61 608.729 3115.34 576.062 3126.81 548.062C3138.27 520.062 3153.34 496.729 3172.01 478.062C3190.67 459.396 3212.14 445.262 3236.41 435.662C3260.67 426.062 3285.61 421.262 3311.21 421.262C3370.94 421.262 3418.14 439.529 3452.81 476.062C3487.47 512.596 3504.81 566.329 3504.81 637.262C3504.81 644.196 3504.54 651.796 3504.01 660.062C3503.47 668.329 3502.94 675.662 3502.41 682.062L3232.01 682.062C3234.67 706.596 3246.14 726.062 3266.41 740.462C3286.67 754.862 3313.87 762.062 3348.01 762.062C3369.87 762.062 3391.34 760.062 3412.41 756.062C3433.47 752.062 3450.67 747.129 3464.01 741.262L3480.01 838.062C3473.61 841.262 3465.07 844.462 3454.41 847.662C3443.74 850.862 3431.87 853.662 3418.81 856.062C3405.74 858.462 3391.74 860.462 3376.81 862.062C3361.87 863.662 3346.94 864.462 3332.01 864.462C3294.14 864.462 3261.21 858.862 3233.21 847.662C3205.21 836.462 3182.01 821.129 3163.61 801.662C3145.21 782.196 3131.61 759.129 3122.81 732.462C3114.01 705.796 3109.61 676.996 3109.61 646.062ZM3389.61 600.462C3389.07 590.329 3387.34 580.462 3384.41 570.862C3381.47 561.262 3376.94 552.729 3370.81 545.262C3364.67 537.796 3356.94 531.662 3347.61 526.862C3338.27 522.062 3326.67 519.662 3312.81 519.662C3299.47 519.662 3288.01 521.929 3278.41 526.462C3268.81 530.996 3260.81 536.996 3254.41 544.462C3248.01 551.929 3243.07 560.596 3239.61 570.462C3236.14 580.329 3233.61 590.329 3232.01 600.462L3389.61 600.462Z"/>
<path clip-path="url(#TextBounds)" d="M3576.81 642.862C3576.81 612.462 3581.74 583.796 3591.61 556.862C3601.47 529.929 3615.74 506.462 3634.41 486.462C3653.07 466.462 3675.74 450.596 3702.41 438.862C3729.07 427.129 3759.47 421.262 3793.61 421.262C3816.01 421.262 3836.54 423.262 3855.21 427.262C3873.87 431.262 3892.01 436.996 3909.61 444.462L3884.81 539.662C3873.61 535.396 3861.34 531.662 3848.01 528.462C3834.67 525.262 3819.74 523.662 3803.21 523.662C3768.01 523.662 3741.74 534.596 3724.41 556.462C3707.07 578.329 3698.41 607.129 3698.41 642.862C3698.41 680.729 3706.54 710.062 3722.81 730.862C3739.07 751.662 3767.47 762.062 3808.01 762.062C3822.41 762.062 3837.87 760.729 3854.41 758.062C3870.94 755.396 3886.14 751.129 3900.01 745.262L3916.81 842.862C3902.94 848.729 3885.61 853.796 3864.81 858.062C3844.01 862.329 3821.07 864.462 3796.01 864.462C3757.61 864.462 3724.54 858.729 3696.81 847.262C3669.07 835.796 3646.27 820.196 3628.41 800.462C3610.54 780.729 3597.47 757.396 3589.21 730.462C3580.94 703.529 3576.81 674.329 3576.81 642.862Z"/>
<path clip-path="url(#TextBounds)" d="M3996.81 853.262L3996.81 251.662L4116.01 232.462L4116.01 434.062C4124.01 431.396 4134.27 428.862 4146.81 426.462C4159.34 424.062 4171.47 422.862 4183.21 422.862C4217.34 422.862 4245.74 427.529 4268.41 436.862C4291.07 446.196 4309.21 459.396 4322.81 476.462C4336.41 493.529 4346.01 513.796 4351.61 537.262C4357.21 560.729 4360.01 586.862 4360.01 615.662L4360.01 853.262L4240.81 853.262L4240.81 630.062C4240.81 591.662 4235.87 564.462 4226.01 548.462C4216.14 532.462 4197.87 524.462 4171.21 524.462C4160.54 524.462 4150.54 525.396 4141.21 527.262C4131.87 529.129 4123.47 531.129 4116.01 533.262L4116.01 853.262L3996.81 853.262Z"/>
</g>
</g>
</g>
</svg>
