<?xml version="1.0" encoding="UTF-8" standalone="no"?>
<!DOCTYPE svg PUBLIC "-//W3C//DTD SVG 1.1//EN" "http://www.w3.org/Graphics/SVG/1.1/DTD/svg11.dtd">
<!-- Created with Vectornator (http://vectornator.io/) -->
<svg height="100%" stroke-miterlimit="10" style="fill-rule:nonzero;clip-rule:evenodd;stroke-linecap:round;stroke-linejoin:round;" version="1.1" viewBox="0 0 7448.66 1024" width="100%" xml:space="preserve" xmlns="http://www.w3.org/2000/svg" xmlns:vectornator="http://vectornator.io" xmlns:xlink="http://www.w3.org/1999/xlink">
<defs>
<clipPath id="TextBounds">
<rect height="808" width="6287.75" x="1139.98" y="105.796"/>
</clipPath>
</defs>
<g id="Layer-1" vectornator:layerName="Layer 1">
<g fill="#00b9b2" opacity="1" stroke="none">
<path clip-path="url(#TextBounds)" d="M1356.68 756.596C1374.28 756.596 1388.81 755.129 1400.28 752.196C1411.75 749.262 1420.95 745.262 1427.88 740.196C1434.81 735.129 1439.61 729.129 1442.28 722.196C1444.95 715.262 1446.28 707.529 1446.28 698.996C1446.28 680.862 1437.75 665.796 1420.68 653.796C1403.61 641.796 1374.28 628.862 1332.68 614.996C1314.55 608.596 1296.41 601.262 1278.28 592.996C1260.15 584.729 1243.88 574.329 1229.48 561.796C1215.08 549.262 1203.35 534.062 1194.28 516.196C1185.21 498.329 1180.68 476.596 1180.68 450.996C1180.68 425.396 1185.48 402.329 1195.08 381.796C1204.68 361.262 1218.28 343.796 1235.88 329.396C1253.48 314.996 1274.81 303.929 1299.88 296.196C1324.95 288.462 1353.21 284.596 1384.68 284.596C1422.01 284.596 1454.28 288.596 1481.48 296.596C1508.68 304.596 1531.08 313.396 1548.68 322.996L1512.68 421.396C1497.21 413.396 1480.01 406.329 1461.08 400.196C1442.15 394.062 1419.35 390.996 1392.68 390.996C1362.81 390.996 1341.35 395.129 1328.28 403.396C1315.21 411.662 1308.68 424.329 1308.68 441.396C1308.68 451.529 1311.08 460.062 1315.88 466.996C1320.68 473.929 1327.48 480.196 1336.28 485.796C1345.08 491.396 1355.21 496.462 1366.68 500.996C1378.15 505.529 1390.81 510.196 1404.68 514.996C1433.48 525.662 1458.55 536.196 1479.88 546.596C1501.21 556.996 1518.95 569.129 1533.08 582.996C1547.21 596.862 1557.75 613.129 1564.68 631.796C1571.61 650.462 1575.08 673.129 1575.08 699.796C1575.08 751.529 1556.95 791.662 1520.68 820.196C1484.41 848.729 1429.75 862.996 1356.68 862.996C1332.15 862.996 1310.01 861.529 1290.28 858.596C1270.55 855.662 1253.08 852.062 1237.88 847.796C1222.68 843.529 1209.61 838.996 1198.68 834.196C1187.75 829.396 1178.55 824.862 1171.08 820.596L1206.28 721.396C1222.81 730.462 1243.21 738.596 1267.48 745.796C1291.75 752.996 1321.48 756.596 1356.68 756.596Z"/>
<path clip-path="url(#TextBounds)" d="M1643.08 644.596C1643.08 607.262 1648.81 574.596 1660.28 546.596C1671.75 518.596 1686.81 495.262 1705.48 476.596C1724.15 457.929 1745.61 443.796 1769.88 434.196C1794.15 424.596 1819.08 419.796 1844.68 419.796C1904.41 419.796 1951.61 438.062 1986.28 474.596C2020.95 511.129 2038.28 564.862 2038.28 635.796C2038.28 642.729 2038.01 650.329 2037.48 658.596C2036.95 666.862 2036.41 674.196 2035.88 680.596L1765.48 680.596C1768.15 705.129 1779.61 724.596 1799.88 738.996C1820.15 753.396 1847.35 760.596 1881.48 760.596C1903.35 760.596 1924.81 758.596 1945.88 754.596C1966.95 750.596 1984.15 745.662 1997.48 739.796L2013.48 836.596C2007.08 839.796 1998.55 842.996 1987.88 846.196C1977.21 849.396 1965.35 852.196 1952.28 854.596C1939.21 856.996 1925.21 858.996 1910.28 860.596C1895.35 862.196 1880.41 862.996 1865.48 862.996C1827.61 862.996 1794.68 857.396 1766.68 846.196C1738.68 834.996 1715.48 819.662 1697.08 800.196C1678.68 780.729 1665.08 757.662 1656.28 730.996C1647.48 704.329 1643.08 675.529 1643.08 644.596ZM1923.08 598.996C1922.55 588.862 1920.81 578.996 1917.88 569.396C1914.95 559.796 1910.41 551.262 1904.28 543.796C1898.15 536.329 1890.41 530.196 1881.08 525.396C1871.75 520.596 1860.15 518.196 1846.28 518.196C1832.95 518.196 1821.48 520.462 1811.88 524.996C1802.28 529.529 1794.28 535.529 1787.88 542.996C1781.48 550.462 1776.55 559.129 1773.08 568.996C1769.61 578.862 1767.08 588.862 1765.48 598.996L1923.08 598.996Z"/>
<path clip-path="url(#TextBounds)" d="M2298.28 859.796C2263.61 859.262 2235.48 855.529 2213.88 848.596C2192.28 841.662 2175.21 831.929 2162.68 819.396C2150.15 806.862 2141.61 791.662 2137.08 773.796C2132.55 755.929 2130.28 735.796 2130.28 713.396L2130.28 250.196L2249.48 230.996L2249.48 689.396C2249.48 700.062 2250.28 709.662 2251.88 718.196C2253.48 726.729 2256.55 733.929 2261.08 739.796C2265.61 745.662 2272.15 750.462 2280.68 754.196C2289.21 757.929 2300.68 760.329 2315.08 761.396L2298.28 859.796Z"/>
<path clip-path="url(#TextBounds)" d="M2551.08 859.796C2516.41 859.262 2488.28 855.529 2466.68 848.596C2445.08 841.662 2428.01 831.929 2415.48 819.396C2402.95 806.862 2394.41 791.662 2389.88 773.796C2385.35 755.929 2383.08 735.796 2383.08 713.396L2383.08 250.196L2502.28 230.996L2502.28 689.396C2502.28 700.062 2503.08 709.662 2504.68 718.196C2506.28 726.729 2509.35 733.929 2513.88 739.796C2518.41 745.662 2524.95 750.462 2533.48 754.196C2542.01 757.929 2553.48 760.329 2567.88 761.396L2551.08 859.796Z"/>
<path clip-path="url(#TextBounds)" d="M3221.48 640.596C3221.48 673.662 3216.68 703.929 3207.08 731.396C3197.48 758.862 3183.61 782.329 3165.48 801.796C3147.35 821.262 3125.61 836.329 3100.28 846.996C3074.95 857.662 3046.55 862.996 3015.08 862.996C2984.15 862.996 2956.01 857.662 2930.68 846.996C2905.35 836.329 2883.61 821.262 2865.48 801.796C2847.35 782.329 2833.21 758.862 2823.08 731.396C2812.95 703.929 2807.88 673.662 2807.88 640.596C2807.88 607.529 2813.08 577.396 2823.48 550.196C2833.88 522.996 2848.28 499.796 2866.68 480.596C2885.08 461.396 2906.95 446.462 2932.28 435.796C2957.61 425.129 2985.21 419.796 3015.08 419.796C3045.48 419.796 3073.35 425.129 3098.68 435.796C3124.01 446.462 3145.75 461.396 3163.88 480.596C3182.01 499.796 3196.15 522.996 3206.28 550.196C3216.41 577.396 3221.48 607.529 3221.48 640.596ZM3099.88 640.596C3099.88 603.796 3092.55 574.862 3077.88 553.796C3063.21 532.729 3042.28 522.196 3015.08 522.196C2987.88 522.196 2966.81 532.729 2951.88 553.796C2936.95 574.862 2929.48 603.796 2929.48 640.596C2929.48 677.396 2936.95 706.596 2951.88 728.196C2966.81 749.796 2987.88 760.596 3015.08 760.596C3042.28 760.596 3063.21 749.796 3077.88 728.196C3092.55 706.596 3099.88 677.396 3099.88 640.596Z"/>
<path clip-path="url(#TextBounds)" d="M3313.48 445.396C3333.75 439.529 3359.88 434.062 3391.88 428.996C3423.88 423.929 3457.48 421.396 3492.68 421.396C3528.41 421.396 3558.15 426.062 3581.88 435.396C3605.61 444.729 3624.41 457.929 3638.28 474.996C3652.15 492.062 3662.01 512.329 3667.88 535.796C3673.75 559.262 3676.68 585.396 3676.68 614.196L3676.68 851.796L3557.48 851.796L3557.48 628.596C3557.48 590.196 3552.41 562.996 3542.28 546.996C3532.15 530.996 3513.21 522.996 3485.48 522.996C3476.95 522.996 3467.88 523.396 3458.28 524.196C3448.68 524.996 3440.15 525.929 3432.68 526.996L3432.68 851.796L3313.48 851.796L3313.48 445.396Z"/>
<path clip-path="url(#TextBounds)" d="M4356.68 851.796C4320.95 788.329 4282.28 725.662 4240.68 663.796C4199.08 601.929 4154.81 543.529 4107.88 488.596L4107.88 851.796L3984.68 851.796L3984.68 297.396L4086.28 297.396C4103.88 314.996 4123.35 336.596 4144.68 362.196C4166.01 387.796 4187.75 415.129 4209.88 444.196C4232.01 473.262 4254.01 503.396 4275.88 534.596C4297.75 565.796 4318.28 595.796 4337.48 624.596L4337.48 297.396L4461.48 297.396L4461.48 851.796L4356.68 851.796Z"/>
<path clip-path="url(#TextBounds)" d="M4561.48 644.596C4561.48 607.262 4567.21 574.596 4578.68 546.596C4590.15 518.596 4605.21 495.262 4623.88 476.596C4642.55 457.929 4664.01 443.796 4688.28 434.196C4712.55 424.596 4737.48 419.796 4763.08 419.796C4822.81 419.796 4870.01 438.062 4904.68 474.596C4939.35 511.129 4956.68 564.862 4956.68 635.796C4956.68 642.729 4956.41 650.329 4955.88 658.596C4955.35 666.862 4954.81 674.196 4954.28 680.596L4683.88 680.596C4686.55 705.129 4698.01 724.596 4718.28 738.996C4738.55 753.396 4765.75 760.596 4799.88 760.596C4821.75 760.596 4843.21 758.596 4864.28 754.596C4885.35 750.596 4902.55 745.662 4915.88 739.796L4931.88 836.596C4925.48 839.796 4916.95 842.996 4906.28 846.196C4895.61 849.396 4883.75 852.196 4870.68 854.596C4857.61 856.996 4843.61 858.996 4828.68 860.596C4813.75 862.196 4798.81 862.996 4783.88 862.996C4746.01 862.996 4713.08 857.396 4685.08 846.196C4657.08 834.996 4633.88 819.662 4615.48 800.196C4597.08 780.729 4583.48 757.662 4574.68 730.996C4565.88 704.329 4561.48 675.529 4561.48 644.596ZM4841.48 598.996C4840.95 588.862 4839.21 578.996 4836.28 569.396C4833.35 559.796 4828.81 551.262 4822.68 543.796C4816.55 536.329 4808.81 530.196 4799.48 525.396C4790.15 520.596 4778.55 518.196 4764.68 518.196C4751.35 518.196 4739.88 520.462 4730.28 524.996C4720.68 529.529 4712.68 535.529 4706.28 542.996C4699.88 550.462 4694.95 559.129 4691.48 568.996C4688.01 578.862 4685.48 588.862 4683.88 598.996L4841.48 598.996Z"/>
<path clip-path="url(#TextBounds)" d="M5304.68 610.196C5294.01 650.729 5282.68 690.996 5270.68 730.996C5258.68 770.996 5246.01 811.262 5232.68 851.796L5139.88 851.796C5130.28 829.396 5119.88 802.729 5108.68 771.796C5097.48 740.862 5085.88 707.129 5073.88 670.596C5061.88 634.062 5049.61 595.396 5037.08 554.596C5024.55 513.796 5012.41 472.596 5000.68 430.996L5126.28 430.996C5130.55 450.196 5135.21 471.129 5140.28 493.796C5145.35 516.462 5150.68 539.796 5156.28 563.796C5161.88 587.796 5167.75 611.929 5173.88 636.196C5180.01 660.462 5186.28 683.796 5192.68 706.196C5199.61 682.729 5206.41 658.729 5213.08 634.196C5219.75 609.662 5226.15 585.529 5232.28 561.796C5238.41 538.062 5244.28 515.129 5249.88 492.996C5255.48 470.862 5260.41 450.196 5264.68 430.996L5351.08 430.996C5355.35 450.196 5360.15 470.862 5365.48 492.996C5370.81 515.129 5376.41 538.062 5382.28 561.796C5388.15 585.529 5394.28 609.662 5400.68 634.196C5407.08 658.729 5413.75 682.729 5420.68 706.196C5427.08 683.796 5433.48 660.462 5439.88 636.196C5446.28 611.929 5452.28 587.796 5457.88 563.796C5463.48 539.796 5468.81 516.462 5473.88 493.796C5478.95 471.129 5483.61 450.196 5487.88 430.996L5611.88 430.996C5600.15 472.596 5588.01 513.796 5575.48 554.596C5562.95 595.396 5550.68 634.062 5538.68 670.596C5526.68 707.129 5514.95 740.862 5503.48 771.796C5492.01 802.729 5481.48 829.396 5471.88 851.796L5379.08 851.796C5365.75 811.262 5352.68 770.996 5339.88 730.996C5327.08 690.996 5315.35 650.729 5304.68 610.196Z"/>
<path clip-path="url(#TextBounds)" d="M6095.08 297.396L6095.08 403.796L5927.88 403.796L5927.88 851.796L5803.08 851.796L5803.08 403.796L5635.88 403.796L5635.88 297.396L6095.08 297.396Z"/>
<path clip-path="url(#TextBounds)" d="M6087.08 644.596C6087.08 607.262 6092.81 574.596 6104.28 546.596C6115.75 518.596 6130.81 495.262 6149.48 476.596C6168.15 457.929 6189.61 443.796 6213.88 434.196C6238.15 424.596 6263.08 419.796 6288.68 419.796C6348.41 419.796 6395.61 438.062 6430.28 474.596C6464.95 511.129 6482.28 564.862 6482.28 635.796C6482.28 642.729 6482.01 650.329 6481.48 658.596C6480.95 666.862 6480.41 674.196 6479.88 680.596L6209.48 680.596C6212.15 705.129 6223.61 724.596 6243.88 738.996C6264.15 753.396 6291.35 760.596 6325.48 760.596C6347.35 760.596 6368.81 758.596 6389.88 754.596C6410.95 750.596 6428.15 745.662 6441.48 739.796L6457.48 836.596C6451.08 839.796 6442.55 842.996 6431.88 846.196C6421.21 849.396 6409.35 852.196 6396.28 854.596C6383.21 856.996 6369.21 858.996 6354.28 860.596C6339.35 862.196 6324.41 862.996 6309.48 862.996C6271.61 862.996 6238.68 857.396 6210.68 846.196C6182.68 834.996 6159.48 819.662 6141.08 800.196C6122.68 780.729 6109.08 757.662 6100.28 730.996C6091.48 704.329 6087.08 675.529 6087.08 644.596ZM6367.08 598.996C6366.55 588.862 6364.81 578.996 6361.88 569.396C6358.95 559.796 6354.41 551.262 6348.28 543.796C6342.15 536.329 6334.41 530.196 6325.08 525.396C6315.75 520.596 6304.15 518.196 6290.28 518.196C6276.95 518.196 6265.48 520.462 6255.88 524.996C6246.28 529.529 6238.28 535.529 6231.88 542.996C6225.48 550.462 6220.55 559.129 6217.08 568.996C6213.61 578.862 6211.08 588.862 6209.48 598.996L6367.08 598.996Z"/>
<path clip-path="url(#TextBounds)" d="M6554.28 641.396C6554.28 610.996 6559.21 582.329 6569.08 555.396C6578.95 528.462 6593.21 504.996 6611.88 484.996C6630.55 464.996 6653.21 449.129 6679.88 437.396C6706.55 425.662 6736.95 419.796 6771.08 419.796C6793.48 419.796 6814.01 421.796 6832.68 425.796C6851.35 429.796 6869.48 435.529 6887.08 442.996L6862.28 538.196C6851.08 533.929 6838.81 530.196 6825.48 526.996C6812.15 523.796 6797.21 522.196 6780.68 522.196C6745.48 522.196 6719.21 533.129 6701.88 554.996C6684.55 576.862 6675.88 605.662 6675.88 641.396C6675.88 679.262 6684.01 708.596 6700.28 729.396C6716.55 750.196 6744.95 760.596 6785.48 760.596C6799.88 760.596 6815.35 759.262 6831.88 756.596C6848.41 753.929 6863.61 749.662 6877.48 743.796L6894.28 841.396C6880.41 847.262 6863.08 852.329 6842.28 856.596C6821.48 860.862 6798.55 862.996 6773.48 862.996C6735.08 862.996 6702.01 857.262 6674.28 845.796C6646.55 834.329 6623.75 818.729 6605.88 798.996C6588.01 779.262 6574.95 755.929 6566.68 728.996C6558.41 702.062 6554.28 672.862 6554.28 641.396Z"/>
<path clip-path="url(#TextBounds)" d="M6974.28 851.796L6974.28 250.196L7093.48 230.996L7093.48 432.596C7101.48 429.929 7111.75 427.396 7124.28 424.996C7136.81 422.596 7148.95 421.396 7160.68 421.396C7194.81 421.396 7223.21 426.062 7245.88 435.396C7268.55 444.729 7286.68 457.929 7300.28 474.996C7313.88 492.062 7323.48 512.329 7329.08 535.796C7334.68 559.262 7337.48 585.396 7337.48 614.196L7337.48 851.796L7218.28 851.796L7218.28 628.596C7218.28 590.196 7213.35 562.996 7203.48 546.996C7193.61 530.996 7175.35 522.996 7148.68 522.996C7138.01 522.996 7128.01 523.929 7118.68 525.796C7109.35 527.662 7100.95 529.662 7093.48 531.796L7093.48 851.796L6974.28 851.796Z"/>
</g>
<path d="M196.313 927.728C178.364 927.728 162.659 920.997 149.198 907.536C135.736 894.075 129.006 878.369 129.006 860.421L129.006 480.135C108.066 462.186 94.2303 440.125 87.4995 413.949C80.7688 387.773 81.5166 361.6 89.7431 335.424L137.98 183.983C143.963 163.79 154.433 148.085 169.39 136.867C184.347 125.65 201.548 120.041 220.992 120.041L841.342 120.041C862.282 120.041 880.605 125.836 896.31 137.428C912.015 149.02 922.858 164.538 928.842 183.983L978.2 335.424C986.425 361.6 986.986 387.773 979.883 413.949C972.778 440.125 958.755 462.186 937.816 480.135L937.816 860.421C937.816 878.369 931.085 894.075 917.624 907.536C904.162 920.997 888.457 927.728 870.509 927.728L196.313 927.728ZM634.933 445.359C656.62 445.359 674.943 438.254 689.901 424.045C704.857 409.837 710.84 392.635 707.85 372.443L679.805 187.348L567.626 187.348L567.626 372.443C567.626 391.888 573.982 408.901 586.696 423.484C599.409 438.068 615.488 445.359 634.933 445.359ZM425.157 445.359C446.098 445.359 463.858 438.254 478.442 424.045C493.025 409.837 500.317 392.635 500.317 372.443L500.317 187.348L388.138 187.348L360.093 372.443C357.102 391.888 362.337 408.901 375.798 423.484C389.259 438.068 405.714 445.359 425.157 445.359ZM220.992 445.359C238.941 445.359 254.459 439.189 267.545 426.85C280.634 414.51 288.299 399.366 290.542 381.417L319.709 187.348L207.531 187.348L155.929 351.129C148.45 374.312 151.441 395.814 164.903 415.632C178.364 435.449 197.061 445.359 220.992 445.359ZM845.827 445.359C869.759 445.359 888.644 435.638 902.478 416.193C916.314 396.748 919.493 375.061 912.013 351.129L860.411 187.348L748.232 187.348L777.398 381.417C779.642 399.366 787.308 414.51 800.395 426.85C813.484 439.189 828.628 445.359 845.827 445.359Z" fill="#00b9b2" fill-rule="nonzero" opacity="1" stroke="none"/>
</g>
</svg>
