<?xml version="1.0" encoding="UTF-8" standalone="no"?>
<!DOCTYPE svg PUBLIC "-//W3C//DTD SVG 1.1//EN" "http://www.w3.org/Graphics/SVG/1.1/DTD/svg11.dtd">
<!-- Created with Vectornator (http://vectornator.io/) -->
<svg height="100%" stroke-miterlimit="10" style="fill-rule:nonzero;clip-rule:evenodd;stroke-linecap:round;stroke-linejoin:round;" version="1.1" viewBox="0 0 48 48" width="100%" xml:space="preserve" xmlns="http://www.w3.org/2000/svg" xmlns:vectornator="http://vectornator.io" xmlns:xlink="http://www.w3.org/1999/xlink">
<defs/>
<clipPath id="ArtboardFrame">
<rect height="48" width="48" x="0" y="0"/>
</clipPath>
<g clip-path="url(#ArtboardFrame)" id="Untitled" vectornator:layerName="Untitled">
<path d="M0-3.55271e-15L48-3.55271e-15L48 48L0 48L0-3.55271e-15Z" fill="#000000" fill-rule="nonzero" opacity="1" stroke="none"/>
<path d="M39 14.7749C37.8976 15.2632 36.7119 15.589 35.4611 15.7432C36.7327 14.9883 37.7109 13.7842 38.1701 12.3618C36.9802 13.0592 35.6619 13.5717 34.2596 13.8417C33.1397 12.6543 31.5423 11.9177 29.7724 11.9177C26.3727 11.9177 23.6171 14.6491 23.6171 18.0172C23.6171 18.4938 23.6729 18.9579 23.7779 19.4087C18.6634 19.1521 14.1271 16.7206 11.0923 13.0309C10.559 13.9325 10.2591 14.9883 10.2591 16.1023C10.2591 18.2196 11.3431 20.0837 12.9963 21.1819C11.9873 21.1511 11.0373 20.8703 10.2057 20.4203C10.2057 20.4386 10.2057 20.4661 10.2057 20.492C10.2057 23.4509 12.3281 25.9148 15.1412 26.4756C14.627 26.6164 14.0837 26.6948 13.5238 26.6948C13.1263 26.6948 12.7389 26.6498 12.3639 26.5823C13.1472 29.0004 15.4195 30.7678 18.1117 30.8203C16.0052 32.4535 13.3521 33.4317 10.4674 33.4317C9.96909 33.4317 9.48163 33.4034 9 33.3451C11.7256 35.0707 14.962 36.0823 18.4359 36.0823C29.7558 36.0823 35.9486 26.7864 35.9486 18.7221C35.9486 18.458 35.9403 18.1947 35.9278 17.9347C37.136 17.0814 38.1776 16.0048 39 14.7749" fill="#ffffff" fill-rule="nonzero" opacity="1" stroke="none"/>
</g>
</svg>
