<?xml version="1.0" encoding="UTF-8" standalone="no"?>
<!DOCTYPE svg PUBLIC "-//W3C//DTD SVG 1.1//EN" "http://www.w3.org/Graphics/SVG/1.1/DTD/svg11.dtd">
<!-- Created with Vectornator (http://vectornator.io/) -->
<svg height="100%" stroke-miterlimit="10" style="fill-rule:nonzero;clip-rule:evenodd;stroke-linecap:round;stroke-linejoin:round;" version="1.1" viewBox="0 0 42 45.4" width="100%" xml:space="preserve" xmlns="http://www.w3.org/2000/svg" xmlns:vectornator="http://vectornator.io" xmlns:xlink="http://www.w3.org/1999/xlink">
<defs/>
<g id="Untitled" vectornator:layerName="Untitled">
<path d="M21.01 43.4189C20.81 43.4189 20.6266 43.3856 20.46 43.3189C20.2933 43.2523 20.1266 43.1356 19.96 42.9689L14.96 37.9689L6.00997 37.9689C5.20997 37.9689 4.50997 37.6689 3.90997 37.0689C3.30997 36.4689 3.00997 35.7689 3.00997 34.9689L3.00997 4.96895C3.00997 4.13561 3.30997 3.42728 3.90997 2.84395C4.50997 2.26061 5.20997 1.96895 6.00997 1.96895L36.01 1.96895C36.81 1.96895 37.51 2.26061 38.11 2.84395C38.71 3.42728 39.01 4.13561 39.01 4.96895L39.01 34.9689C39.01 35.7689 38.71 36.4689 38.11 37.0689C37.51 37.6689 36.81 37.9689 36.01 37.9689L27.06 37.9689L22.06 42.9689C21.8933 43.1356 21.7266 43.2523 21.56 43.3189C21.3933 43.3856 21.21 43.4189 21.01 43.4189ZM21.11 22.9189C23.0433 22.9189 24.6766 22.2523 26.01 20.9189C27.3433 19.5856 28.01 17.9523 28.01 16.0189C28.01 14.0856 27.3433 12.4523 26.01 11.1189C24.6766 9.78561 23.0433 9.11895 21.11 9.11895C19.1766 9.11895 17.5433 9.78561 16.21 11.1189C14.8766 12.4523 14.21 14.0856 14.21 16.0189C14.21 17.9523 14.8766 19.5856 16.21 20.9189C17.5433 22.2523 19.1766 22.9189 21.11 22.9189ZM21.01 39.5689L25.61 34.9689L36.01 34.9689L36.01 33.0689C34.01 31.2356 31.7433 29.7439 29.21 28.5939C26.6766 27.4439 23.9433 26.8689 21.01 26.8689C18.0766 26.8689 15.3433 27.4439 12.81 28.5939C10.2766 29.7439 8.00997 31.2356 6.00997 33.0689L6.00997 34.9689L16.41 34.9689L21.01 39.5689Z" fill="#000000" fill-rule="nonzero" opacity="1" stroke="none"/>
</g>
</svg>
