<?xml version="1.0" encoding="UTF-8" standalone="no"?>
<!DOCTYPE svg PUBLIC "-//W3C//DTD SVG 1.1//EN" "http://www.w3.org/Graphics/SVG/1.1/DTD/svg11.dtd">
<!-- Created with Vectornator (http://vectornator.io/) -->
<svg height="100%" stroke-miterlimit="10" style="fill-rule:nonzero;clip-rule:evenodd;stroke-linecap:round;stroke-linejoin:round;" version="1.1" viewBox="0 0 40 43.4" width="100%" xml:space="preserve" xmlns="http://www.w3.org/2000/svg" xmlns:vectornator="http://vectornator.io" xmlns:xlink="http://www.w3.org/1999/xlink">
<defs/>
<g id="Untitled" vectornator:layerName="Untitled">
<path d="M20 21.5C20.9667 21.5 21.7917 21.1583 22.475 20.475C23.1583 19.7917 23.5 18.9667 23.5 18C23.5 17.0333 23.1583 16.2083 22.475 15.525C21.7917 14.8417 20.9667 14.5 20 14.5C19.0333 14.5 18.2083 14.8417 17.525 15.525C16.8417 16.2083 16.5 17.0333 16.5 18C16.5 18.9667 16.8417 19.7917 17.525 20.475C18.2083 21.1583 19.0333 21.5 20 21.5ZM20.05 41.4C19.8167 41.4 19.6 41.3667 19.4 41.3C19.2 41.2333 19.0167 41.1333 18.85 41C13.8833 36.6333 10.1667 32.5833 7.7 28.85C5.23333 25.1167 4 21.6333 4 18.4C4 13.4 5.60833 9.41667 8.825 6.45C12.0417 3.48333 15.7667 2 20 2C24.2333 2 27.9583 3.48333 31.175 6.45C34.3917 9.41667 36 13.4 36 18.4C36 21.6333 34.7667 25.1167 32.3 28.85C29.8333 32.5833 26.1167 36.6333 21.15 41C20.9833 41.1333 20.8083 41.2333 20.625 41.3C20.4417 41.3667 20.25 41.4 20.05 41.4Z" fill="#000000" fill-rule="nonzero" opacity="1" stroke="none"/>
</g>
</svg>
