<?xml version="1.0" encoding="UTF-8" standalone="no"?>
<!DOCTYPE svg PUBLIC "-//W3C//DTD SVG 1.1//EN" "http://www.w3.org/Graphics/SVG/1.1/DTD/svg11.dtd">
<!-- Created with Vectornator (http://vectornator.io/) -->
<svg height="100%" stroke-miterlimit="10" style="fill-rule:nonzero;clip-rule:evenodd;stroke-linecap:round;stroke-linejoin:round;" version="1.1" viewBox="0 0 42 42" width="100%" xml:space="preserve" xmlns="http://www.w3.org/2000/svg" xmlns:vectornator="http://vectornator.io" xmlns:xlink="http://www.w3.org/1999/xlink">
<defs/>
<g id="Untitled" vectornator:layerName="Untitled">
<path d="M22.4944 14.9965L22.4944 4.49647C22.4944 4.06314 22.6361 3.7048 22.9194 3.42147C23.2028 3.13814 23.5611 2.99647 23.9944 2.99647L37.4944 2.99647C37.9278 2.99647 38.2861 3.13814 38.5694 3.42147C38.8528 3.7048 38.9944 4.06314 38.9944 4.49647L38.9944 14.9965C38.9944 15.4298 38.8528 15.7881 38.5694 16.0715C38.2861 16.3548 37.9278 16.4965 37.4944 16.4965L23.9944 16.4965C23.5611 16.4965 23.2028 16.3548 22.9194 16.0715C22.6361 15.7881 22.4944 15.4298 22.4944 14.9965ZM2.99443 20.9965L2.99443 4.49647C2.99443 4.06314 3.13609 3.7048 3.41943 3.42147C3.70276 3.13814 4.06109 2.99647 4.49443 2.99647L17.9944 2.99647C18.4278 2.99647 18.7861 3.13814 19.0694 3.42147C19.3528 3.7048 19.4944 4.06314 19.4944 4.49647L19.4944 20.9965C19.4944 21.4298 19.3528 21.7881 19.0694 22.0715C18.7861 22.3548 18.4278 22.4965 17.9944 22.4965L4.49443 22.4965C4.06109 22.4965 3.70276 22.3548 3.41943 22.0715C3.13609 21.7881 2.99443 21.4298 2.99443 20.9965ZM22.4944 37.4965L22.4944 20.9965C22.4944 20.5631 22.6361 20.2048 22.9194 19.9215C23.2028 19.6381 23.5611 19.4965 23.9944 19.4965L37.4944 19.4965C37.9278 19.4965 38.2861 19.6381 38.5694 19.9215C38.8528 20.2048 38.9944 20.5631 38.9944 20.9965L38.9944 37.4965C38.9944 37.9298 38.8528 38.2881 38.5694 38.5715C38.2861 38.8548 37.9278 38.9965 37.4944 38.9965L23.9944 38.9965C23.5611 38.9965 23.2028 38.8548 22.9194 38.5715C22.6361 38.2881 22.4944 37.9298 22.4944 37.4965ZM2.99443 37.4965L2.99443 26.9965C2.99443 26.5631 3.13609 26.2048 3.41943 25.9215C3.70276 25.6381 4.06109 25.4965 4.49443 25.4965L17.9944 25.4965C18.4278 25.4965 18.7861 25.6381 19.0694 25.9215C19.3528 26.2048 19.4944 26.5631 19.4944 26.9965L19.4944 37.4965C19.4944 37.9298 19.3528 38.2881 19.0694 38.5715C18.7861 38.8548 18.4278 38.9965 17.9944 38.9965L4.49443 38.9965C4.06109 38.9965 3.70276 38.8548 3.41943 38.5715C3.13609 38.2881 2.99443 37.9298 2.99443 37.4965Z" fill="#00c4d5" fill-rule="nonzero" opacity="1" stroke="none"/>
</g>
</svg>
