<?xml version="1.0" encoding="UTF-8" standalone="no"?>
<!DOCTYPE svg PUBLIC "-//W3C//DTD SVG 1.1//EN" "http://www.w3.org/Graphics/SVG/1.1/DTD/svg11.dtd">
<!-- Created with Vectornator (http://vectornator.io/) -->
<svg height="100%" stroke-miterlimit="10" style="fill-rule:nonzero;clip-rule:evenodd;stroke-linecap:round;stroke-linejoin:round;" version="1.1" viewBox="0 0 44 42.9167" width="100%" xml:space="preserve" xmlns="http://www.w3.org/2000/svg" xmlns:vectornator="http://vectornator.io" xmlns:xlink="http://www.w3.org/1999/xlink">
<defs/>
<g id="Untitled" vectornator:layerName="Untitled">
<path d="M2.00348 30.2L2.00348 4.09996C2.00348 3.63329 2.22015 3.16663 2.65348 2.69996C3.08682 2.23329 3.53682 1.99996 4.00348 1.99996L29.9535 1.99996C30.4535 1.99996 30.9202 2.22496 31.3535 2.67496C31.7868 3.12496 32.0035 3.59996 32.0035 4.09996L32.0035 21.9C32.0035 22.3666 31.7868 22.8333 31.3535 23.3C30.9201 23.7666 30.4535 24 29.9535 24L10.0035 24L3.30348 30.7C3.03682 30.9666 2.75348 31.0333 2.45348 30.9C2.15348 30.7666 2.00348 30.5333 2.00348 30.2ZM12.0535 34C11.5868 34 11.1285 33.7666 10.6785 33.3C10.2285 32.8333 10.0035 32.3666 10.0035 31.9L10.0035 27L35.0035 27L35.0035 9.99996L40.0035 9.99996C40.4701 9.99996 40.9201 10.2333 41.3535 10.7C41.7868 11.1666 42.0035 11.65 42.0035 12.15L42.0035 40.15C42.0035 40.4833 41.8535 40.7166 41.5535 40.85C41.2535 40.9833 40.9701 40.9166 40.7035 40.65L34.0535 34L12.0535 34Z" fill="#00c4d5" fill-rule="nonzero" opacity="1" stroke="none"/>
</g>
</svg>
