<?xml version="1.0" encoding="UTF-8" standalone="no"?>
<!DOCTYPE svg PUBLIC "-//W3C//DTD SVG 1.1//EN" "http://www.w3.org/Graphics/SVG/1.1/DTD/svg11.dtd">
<!-- Created with Vectornator (http://vectornator.io/) -->
<svg height="100%" stroke-miterlimit="10" style="fill-rule:nonzero;clip-rule:evenodd;stroke-linecap:round;stroke-linejoin:round;" version="1.1" viewBox="0 0 44 42.9167" width="100%" xml:space="preserve" xmlns="http://www.w3.org/2000/svg" xmlns:vectornator="http://vectornator.io" xmlns:xlink="http://www.w3.org/1999/xlink">
<defs/>
<g id="Untitled" vectornator:layerName="Untitled">
<path d="M2 30.2L2 4.1C2 3.63333 2.21667 3.16667 2.65 2.7C3.08333 2.23333 3.53333 2 4 2L29.95 2C30.45 2 30.9167 2.225 31.35 2.675C31.7833 3.125 32 3.6 32 4.1L32 21.9C32 22.3667 31.7833 22.8333 31.35 23.3C30.9167 23.7667 30.45 24 29.95 24L10 24L3.3 30.7C3.03333 30.9667 2.75 31.0333 2.45 30.9C2.15 30.7667 2 30.5333 2 30.2ZM12.05 34C11.5833 34 11.125 33.7667 10.675 33.3C10.225 32.8333 10 32.3667 10 31.9L10 27L35 27L35 10L40 10C40.4667 10 40.9167 10.2333 41.35 10.7C41.7833 11.1667 42 11.65 42 12.15L42 40.15C42 40.4833 41.85 40.7167 41.55 40.85C41.25 40.9833 40.9667 40.9167 40.7 40.65L34.05 34L12.05 34Z" fill="#000000" fill-rule="nonzero" opacity="1" stroke="none"/>
</g>
</svg>
