<?xml version="1.0" encoding="UTF-8" standalone="no"?>
<!DOCTYPE svg PUBLIC "-//W3C//DTD SVG 1.1//EN" "http://www.w3.org/Graphics/SVG/1.1/DTD/svg11.dtd">
<!-- Created with Vectornator (http://vectornator.io/) -->
<svg height="100%" stroke-miterlimit="10" style="fill-rule:nonzero;clip-rule:evenodd;stroke-linecap:round;stroke-linejoin:round;" version="1.1" viewBox="0 0 44.45 41.3" width="100%" xml:space="preserve" xmlns="http://www.w3.org/2000/svg" xmlns:vectornator="http://vectornator.io" xmlns:xlink="http://www.w3.org/1999/xlink">
<defs/>
<g id="Untitled" vectornator:layerName="Untitled">
<path d="M18.55 40.2068L6 40.2068C5.2 40.2068 4.5 39.9068 3.9 39.3068C3.3 38.7068 3 38.0068 3 37.2068L3 8.10678C3 7.30678 3.25834 6.60678 3.775 6.00678C4.29167 5.40678 4.73334 5.10678 5.1 5.10678L15.2 5.10678C15.4333 3.94011 16.0083 2.98178 16.925 2.23178C17.8417 1.48178 18.9 1.10678 20.1 1.10678C21.3 1.10678 22.3583 1.48178 23.275 2.23178C24.1917 2.98178 24.7667 3.94011 25 5.10678L35.1 5.10678C35.9 5.10678 36.6 5.40678 37.2 6.00678C37.8 6.60678 38.1 7.30678 38.1 8.10678L38.1 18.2568L35.1 18.2568L35.1 8.10678L29.8 8.10678L29.8 11.6068C29.8 12.4401 29.5083 13.1484 28.925 13.7318C28.3417 14.3151 27.6333 14.6068 26.8 14.6068L14.3 14.6068C13.4667 14.6068 12.7583 14.3151 12.175 13.7318C11.5917 13.1484 11.3 12.4401 11.3 11.6068L11.3 8.10678L6 8.10678L6 37.2068L18.55 37.2068L18.55 40.2068ZM28 34.6568L38.9 23.7568C39.2 23.4568 39.55 23.3151 39.95 23.3318C40.35 23.3484 40.7 23.5068 41 23.8068C41.3 24.1068 41.45 24.4651 41.45 24.8818C41.45 25.2984 41.3 25.6568 41 25.9568L29.05 37.9068C28.75 38.2068 28.4 38.3568 28 38.3568C27.6 38.3568 27.25 38.2068 26.95 37.9068L21.05 32.0068C20.75 31.7068 20.6083 31.3484 20.625 30.9318C20.6417 30.5151 20.8 30.1568 21.1 29.8568C21.4 29.5568 21.7583 29.4068 22.175 29.4068C22.5917 29.4068 22.95 29.5568 23.25 29.8568L28 34.6568ZM21 7.90678C21.5667 7.90678 22.0417 7.71511 22.425 7.33178C22.8083 6.94845 23 6.47345 23 5.90678C23 5.34011 22.8083 4.86511 22.425 4.48178C22.0417 4.09845 21.5667 3.90678 21 3.90678C20.4333 3.90678 19.9583 4.09845 19.575 4.48178C19.1917 4.86511 19 5.34011 19 5.90678C19 6.47345 19.1917 6.94845 19.575 7.33178C19.9583 7.71511 20.4333 7.90678 21 7.90678Z" fill="#00c4d5" fill-rule="nonzero" opacity="1" stroke="none"/>
</g>
</svg>
