<?xml version="1.0" encoding="UTF-8" standalone="no"?>
<!DOCTYPE svg PUBLIC "-//W3C//DTD SVG 1.1//EN" "http://www.w3.org/Graphics/SVG/1.1/DTD/svg11.dtd">
<!-- Created with Vectornator (http://vectornator.io/) -->
<svg height="100%" stroke-miterlimit="10" style="fill-rule:nonzero;clip-rule:evenodd;stroke-linecap:round;stroke-linejoin:round;" version="1.1" viewBox="0 0 46.1 40" width="100%" xml:space="preserve" xmlns="http://www.w3.org/2000/svg" xmlns:vectornator="http://vectornator.io" xmlns:xlink="http://www.w3.org/1999/xlink">
<defs/>
<g id="Untitled" vectornator:layerName="Untitled">
<path d="M2.45 35.525C2.01667 35.525 1.65833 35.3833 1.375 35.1C1.09167 34.8167 0.95 34.4583 0.95 34.025L0.95 30.825C0.95 29.6583 1.25 28.6 1.85 27.65C2.45 26.7 3.28333 25.9917 4.35 25.525C6.78333 24.4583 8.975 23.6917 10.925 23.225C12.875 22.7583 14.8833 22.525 16.95 22.525C19.0167 22.525 21.0167 22.7583 22.95 23.225C24.8833 23.6917 27.0667 24.4583 29.5 25.525C30.5667 25.9917 31.4083 26.7 32.025 27.65C32.6417 28.6 32.95 29.6583 32.95 30.825L32.95 34.025C32.95 34.4583 32.8083 34.8167 32.525 35.1C32.2417 35.3833 31.8833 35.525 31.45 35.525L2.45 35.525ZM34.85 35.525C35.1833 35.4583 35.45 35.2833 35.65 35C35.85 34.7167 35.95 34.3583 35.95 33.925L35.95 30.825C35.95 28.725 35.4167 27 34.35 25.65C33.2833 24.3 31.8833 23.2083 30.15 22.375C32.45 22.6417 34.6167 23.0333 36.65 23.55C38.6833 24.0667 40.3333 24.6583 41.6 25.325C42.7 25.9583 43.5667 26.7417 44.2 27.675C44.8333 28.6083 45.15 29.6583 45.15 30.825L45.15 34.025C45.15 34.4583 45.0083 34.8167 44.725 35.1C44.4417 35.3833 44.0833 35.525 43.65 35.525L34.85 35.525ZM16.95 19.475C14.75 19.475 12.95 18.775 11.55 17.375C10.15 15.975 9.45 14.175 9.45 11.975C9.45 9.775 10.15 7.975 11.55 6.575C12.95 5.175 14.75 4.475 16.95 4.475C19.15 4.475 20.95 5.175 22.35 6.575C23.75 7.975 24.45 9.775 24.45 11.975C24.45 14.175 23.75 15.975 22.35 17.375C20.95 18.775 19.15 19.475 16.95 19.475ZM34.95 11.975C34.95 14.175 34.25 15.975 32.85 17.375C31.45 18.775 29.65 19.475 27.45 19.475C27.0833 19.475 26.675 19.45 26.225 19.4C25.775 19.35 25.3667 19.2583 25 19.125C25.8 18.2917 26.4083 17.2667 26.825 16.05C27.2417 14.8333 27.45 13.475 27.45 11.975C27.45 10.475 27.2417 9.15 26.825 8C26.4083 6.85 25.8 5.79167 25 4.825C25.3667 4.725 25.775 4.64167 26.225 4.575C26.675 4.50833 27.0833 4.475 27.45 4.475C29.65 4.475 31.45 5.175 32.85 6.575C34.25 7.975 34.95 9.775 34.95 11.975Z" fill="#000000" fill-rule="nonzero" opacity="1" stroke="none"/>
</g>
</svg>
