<?xml version="1.0" encoding="UTF-8" standalone="no"?>
<!DOCTYPE svg PUBLIC "-//W3C//DTD SVG 1.1//EN" "http://www.w3.org/Graphics/SVG/1.1/DTD/svg11.dtd">
<!-- Created with Vectornator (http://vectornator.io/) -->
<svg height="100%" stroke-miterlimit="10" style="fill-rule:nonzero;clip-rule:evenodd;stroke-linecap:round;stroke-linejoin:round;" version="1.1" viewBox="0 0 46.1 40" width="100%" xml:space="preserve" xmlns="http://www.w3.org/2000/svg" xmlns:vectornator="http://vectornator.io" xmlns:xlink="http://www.w3.org/1999/xlink">
<defs/>
<g id="Untitled" vectornator:layerName="Untitled">
<path d="M2.45026 35.5214C2.01693 35.5214 1.65859 35.3797 1.37526 35.0964C1.09193 34.813 0.950261 34.4547 0.950261 34.0214L0.950261 30.8214C0.950261 29.6547 1.25026 28.5964 1.85026 27.6464C2.45026 26.6964 3.28359 25.988 4.35026 25.5214C6.78359 24.4547 8.97526 23.688 10.9253 23.2214C12.8753 22.7547 14.8836 22.5214 16.9503 22.5214C19.0169 22.5214 21.0169 22.7547 22.9503 23.2214C24.8836 23.688 27.0669 24.4547 29.5003 25.5214C30.5669 25.988 31.4086 26.6964 32.0253 27.6464C32.6419 28.5964 32.9503 29.6547 32.9503 30.8214L32.9503 34.0214C32.9503 34.4547 32.8086 34.813 32.5253 35.0964C32.2419 35.3797 31.8836 35.5214 31.4503 35.5214L2.45026 35.5214ZM34.8503 35.5214C35.1836 35.4547 35.4503 35.2797 35.6503 34.9964C35.8503 34.713 35.9503 34.3547 35.9503 33.9214L35.9503 30.8214C35.9503 28.7214 35.4169 26.9964 34.3503 25.6464C33.2836 24.2964 31.8836 23.2047 30.1503 22.3714C32.4503 22.638 34.6169 23.0297 36.6503 23.5464C38.6836 24.063 40.3336 24.6547 41.6003 25.3214C42.7003 25.9547 43.5669 26.738 44.2003 27.6714C44.8336 28.6047 45.1503 29.6547 45.1503 30.8214L45.1503 34.0214C45.1503 34.4547 45.0086 34.813 44.7253 35.0964C44.4419 35.3797 44.0836 35.5214 43.6503 35.5214L34.8503 35.5214ZM16.9503 19.4714C14.7503 19.4714 12.9503 18.7714 11.5503 17.3714C10.1503 15.9714 9.45026 14.1714 9.45026 11.9714C9.45026 9.77135 10.1503 7.97135 11.5503 6.57135C12.9503 5.17135 14.7503 4.47135 16.9503 4.47135C19.1503 4.47135 20.9503 5.17135 22.3503 6.57135C23.7503 7.97135 24.4503 9.77135 24.4503 11.9714C24.4503 14.1714 23.7503 15.9714 22.3503 17.3714C20.9503 18.7714 19.1503 19.4714 16.9503 19.4714ZM34.9503 11.9714C34.9503 14.1714 34.2503 15.9714 32.8503 17.3714C31.4503 18.7714 29.6503 19.4714 27.4503 19.4714C27.0836 19.4714 26.6753 19.4464 26.2253 19.3964C25.7753 19.3464 25.3669 19.2547 25.0003 19.1214C25.8003 18.288 26.4086 17.263 26.8253 16.0464C27.2419 14.8297 27.4503 13.4714 27.4503 11.9714C27.4503 10.4714 27.2419 9.14635 26.8253 7.99635C26.4086 6.84635 25.8003 5.78802 25.0003 4.82135C25.3669 4.72135 25.7753 4.63802 26.2253 4.57135C26.6753 4.50468 27.0836 4.47135 27.4503 4.47135C29.6503 4.47135 31.4503 5.17135 32.8503 6.57135C34.2503 7.97135 34.9503 9.77135 34.9503 11.9714Z" fill="#00c4d5" fill-rule="nonzero" opacity="1" stroke="none"/>
</g>
</svg>
