<?xml version="1.0" encoding="UTF-8" standalone="no"?>
<!DOCTYPE svg PUBLIC "-//W3C//DTD SVG 1.1//EN" "http://www.w3.org/Graphics/SVG/1.1/DTD/svg11.dtd">
<!-- Created with Vectornator (http://vectornator.io/) -->
<svg height="100%" stroke-miterlimit="10" style="fill-rule:nonzero;clip-rule:evenodd;stroke-linecap:round;stroke-linejoin:round;" version="1.1" viewBox="0 0 44.0951 42" width="100%" xml:space="preserve" xmlns="http://www.w3.org/2000/svg" xmlns:vectornator="http://vectornator.io" xmlns:xlink="http://www.w3.org/1999/xlink">
<defs/>
<g id="Untitled" vectornator:layerName="Untitled">
<path d="M6.9996 39C6.1996 39 5.4996 38.7 4.8996 38.1C4.2996 37.5 3.9996 36.8 3.9996 36L3.9996 19.05C3.06626 18.25 2.4496 17.2667 2.1496 16.1C1.8496 14.9333 1.88293 13.7667 2.2496 12.6L4.3996 5.85C4.66626 4.95 5.13293 4.25 5.7996 3.75C6.46626 3.25 7.23293 3 8.0996 3L35.7496 3C36.6829 3 37.4996 3.25833 38.1996 3.775C38.8996 4.29167 39.3829 4.98333 39.6496 5.85L41.8496 12.6C42.2163 13.7667 42.2413 14.9333 41.9246 16.1C41.6079 17.2667 40.9829 18.25 40.0496 19.05L40.0496 36C40.0496 36.8 39.7496 37.5 39.1496 38.1C38.5496 38.7 37.8496 39 37.0496 39L6.9996 39ZM26.5496 17.5C27.5163 17.5 28.3329 17.1833 28.9996 16.55C29.6663 15.9167 29.9329 15.15 29.7996 14.25L28.5496 6L23.5496 6L23.5496 14.25C23.5496 15.1167 23.8329 15.875 24.3996 16.525C24.9663 17.175 25.6829 17.5 26.5496 17.5ZM17.1996 17.5C18.1329 17.5 18.9246 17.1833 19.5746 16.55C20.2246 15.9167 20.5496 15.15 20.5496 14.25L20.5496 6L15.5496 6L14.2996 14.25C14.1663 15.1167 14.3996 15.875 14.9996 16.525C15.5996 17.175 16.3329 17.5 17.1996 17.5ZM8.0996 17.5C8.8996 17.5 9.59126 17.225 10.1746 16.675C10.7579 16.125 11.0996 15.45 11.1996 14.65L12.4996 6L7.4996 6L5.1996 13.3C4.86626 14.3333 4.9996 15.2917 5.5996 16.175C6.1996 17.0583 7.03293 17.5 8.0996 17.5ZM35.9496 17.5C37.0163 17.5 37.8579 17.0667 38.4746 16.2C39.0913 15.3333 39.2329 14.3667 38.8996 13.3L36.5996 6L31.5996 6L32.8996 14.65C32.9996 15.45 33.3413 16.125 33.9246 16.675C34.5079 17.225 35.1829 17.5 35.9496 17.5Z" fill="#00c4d5" fill-rule="nonzero" opacity="1" stroke="none"/>
</g>
</svg>
