<?xml version="1.0" encoding="UTF-8" standalone="no"?>
<!DOCTYPE svg PUBLIC "-//W3C//DTD SVG 1.1//EN" "http://www.w3.org/Graphics/SVG/1.1/DTD/svg11.dtd">
<!-- Created with Vectornator (http://vectornator.io/) -->
<svg height="100%" stroke-miterlimit="10" style="fill-rule:nonzero;clip-rule:evenodd;stroke-linecap:round;stroke-linejoin:round;" version="1.1" viewBox="0 0 44.0951 42" width="100%" xml:space="preserve" xmlns="http://www.w3.org/2000/svg" xmlns:vectornator="http://vectornator.io" xmlns:xlink="http://www.w3.org/1999/xlink">
<defs/>
<g id="Untitled" vectornator:layerName="Untitled">
<path d="M6.98747 39.007C6.18747 39.007 5.48747 38.707 4.88747 38.107C4.28747 37.507 3.98747 36.807 3.98747 36.007L3.98747 19.057C3.05414 18.257 2.43747 17.2736 2.13747 16.107C1.83747 14.9403 1.8708 13.7736 2.23747 12.607L4.38747 5.85698C4.65414 4.95698 5.1208 4.25698 5.78747 3.75698C6.45414 3.25698 7.2208 3.00698 8.08747 3.00698L35.7375 3.00698C36.6708 3.00698 37.4875 3.26531 38.1875 3.78198C38.8875 4.29865 39.3708 4.99031 39.6375 5.85698L41.8375 12.607C42.2041 13.7736 42.2291 14.9403 41.9125 16.107C41.5958 17.2736 40.9708 18.257 40.0375 19.057L40.0375 36.007C40.0375 36.807 39.7375 37.507 39.1375 38.107C38.5375 38.707 37.8375 39.007 37.0375 39.007L6.98747 39.007ZM26.5375 17.507C27.5041 17.507 28.3208 17.1903 28.9875 16.557C29.6541 15.9236 29.9208 15.157 29.7875 14.257L28.5375 6.00698L23.5375 6.00698L23.5375 14.257C23.5375 15.1236 23.8208 15.882 24.3875 16.532C24.9541 17.182 25.6708 17.507 26.5375 17.507ZM17.1875 17.507C18.1208 17.507 18.9125 17.1903 19.5625 16.557C20.2125 15.9236 20.5375 15.157 20.5375 14.257L20.5375 6.00698L15.5375 6.00698L14.2875 14.257C14.1541 15.1236 14.3875 15.882 14.9875 16.532C15.5875 17.182 16.3208 17.507 17.1875 17.507ZM8.08747 17.507C8.88747 17.507 9.57914 17.232 10.1625 16.682C10.7458 16.132 11.0875 15.457 11.1875 14.657L12.4875 6.00698L7.48747 6.00698L5.18747 13.307C4.85414 14.3403 4.98747 15.2986 5.58747 16.182C6.18747 17.0653 7.0208 17.507 8.08747 17.507ZM35.9375 17.507C37.0041 17.507 37.8458 17.0736 38.4625 16.207C39.0791 15.3403 39.2208 14.3736 38.8875 13.307L36.5875 6.00698L31.5875 6.00698L32.8875 14.657C32.9875 15.457 33.3291 16.132 33.9125 16.682C34.4958 17.232 35.1708 17.507 35.9375 17.507Z" fill="#000000" fill-rule="nonzero" opacity="1" stroke="none"/>
</g>
</svg>
