<?xml version="1.0" encoding="UTF-8" standalone="no"?>
<!DOCTYPE svg PUBLIC "-//W3C//DTD SVG 1.1//EN" "http://www.w3.org/Graphics/SVG/1.1/DTD/svg11.dtd">
<!-- Created with Vectornator (http://vectornator.io/) -->
<svg height="100%" stroke-miterlimit="10" style="fill-rule:nonzero;clip-rule:evenodd;stroke-linecap:round;stroke-linejoin:round;" version="1.1" viewBox="0 0 1024 1024" width="100%" xml:space="preserve" xmlns="http://www.w3.org/2000/svg" xmlns:vectornator="http://vectornator.io" xmlns:xlink="http://www.w3.org/1999/xlink">
<defs/>
<g id="Layer-1" vectornator:layerName="Layer 1">
<g opacity="1">
<path d="M185.23 865.172C158.66 865.172 137.136 846.772 137.136 824.078L216.838 451.265C216.838 428.571 238.362 410.172 264.932 410.172L759.011 410.172C785.581 410.172 807.136 428.571 807.136 451.265L887.136 824.078C887.136 846.772 865.581 865.172 839.011 865.172L185.23 865.172Z" fill="#11353e" fill-rule="nonzero" opacity="1" stroke="none"/>
<g opacity="1">
<path d="M665.954 589.011C665.22 589.212 664.579 589.672 664.173 590.386C647.174 618.286 626.996 644.017 602.485 665.725C579.711 685.896 553.388 702.191 525.016 713.223C500.883 722.609 475.404 728.27 449.61 730.348C443.279 730.857 436.923 731.02 430.579 731.285C425.187 731.51 419.822 731.74 414.423 731.566C408.956 731.39 403.499 730.822 398.048 730.41C384.616 729.395 371.205 727.885 357.923 725.63C347.639 723.883 337.417 721.724 327.329 719.067C324.009 718.193 320.703 717.271 317.423 716.255C316.392 715.935 315.353 715.596 314.329 715.255C313.994 715.143 313.663 715.027 313.329 714.911C313.224 714.874 313.151 714.854 313.048 714.817C313.042 714.815 312.872 714.749 312.892 714.755C304.156 711.759 294.637 716.425 291.642 725.161C288.646 733.896 293.281 743.383 302.016 746.379C309.167 748.779 316.624 750.476 323.985 752.065C337.195 754.917 350.597 756.926 364.048 758.221C375.079 759.284 386.181 759.856 397.266 759.659C403.557 759.547 409.834 759.071 416.11 758.69C423.126 758.265 430.162 757.873 437.142 757.034C448.211 755.704 459.182 753.539 470.048 751.065C508.484 742.315 545.359 726.253 577.235 702.974C601.955 684.922 623.565 662.793 641.61 638.103C651.986 623.905 661.093 608.88 669.329 593.355C670.142 591.926 669.664 590.105 668.235 589.292C667.521 588.885 666.688 588.809 665.954 589.011Z" fill="#ffffff" fill-rule="nonzero" opacity="1" stroke="none"/>
<path d="M692.392 515.514C684.021 515.246 675.465 516.61 667.579 518.545C658.668 520.731 650.038 523.812 641.548 527.264C631.311 531.425 621.384 536.377 611.673 541.638C591.732 552.44 572.404 564.608 554.11 578.011C552.802 578.882 552.457 580.64 553.329 581.948C554.201 583.256 555.959 583.601 557.266 582.729C575.177 572.314 593.784 563.015 612.829 554.856C629.35 547.778 646.444 541.45 664.079 537.794C673.658 535.808 683.878 534.419 693.61 536.013C698.759 536.856 703.926 538.658 707.735 542.357C709.38 543.953 710.71 545.841 711.892 547.794C717.09 556.385 717.761 567.055 717.392 576.855C717.301 579.261 717.144 581.675 716.923 584.073C715.633 598.069 712.484 611.808 708.704 625.321C703.346 644.477 696.477 663.167 689.11 681.632C699.69 662.078 709.704 642.126 717.985 621.477C723.753 607.096 728.886 592.247 731.548 576.948C734.399 560.562 735.048 540.644 722.704 527.732C720.714 525.65 718.469 523.823 716.048 522.264C708.916 517.671 700.762 515.781 692.392 515.514Z" fill="#ffffff" fill-rule="nonzero" opacity="1" stroke="none"/>
</g>
<path d="M511.179 156.241C506.439 156.429 501.703 156.827 497.035 157.492C468.34 161.574 441.316 173.37 417.069 189.002C379.5 213.222 348.014 246.603 321.366 282.251C311.079 296.012 301.459 310.267 292.484 324.92C286.481 334.723 280.706 344.71 275.498 354.961C273.327 358.957 274.817 363.947 278.809 366.121C282.799 368.295 287.784 366.804 289.955 362.808C299.276 347.826 309.458 333.426 320.305 319.513C328.023 309.612 336.066 299.948 344.473 290.628C365.799 266.985 389.456 245.049 416.101 227.514C434.951 215.109 455.38 204.858 477.238 199.005C487.076 196.371 497.139 194.682 507.276 193.753C513.33 193.199 519.345 193.14 525.417 193.191C530.245 193.23 535.066 193.45 539.874 193.909C553.026 195.167 565.924 198.475 578.218 203.287C605.438 213.944 629.548 231.732 650.689 251.678C684.266 283.356 711.556 321.164 735.806 360.276C737.834 363.792 742.317 364.994 745.829 362.964C749.341 360.934 750.542 356.446 748.514 352.929C740.987 338.856 733.141 324.963 724.753 311.385C717.991 300.44 710.903 289.679 703.458 279.187C698.028 271.535 692.392 264.041 686.534 256.711C654.191 216.241 613.703 179.888 563.543 163.869C555.809 161.399 547.882 159.402 539.874 158.054C535.094 157.25 530.229 156.591 525.386 156.335C520.679 156.086 515.919 156.053 511.179 156.241Z" fill="#11353e" fill-rule="nonzero" opacity="1" stroke="none"/>
</g>
</g>
</svg>
