<?xml version="1.0" encoding="UTF-8" standalone="no"?>
<!DOCTYPE svg PUBLIC "-//W3C//DTD SVG 1.1//EN" "http://www.w3.org/Graphics/SVG/1.1/DTD/svg11.dtd">
<!-- Created with Vectornator (http://vectornator.io/) -->
<svg height="100%" stroke-miterlimit="10" style="fill-rule:nonzero;clip-rule:evenodd;stroke-linecap:round;stroke-linejoin:round;" version="1.1" viewBox="0 0 44 42" width="100%" xml:space="preserve" xmlns="http://www.w3.org/2000/svg" xmlns:vectornator="http://vectornator.io" xmlns:xlink="http://www.w3.org/1999/xlink">
<defs/>
<g id="Untitled" vectornator:layerName="Untitled">
<path d="M33.9 11.1L10.1 11.1L10.1 4.5C10.1 4.06667 10.2417 3.70833 10.525 3.425C10.8083 3.14167 11.1667 3 11.6 3L32.4 3C32.8333 3 33.1917 3.14167 33.475 3.425C33.7583 3.70833 33.9 4.06667 33.9 4.5L33.9 11.1ZM34.95 20.35C35.35 20.35 35.7 20.2 36 19.9C36.3 19.6 36.45 19.25 36.45 18.85C36.45 18.45 36.3 18.1 36 17.8C35.7 17.5 35.35 17.35 34.95 17.35C34.55 17.35 34.2 17.5 33.9 17.8C33.6 18.1 33.45 18.45 33.45 18.85C33.45 19.25 33.6 19.6 33.9 19.9C34.2 20.2 34.55 20.35 34.95 20.35ZM13.1 36L30.9 36L30.9 26.4L13.1 26.4L13.1 36ZM13.1 39C12.2667 39 11.5583 38.7083 10.975 38.125C10.3917 37.5417 10.1 36.8333 10.1 36L10.1 30.2L3.5 30.2C3.06667 30.2 2.70833 30.0583 2.425 29.775C2.14167 29.4917 2 29.1333 2 28.7L2 17.9C2 16.4 2.50833 15.1417 3.525 14.125C4.54167 13.1083 5.8 12.6 7.3 12.6L36.7 12.6C38.2 12.6 39.4583 13.1083 40.475 14.125C41.4917 15.1417 42 16.4 42 17.9L42 28.7C42 29.1333 41.8583 29.4917 41.575 29.775C41.2917 30.0583 40.9333 30.2 40.5 30.2L33.9 30.2L33.9 36C33.9 36.8333 33.6083 37.5417 33.025 38.125C32.4417 38.7083 31.7333 39 30.9 39L13.1 39Z" fill="#ffffff" fill-rule="nonzero" opacity="1" stroke="none"/>
</g>
</svg>
