<?xml version="1.0" encoding="UTF-8" standalone="no"?>
<!DOCTYPE svg PUBLIC "-//W3C//DTD SVG 1.1//EN" "http://www.w3.org/Graphics/SVG/1.1/DTD/svg11.dtd">
<!-- Created with Vectornator (http://vectornator.io/) -->
<svg height="100%" stroke-miterlimit="10" style="fill-rule:nonzero;clip-rule:evenodd;stroke-linecap:round;stroke-linejoin:round;" version="1.1" viewBox="0 0 40 44" width="100%" xml:space="preserve" xmlns="http://www.w3.org/2000/svg" xmlns:vectornator="http://vectornator.io" xmlns:xlink="http://www.w3.org/1999/xlink">
<defs/>
<g id="Untitled" vectornator:layerName="Untitled">
<path d="M13.4502 33.5L26.5502 33.5C26.9835 33.5 27.3419 33.3583 27.6252 33.075C27.9085 32.7917 28.0502 32.4333 28.0502 32C28.0502 31.5667 27.9085 31.2083 27.6252 30.925C27.3419 30.6417 26.9835 30.5 26.5502 30.5L13.4502 30.5C13.0169 30.5 12.6585 30.6417 12.3752 30.925C12.0919 31.2083 11.9502 31.5667 11.9502 32C11.9502 32.4333 12.0919 32.7917 12.3752 33.075C12.6585 33.3583 13.0169 33.5 13.4502 33.5ZM13.4502 25L26.5502 25C26.9835 25 27.3419 24.8583 27.6252 24.575C27.9085 24.2917 28.0502 23.9333 28.0502 23.5C28.0502 23.0667 27.9085 22.7083 27.6252 22.425C27.3419 22.1417 26.9835 22 26.5502 22L13.4502 22C13.0169 22 12.6585 22.1417 12.3752 22.425C12.0919 22.7083 11.9502 23.0667 11.9502 23.5C11.9502 23.9333 12.0919 24.2917 12.3752 24.575C12.6585 24.8583 13.0169 25 13.4502 25ZM7.00021 42C6.20021 42 5.50021 41.7 4.90021 41.1C4.30021 40.5 4.00021 39.8 4.00021 39L4.00021 5C4.00021 4.2 4.30021 3.5 4.90021 2.9C5.50021 2.3 6.20021 2 7.00021 2L23.8002 2C24.2002 2 24.5919 2.08333 24.9752 2.25C25.3585 2.41667 25.6835 2.63333 25.9502 2.9L35.1002 12.05C35.3669 12.3167 35.5835 12.6417 35.7502 13.025C35.9169 13.4083 36.0002 13.8 36.0002 14.2L36.0002 39C36.0002 39.8 35.7002 40.5 35.1002 41.1C34.5002 41.7 33.8002 42 33.0002 42L7.00021 42ZM23.5502 12.8C23.5502 13.2333 23.6919 13.5917 23.9752 13.875C24.2585 14.1583 24.6169 14.3 25.0502 14.3L33.0002 14.3L23.5502 5L23.5502 12.8Z" fill="#ffffff" fill-rule="nonzero" opacity="1" stroke="none"/>
</g>
</svg>
