<?xml version="1.0" encoding="UTF-8" standalone="no"?>
<!DOCTYPE svg PUBLIC "-//W3C//DTD SVG 1.1//EN" "http://www.w3.org/Graphics/SVG/1.1/DTD/svg11.dtd">
<!-- Created with Vectornator (http://vectornator.io/) -->
<svg height="100%" stroke-miterlimit="10" style="fill-rule:nonzero;clip-rule:evenodd;stroke-linecap:round;stroke-linejoin:round;" version="1.1" viewBox="0 0 37.05 37.05" width="100%" xml:space="preserve" xmlns="http://www.w3.org/2000/svg" xmlns:vectornator="http://vectornator.io" xmlns:xlink="http://www.w3.org/1999/xlink">
<defs/>
<g id="Untitled" vectornator:layerName="Untitled">
<path d="M18.525 20.625L8.025 31.125C7.725 31.425 7.375 31.575 6.975 31.575C6.575 31.575 6.225 31.425 5.925 31.125C5.625 30.825 5.475 30.475 5.475 30.075C5.475 29.675 5.625 29.325 5.925 29.025L16.425 18.525L5.925 8.025C5.625 7.725 5.475 7.375 5.475 6.975C5.475 6.575 5.625 6.225 5.925 5.925C6.225 5.625 6.575 5.475 6.975 5.475C7.375 5.475 7.725 5.625 8.025 5.925L18.525 16.425L29.025 5.925C29.325 5.625 29.675 5.475 30.075 5.475C30.475 5.475 30.825 5.625 31.125 5.925C31.425 6.225 31.575 6.575 31.575 6.975C31.575 7.375 31.425 7.725 31.125 8.025L20.625 18.525L31.125 29.025C31.425 29.325 31.575 29.675 31.575 30.075C31.575 30.475 31.425 30.825 31.125 31.125C30.825 31.425 30.475 31.575 30.075 31.575C29.675 31.575 29.325 31.425 29.025 31.125L18.525 20.625Z" fill="#8e8e8e" fill-rule="nonzero" opacity="1" stroke="none"/>
</g>
</svg>
