<?xml version="1.0" encoding="UTF-8" standalone="no"?>
<!DOCTYPE svg PUBLIC "-//W3C//DTD SVG 1.1//EN" "http://www.w3.org/Graphics/SVG/1.1/DTD/svg11.dtd">
<!-- Created with Vectornator (http://vectornator.io/) -->
<svg height="100%" stroke-miterlimit="10" style="fill-rule:nonzero;clip-rule:evenodd;stroke-linecap:round;stroke-linejoin:round;" version="1.1" viewBox="0 0 46 39.95" width="100%" xml:space="preserve" xmlns="http://www.w3.org/2000/svg" xmlns:vectornator="http://vectornator.io" xmlns:xlink="http://www.w3.org/1999/xlink">
<defs/>
<g id="Untitled" vectornator:layerName="Untitled">
<path d="M10.202 35.9561C8.56864 35.9561 7.17697 35.3894 6.02697 34.2561C4.87697 33.1228 4.30197 31.7228 4.30197 30.0561L4.00197 30.0561C3.16864 30.0561 2.46031 29.7644 1.87697 29.1811C1.29364 28.5978 1.00197 27.8894 1.00197 27.0561L1.00197 7.0061C1.00197 6.2061 1.30197 5.5061 1.90197 4.9061C2.50197 4.3061 3.20197 4.0061 4.00197 4.0061L29.952 4.0061C30.7853 4.0061 31.4936 4.29776 32.077 4.8811C32.6603 5.46443 32.952 6.17276 32.952 7.0061L32.952 12.3561L37.452 12.3561C37.7186 12.3561 37.952 12.4061 38.152 12.5061C38.352 12.6061 38.5186 12.7561 38.652 12.9561L44.702 21.0061C44.802 21.1394 44.877 21.2811 44.927 21.4311C44.977 21.5811 45.002 21.7394 45.002 21.9061L45.002 28.5561C45.002 28.9894 44.8603 29.3478 44.577 29.6311C44.2936 29.9144 43.9353 30.0561 43.502 30.0561L41.452 30.0561C41.452 31.7228 40.877 33.1228 39.727 34.2561C38.577 35.3894 37.1853 35.9561 35.552 35.9561C33.9186 35.9561 32.527 35.3894 31.377 34.2561C30.227 33.1228 29.652 31.7228 29.652 30.0561L16.102 30.0561C16.102 31.7228 15.527 33.1228 14.377 34.2561C13.227 35.3894 11.8353 35.9561 10.202 35.9561ZM10.202 32.9561C11.002 32.9561 11.6853 32.6728 12.252 32.1061C12.8186 31.5394 13.102 30.8561 13.102 30.0561C13.102 29.2561 12.8186 28.5728 12.252 28.0061C11.6853 27.4394 11.002 27.1561 10.202 27.1561C9.40197 27.1561 8.71864 27.4394 8.15197 28.0061C7.58531 28.5728 7.30197 29.2561 7.30197 30.0561C7.30197 30.8561 7.58531 31.5394 8.15197 32.1061C8.71864 32.6728 9.40197 32.9561 10.202 32.9561ZM35.552 32.9561C36.352 32.9561 37.0353 32.6728 37.602 32.1061C38.1686 31.5394 38.452 30.8561 38.452 30.0561C38.452 29.2561 38.1686 28.5728 37.602 28.0061C37.0353 27.4394 36.352 27.1561 35.552 27.1561C34.752 27.1561 34.0686 27.4394 33.502 28.0061C32.9353 28.5728 32.652 29.2561 32.652 30.0561C32.652 30.8561 32.9353 31.5394 33.502 32.1061C34.0686 32.6728 34.752 32.9561 35.552 32.9561ZM32.952 22.7561L42.252 22.7561L36.702 15.3561L32.952 15.3561L32.952 22.7561Z" fill="#000000" fill-rule="nonzero" opacity="1" stroke="none"/>
</g>
</svg>
