<?xml version="1.0" encoding="UTF-8" standalone="no"?>
<!DOCTYPE svg PUBLIC "-//W3C//DTD SVG 1.1//EN" "http://www.w3.org/Graphics/SVG/1.1/DTD/svg11.dtd">
<!-- Created with Vectornator (http://vectornator.io/) -->
<svg height="100%" stroke-miterlimit="10" style="fill-rule:nonzero;clip-rule:evenodd;stroke-linecap:round;stroke-linejoin:round;" version="1.1" viewBox="0 0 46 39.95" width="100%" xml:space="preserve" xmlns="http://www.w3.org/2000/svg" xmlns:vectornator="http://vectornator.io" xmlns:xlink="http://www.w3.org/1999/xlink">
<defs/>
<g id="Untitled" vectornator:layerName="Untitled">
<path d="M10.1999 35.9561C8.56655 35.9561 7.17488 35.3894 6.02488 34.2561C4.87488 33.1228 4.29988 31.7228 4.29988 30.0561L3.99988 30.0561C3.16655 30.0561 2.45821 29.7644 1.87488 29.1811C1.29155 28.5978 0.99988 27.8894 0.99988 27.0561L0.99988 7.0061C0.99988 6.2061 1.29988 5.5061 1.89988 4.9061C2.49988 4.3061 3.19988 4.0061 3.99988 4.0061L29.9499 4.0061C30.7832 4.0061 31.4915 4.29776 32.0749 4.8811C32.6582 5.46443 32.9499 6.17276 32.9499 7.0061L32.9499 12.3561L37.4499 12.3561C37.7165 12.3561 37.9499 12.4061 38.1499 12.5061C38.3499 12.6061 38.5165 12.7561 38.6499 12.9561L44.6999 21.0061C44.7999 21.1394 44.8749 21.2811 44.9249 21.4311C44.9749 21.5811 44.9999 21.7394 44.9999 21.9061L44.9999 28.5561C44.9999 28.9894 44.8582 29.3478 44.5749 29.6311C44.2915 29.9144 43.9332 30.0561 43.4999 30.0561L41.4499 30.0561C41.4499 31.7228 40.8749 33.1228 39.7249 34.2561C38.5749 35.3894 37.1832 35.9561 35.5499 35.9561C33.9165 35.9561 32.5249 35.3894 31.3749 34.2561C30.2249 33.1228 29.6499 31.7228 29.6499 30.0561L16.0999 30.0561C16.0999 31.7228 15.5249 33.1228 14.3749 34.2561C13.2249 35.3894 11.8332 35.9561 10.1999 35.9561ZM10.1999 32.9561C10.9999 32.9561 11.6832 32.6728 12.2499 32.1061C12.8165 31.5394 13.0999 30.8561 13.0999 30.0561C13.0999 29.2561 12.8165 28.5728 12.2499 28.0061C11.6832 27.4394 10.9999 27.1561 10.1999 27.1561C9.39988 27.1561 8.71655 27.4394 8.14988 28.0061C7.58321 28.5728 7.29988 29.2561 7.29988 30.0561C7.29988 30.8561 7.58321 31.5394 8.14988 32.1061C8.71655 32.6728 9.39988 32.9561 10.1999 32.9561ZM35.5499 32.9561C36.3499 32.9561 37.0332 32.6728 37.5999 32.1061C38.1665 31.5394 38.4499 30.8561 38.4499 30.0561C38.4499 29.2561 38.1665 28.5728 37.5999 28.0061C37.0332 27.4394 36.3499 27.1561 35.5499 27.1561C34.7499 27.1561 34.0665 27.4394 33.4999 28.0061C32.9332 28.5728 32.6499 29.2561 32.6499 30.0561C32.6499 30.8561 32.9332 31.5394 33.4999 32.1061C34.0665 32.6728 34.7499 32.9561 35.5499 32.9561ZM32.9499 22.7561L42.2499 22.7561L36.6999 15.3561L32.9499 15.3561L32.9499 22.7561Z" fill="#0f4d64" fill-rule="nonzero" opacity="1" stroke="none"/>
</g>
</svg>
