<?xml version="1.0" encoding="UTF-8" standalone="no"?>
<!DOCTYPE svg PUBLIC "-//W3C//DTD SVG 1.1//EN" "http://www.w3.org/Graphics/SVG/1.1/DTD/svg11.dtd">
<!-- Created with Vectornator (http://vectornator.io/) -->
<svg height="100%" stroke-miterlimit="10" style="fill-rule:nonzero;clip-rule:evenodd;stroke-linecap:round;stroke-linejoin:round;" version="1.1" viewBox="0 0 42 45.4" width="100%" xml:space="preserve" xmlns="http://www.w3.org/2000/svg" xmlns:vectornator="http://vectornator.io" xmlns:xlink="http://www.w3.org/1999/xlink">
<defs/>
<g id="Untitled" vectornator:layerName="Untitled">
<path d="M19.95 42.95L15 38L6 38C5.2 38 4.5 37.6917 3.9 37.075C3.3 36.4583 3 35.7667 3 35L3 5C3 4.2 3.3 3.5 3.9 2.9C4.5 2.3 5.2 2 6 2L36 2C36.7667 2 37.4583 2.3 38.075 2.9C38.6917 3.5 39 4.2 39 5L39 35C39 35.7667 38.6917 36.4583 38.075 37.075C37.4583 37.6917 36.7667 38 36 38L27 38L22.05 42.95C21.75 43.25 21.4 43.4 21 43.4C20.6 43.4 20.25 43.25 19.95 42.95ZM23.85 22.95L28.7 20.85C29 20.7167 29.15 20.4833 29.15 20.15C29.15 19.8167 29 19.5833 28.7 19.45L23.85 17.35L21.75 12.5C21.6167 12.2 21.3833 12.05 21.05 12.05C20.7167 12.05 20.4833 12.2 20.35 12.5L18.2 17.35L13.4 19.45C13.1 19.5833 12.95 19.8167 12.95 20.15C12.95 20.4833 13.1 20.7167 13.4 20.85L18.2 22.95L20.35 27.8C20.4833 28.1 20.7167 28.25 21.05 28.25C21.3833 28.25 21.6167 28.1 21.75 27.8L23.85 22.95Z" fill="#000000" fill-rule="nonzero" opacity="1" stroke="none"/>
</g>
</svg>
