<?xml version="1.0" encoding="UTF-8" standalone="no"?>
<!DOCTYPE svg PUBLIC "-//W3C//DTD SVG 1.1//EN" "http://www.w3.org/Graphics/SVG/1.1/DTD/svg11.dtd">
<!-- Created with Vectornator (http://vectornator.io/) -->
<svg height="100%" stroke-miterlimit="10" style="fill-rule:nonzero;clip-rule:evenodd;stroke-linecap:round;stroke-linejoin:round;" version="1.1" viewBox="0 0 41.8071 42.3773" width="100%" xml:space="preserve" xmlns="http://www.w3.org/2000/svg" xmlns:vectornator="http://vectornator.io" xmlns:xlink="http://www.w3.org/1999/xlink">
<defs/>
<g id="Untitled" vectornator:layerName="Untitled">
<path d="M20.9083 32.3815L11.6083 37.9815C11.3417 38.1482 11.0583 38.2232 10.7583 38.2065C10.4583 38.1899 10.1917 38.0982 9.95835 37.9315C9.72502 37.7649 9.55002 37.5482 9.43335 37.2815C9.31668 37.0149 9.29168 36.7149 9.35835 36.3815L11.8083 25.7815L3.60835 18.6315C3.34168 18.3982 3.18335 18.1399 3.13335 17.8565C3.08335 17.5732 3.09168 17.2982 3.15835 17.0315C3.22502 16.7649 3.37502 16.5399 3.60835 16.3565C3.84168 16.1732 4.12502 16.0649 4.45835 16.0315L15.3083 15.0815L19.5083 5.08154C19.6417 4.78154 19.8417 4.55654 20.1083 4.40654C20.375 4.25654 20.6417 4.18154 20.9083 4.18154C21.175 4.18154 21.4417 4.25654 21.7083 4.40654C21.975 4.55654 22.175 4.78154 22.3083 5.08154L26.5083 15.0815L37.3584 16.0315C37.6917 16.0649 37.975 16.1732 38.2084 16.3565C38.4417 16.5399 38.5917 16.7649 38.6584 17.0315C38.725 17.2982 38.7334 17.5732 38.6834 17.8565C38.6334 18.1399 38.475 18.3982 38.2084 18.6315L30.0084 25.7815L32.4584 36.3815C32.525 36.7149 32.5 37.0149 32.3834 37.2815C32.2667 37.5482 32.0917 37.7649 31.8584 37.9315C31.625 38.0982 31.3584 38.1899 31.0584 38.2065C30.7584 38.2232 30.475 38.1482 30.2084 37.9815L20.9083 32.3815Z" fill="#ffc400" fill-rule="nonzero" opacity="1" stroke="none"/>
</g>
</svg>
