<?xml version="1.0" encoding="UTF-8" standalone="no"?>
<!DOCTYPE svg PUBLIC "-//W3C//DTD SVG 1.1//EN" "http://www.w3.org/Graphics/SVG/1.1/DTD/svg11.dtd">
<!-- Created with Vectornator (http://vectornator.io/) -->
<svg height="100%" stroke-miterlimit="10" style="fill-rule:nonzero;clip-rule:evenodd;stroke-linecap:round;stroke-linejoin:round;" version="1.1" viewBox="0 0 41.8071 42.3773" width="100%" xml:space="preserve" xmlns="http://www.w3.org/2000/svg" xmlns:vectornator="http://vectornator.io" xmlns:xlink="http://www.w3.org/1999/xlink">
<defs/>
<g id="Untitled" vectornator:layerName="Untitled">
<path d="M13.0536 33.575L20.9036 28.875L28.7536 33.625L26.6536 24.725L33.5536 18.725L24.4536 17.925L20.9036 9.525L17.3536 17.875L8.25357 18.675L15.1536 24.675L13.0536 33.575ZM20.9036 32.375L11.6036 37.975C11.3369 38.1417 11.0536 38.2167 10.7536 38.2C10.4536 38.1833 10.1869 38.0917 9.95357 37.925C9.72024 37.7583 9.54524 37.5417 9.42857 37.275C9.3119 37.0083 9.2869 36.7083 9.35357 36.375L11.8036 25.775L3.60357 18.625C3.3369 18.3917 3.17857 18.1333 3.12857 17.85C3.07857 17.5667 3.0869 17.2917 3.15357 17.025C3.22024 16.7583 3.37024 16.5333 3.60357 16.35C3.8369 16.1667 4.12024 16.0583 4.45357 16.025L15.3036 15.075L19.5036 5.075C19.6369 4.775 19.8369 4.55 20.1036 4.4C20.3702 4.25 20.6369 4.175 20.9036 4.175C21.1702 4.175 21.4369 4.25 21.7036 4.4C21.9702 4.55 22.1702 4.775 22.3036 5.075L26.5036 15.075L37.3536 16.025C37.6869 16.0583 37.9702 16.1667 38.2036 16.35C38.4369 16.5333 38.5869 16.7583 38.6536 17.025C38.7202 17.2917 38.7286 17.5667 38.6786 17.85C38.6286 18.1333 38.4702 18.3917 38.2036 18.625L30.0036 25.775L32.4536 36.375C32.5202 36.7083 32.4952 37.0083 32.3786 37.275C32.2619 37.5417 32.0869 37.7583 31.8536 37.925C31.6202 38.0917 31.3536 38.1833 31.0536 38.2C30.7536 38.2167 30.4702 38.1417 30.2036 37.975L20.9036 32.375Z" fill="#ffc400" fill-rule="nonzero" opacity="1" stroke="none"/>
</g>
</svg>
