<?xml version="1.0" encoding="UTF-8" standalone="no"?>
<!DOCTYPE svg PUBLIC "-//W3C//DTD SVG 1.1//EN" "http://www.w3.org/Graphics/SVG/1.1/DTD/svg11.dtd">
<!-- Created with Vectornator (http://vectornator.io/) -->
<svg height="100%" stroke-miterlimit="10" style="fill-rule:nonzero;clip-rule:evenodd;stroke-linecap:round;stroke-linejoin:round;" version="1.1" viewBox="0 0 41.75 43.95" width="100%" xml:space="preserve" xmlns="http://www.w3.org/2000/svg" xmlns:vectornator="http://vectornator.io" xmlns:xlink="http://www.w3.org/1999/xlink">
<defs/>
<g id="Untitled" vectornator:layerName="Untitled">
<path d="M13.0493 41.9154C12.0493 41.9154 11.1993 41.5654 10.4993 40.8654C9.79935 40.1654 9.44935 39.3154 9.44935 38.3154C9.44935 37.3154 9.79935 36.4654 10.4993 35.7654C11.1993 35.0654 12.0493 34.7154 13.0493 34.7154C14.0493 34.7154 14.8993 35.0654 15.5993 35.7654C16.2993 36.4654 16.6493 37.3154 16.6493 38.3154C16.6493 39.3154 16.2993 40.1654 15.5993 40.8654C14.8993 41.5654 14.0493 41.9154 13.0493 41.9154ZM33.0493 41.9154C32.0493 41.9154 31.1993 41.5654 30.4993 40.8654C29.7993 40.1654 29.4493 39.3154 29.4493 38.3154C29.4493 37.3154 29.7993 36.4654 30.4993 35.7654C31.1993 35.0654 32.0493 34.7154 33.0493 34.7154C34.0493 34.7154 34.8993 35.0654 35.5993 35.7654C36.2993 36.4654 36.6493 37.3154 36.6493 38.3154C36.6493 39.3154 36.2993 40.1654 35.5993 40.8654C34.8993 41.5654 34.0493 41.9154 33.0493 41.9154ZM10.4493 8.91543L15.9493 20.3154L30.3493 20.3154L36.5993 8.91543L10.4493 8.91543ZM8.94935 5.91543L38.3993 5.91543C39.166 5.91543 39.7493 6.26543 40.1493 6.96543C40.5493 7.66543 40.5493 8.36543 40.1493 9.06543L33.3993 21.2154C33.0327 21.8488 32.5577 22.3571 31.9743 22.7404C31.391 23.1238 30.7493 23.3154 30.0493 23.3154L14.8993 23.3154L12.0993 28.5154L36.6493 28.5154L36.6493 31.5154L12.5493 31.5154C11.1493 31.5154 10.141 31.0488 9.52435 30.1154C8.90768 29.1821 8.91601 28.1321 9.54935 26.9654L12.7493 21.0654L5.14935 4.96543L1.24935 4.96543L1.24935 1.96543L7.09935 1.96543L8.94935 5.91543ZM15.9493 20.3154L30.3493 20.3154L15.9493 20.3154Z" fill="#00bbcb" fill-rule="nonzero" opacity="1" stroke="none"/>
</g>
</svg>
