<?xml version="1.0" encoding="UTF-8" standalone="no"?>
<!DOCTYPE svg PUBLIC "-//W3C//DTD SVG 1.1//EN" "http://www.w3.org/Graphics/SVG/1.1/DTD/svg11.dtd">
<!-- Created with Vectornator (http://vectornator.io/) -->
<svg height="100%" stroke-miterlimit="10" style="fill-rule:nonzero;clip-rule:evenodd;stroke-linecap:round;stroke-linejoin:round;" version="1.1" viewBox="0 0 44 41.95" width="100%" xml:space="preserve" xmlns="http://www.w3.org/2000/svg" xmlns:vectornator="http://vectornator.io" xmlns:xlink="http://www.w3.org/1999/xlink">
<defs/>
<g id="Untitled" vectornator:layerName="Untitled">
<path d="M22 39.3L19.95 37.45C16.4167 34.2167 13.5 31.425 11.2 29.075C8.9 26.725 7.06667 24.625 5.7 22.775C4.33333 20.925 3.375 19.25 2.825 17.75C2.275 16.25 2 14.7333 2 13.2C2 10.2 3.00833 7.69167 5.025 5.675C7.04167 3.65833 9.53333 2.65 12.5 2.65C14.4 2.65 16.1583 3.1 17.775 4C19.3917 4.9 20.8 6.2 22 7.9C23.4 6.1 24.8833 4.775 26.45 3.925C28.0167 3.075 29.7 2.65 31.5 2.65C34.4667 2.65 36.9583 3.65833 38.975 5.675C40.9917 7.69167 42 10.2 42 13.2C42 14.7333 41.725 16.25 41.175 17.75C40.625 19.25 39.6667 20.925 38.3 22.775C36.9333 24.625 35.1 26.725 32.8 29.075C30.5 31.425 27.5833 34.2167 24.05 37.45L22 39.3ZM22 35.35C25.3667 32.25 28.1417 29.5917 30.325 27.375C32.5083 25.1583 34.2417 23.2167 35.525 21.55C36.8083 19.8833 37.7083 18.4 38.225 17.1C38.7417 15.8 39 14.5 39 13.2C39 11 38.3 9.19167 36.9 7.775C35.5 6.35833 33.7 5.65 31.5 5.65C29.8 5.65 28.2167 6.175 26.75 7.225C25.2833 8.275 24.1 9.75 23.2 11.65L20.75 11.65C19.8833 9.78333 18.7167 8.31667 17.25 7.25C15.7833 6.18333 14.2 5.65 12.5 5.65C10.3 5.65 8.5 6.35833 7.1 7.775C5.7 9.19167 5 11 5 13.2C5 14.5 5.25833 15.8083 5.775 17.125C6.29167 18.4417 7.19167 19.9417 8.475 21.625C9.75833 23.3083 11.5 25.25 13.7 27.45C15.9 29.65 18.6667 32.2833 22 35.35Z" fill="#00bbcb" fill-rule="nonzero" opacity="1" stroke="none"/>
</g>
</svg>
