<?xml version="1.0" encoding="UTF-8" standalone="no"?>
<!DOCTYPE svg PUBLIC "-//W3C//DTD SVG 1.1//EN" "http://www.w3.org/Graphics/SVG/1.1/DTD/svg11.dtd">
<!-- Created with Vectornator (http://vectornator.io/) -->
<svg height="100%" stroke-miterlimit="10" style="fill-rule:nonzero;clip-rule:evenodd;stroke-linecap:round;stroke-linejoin:round;" version="1.1" viewBox="0 0 1024 1024" width="100%" xml:space="preserve" xmlns="http://www.w3.org/2000/svg" xmlns:vectornator="http://vectornator.io" xmlns:xlink="http://www.w3.org/1999/xlink">
<defs/>
<g id="Layer-1" vectornator:layerName="Layer 1">
<g opacity="1">
<path d="M74.4763 986.573C38.9156 986.573 10.1083 961.947 10.1083 931.574L116.78 432.609C116.78 402.236 145.587 377.611 181.148 377.611L842.412 377.611C877.973 377.611 906.821 402.236 906.821 432.609L1013.89 931.574C1013.89 961.947 985.043 986.573 949.482 986.573L74.4763 986.573Z" fill="#ffffff" fill-rule="nonzero" opacity="1" stroke="none"/>
<g opacity="1">
<path d="M718.049 617.076C717.066 617.345 716.208 617.961 715.665 618.917C692.914 656.257 665.908 690.695 633.103 719.749C602.623 746.745 567.393 768.554 529.42 783.319C497.121 795.881 463.021 803.457 428.499 806.239C420.025 806.92 411.519 807.138 403.028 807.493C395.811 807.794 388.631 808.102 381.405 807.869C374.088 807.633 366.785 806.873 359.489 806.322C341.512 804.963 323.563 802.942 305.787 799.924C292.023 797.586 278.342 794.696 264.84 791.14C260.397 789.971 255.972 788.737 251.582 787.377C250.203 786.949 248.812 786.495 247.442 786.038C246.993 785.889 246.55 785.733 246.103 785.578C245.963 785.529 245.865 785.502 245.727 785.452C245.719 785.45 245.492 785.361 245.518 785.369C233.826 781.359 221.086 787.604 217.078 799.296C213.068 810.987 219.271 823.684 230.962 827.694C240.533 830.906 250.513 833.177 260.365 835.304C278.045 839.121 295.982 841.81 313.984 843.543C328.748 844.966 343.607 845.731 358.443 845.468C366.862 845.318 375.263 844.681 383.663 844.171C393.053 843.602 402.47 843.077 411.812 841.955C426.626 840.174 441.31 837.277 455.852 833.966C507.294 822.255 556.647 800.758 599.309 769.602C632.394 745.441 661.316 715.825 685.467 682.78C699.354 663.778 711.543 643.669 722.566 622.89C723.654 620.978 723.014 618.54 721.101 617.452C720.146 616.908 719.031 616.806 718.049 617.076Z" fill="#11353e" fill-rule="nonzero" opacity="1" stroke="none"/>
<path d="M753.433 518.709C742.229 518.351 730.778 520.176 720.223 522.766C708.297 525.692 696.747 529.815 685.384 534.435C671.683 540.004 658.397 546.632 645.4 553.673C618.712 568.13 592.843 584.416 568.359 602.354C566.608 603.52 566.147 605.873 567.314 607.623C568.481 609.374 570.834 609.836 572.583 608.669C596.555 594.729 621.458 582.284 646.947 571.364C669.059 561.891 691.937 553.422 715.539 548.529C728.36 545.871 742.038 544.012 755.063 546.145C761.954 547.273 768.87 549.685 773.967 554.636C776.169 556.772 777.949 559.299 779.531 561.912C786.488 573.41 787.386 587.691 786.892 600.807C786.77 604.027 786.56 607.258 786.264 610.467C784.538 629.199 780.323 647.587 775.264 665.673C768.093 691.311 758.9 716.325 749.04 741.038C763.2 714.868 776.603 688.164 787.686 660.528C795.406 641.281 802.275 621.407 805.838 600.931C809.654 579.001 810.522 552.343 794.002 535.062C791.338 532.275 788.334 529.83 785.093 527.744C775.548 521.596 764.635 519.067 753.433 518.709Z" fill="#11353e" fill-rule="nonzero" opacity="1" stroke="none"/>
</g>
<path d="M510.77 37.5881C504.426 37.8397 498.088 38.3724 491.84 39.2624C453.435 44.7257 417.267 60.5132 384.815 81.4347C334.534 113.85 292.394 158.527 256.729 206.237C242.961 224.655 230.087 243.733 218.073 263.344C210.039 276.464 202.31 289.831 195.34 303.551C192.434 308.899 194.428 315.577 199.771 318.487C205.113 321.396 211.783 319.401 214.689 314.053C227.164 294.001 240.791 274.729 255.309 256.108C265.638 242.856 276.403 229.922 287.654 217.449C316.198 185.805 347.859 156.447 383.521 132.978C408.748 116.376 436.09 102.656 465.344 94.8225C478.511 91.2972 491.979 89.0367 505.546 87.7933C513.65 87.0519 521.699 86.9729 529.826 87.0412C536.288 87.0934 542.74 87.3878 549.176 88.0021C566.777 89.6858 584.041 94.1132 600.495 100.553C636.924 114.817 669.192 138.624 697.488 165.319C742.426 207.716 778.951 258.317 811.407 310.664C814.12 315.37 820.121 316.979 824.82 314.262C829.521 311.545 831.128 305.538 828.414 300.831C818.34 281.996 807.839 263.402 796.613 245.229C787.564 230.581 778.078 216.179 768.112 202.136C760.846 191.895 753.303 181.865 745.461 172.055C702.174 117.891 647.986 69.2367 580.854 47.7973C570.503 44.4915 559.894 41.8187 549.176 40.0146C542.777 38.9386 536.266 38.0565 529.784 37.7139C523.486 37.3807 517.114 37.3365 510.77 37.5881Z" fill="#ffffff" fill-rule="nonzero" opacity="1" stroke="none"/>
</g>
</g>
</svg>
